<svg width="31" height="31" viewBox="0 0 31 31" fill="none" xmlns="http://www.w3.org/2000/svg">
<g clip-path="url(#clip0_1458_40464)">
<path d="M16.4256 20.1822L16.1407 20.2286H16.1198C16.0985 20.2337 16.0776 20.2337 16.0562 20.2393L15.9825 20.2495C12.2476 20.8616 9.08774 20.941 6.32976 20.4978C5.58725 20.3762 4.49436 20.1706 3.56064 19.7697C2.45708 19.2958 1.82919 18.6522 1.6974 17.8558C1.36512 15.909 4.24979 14.3479 5.20021 13.836C7.72151 12.4698 10.8289 11.4888 14.6956 10.8344C18.5622 10.1801 21.8223 10.0803 24.6495 10.5393C26.496 10.8395 28.9857 11.4359 29.2832 13.1798C29.5807 14.9238 27.4269 16.3081 25.7804 17.1996C23.3208 18.5292 20.3155 19.4945 16.5857 20.1483L16.512 20.159C16.4911 20.1646 16.4697 20.1646 16.4488 20.1697C16.4363 20.1822 16.4307 20.1822 16.4256 20.1822ZM16.1036 20.0764H16.1138L16.4043 20.024H16.4094C16.4303 20.0184 16.4516 20.0184 16.4725 20.0133L16.5468 20.0026C20.2552 19.3529 23.2461 18.3937 25.6936 17.0697C29.4289 15.0491 29.1904 13.6671 29.1175 13.2137C28.8117 11.3779 25.6574 10.866 24.6235 10.7026C21.8117 10.2488 18.5729 10.3439 14.722 10.9987C10.8712 11.6535 7.78509 12.6281 5.274 13.9836C1.53915 16.0042 1.77675 17.3862 1.85054 17.8401C2.16147 19.6755 5.31623 20.1822 6.35204 20.3507C9.09517 20.7939 12.2393 20.715 15.9583 20.1029L16.0326 20.0922C16.0535 20.0871 16.0748 20.0871 16.0957 20.082L16.1036 20.0764Z" fill="white"/>
<path d="M16.1495 19.4381C16.0757 19.4488 15.9964 19.4645 15.9124 19.4747C15.7537 19.5012 15.5745 19.5276 15.3792 19.5592L15.3583 19.5648C15.2738 19.575 15.1843 19.5912 15.0891 19.6014C15.0047 19.6121 14.9151 19.6279 14.8204 19.6386H14.8037C14.6617 19.6594 14.5086 19.6752 14.3554 19.6966H14.3345L14.1392 19.7175C14.0863 19.723 14.0283 19.7281 13.9758 19.7388H13.9684C12.7711 19.8706 11.6313 19.95 10.5872 19.9657C8.68819 19.9917 7.16325 19.8177 6.06618 19.4488C5.01506 19.0951 4.34494 18.5573 4.08366 17.85C4.03855 17.7286 4.00499 17.6032 3.98342 17.4755C3.89061 16.9219 4.02566 16.3734 4.38949 15.8513C4.89625 15.1236 5.85595 14.427 7.24353 13.7889C8.54293 13.1856 10.1871 12.6441 12.1284 12.1693C13.3572 11.8686 14.3438 11.6895 14.8241 11.6124C15.3045 11.5354 16.3115 11.3753 17.5566 11.2486C18.9279 11.1094 20.9327 10.9845 22.7101 11.159C24.2346 11.3066 25.3744 11.6496 26.0918 12.1823C26.593 12.5568 26.8988 13.0209 26.9884 13.5745C27.0104 13.707 27.0193 13.8413 27.0148 13.9755C26.9935 14.7296 26.5452 15.4522 25.6853 16.1223C24.7706 16.8323 23.3891 17.502 21.5792 18.1034C20.5768 18.4357 19.4741 18.7364 18.2977 19.0056C18.258 19.0168 18.2175 19.0257 18.1766 19.032L17.7705 19.1197C17.6647 19.1406 17.5645 19.162 17.4642 19.1828L17.364 19.2042C17.306 19.2144 17.2536 19.2251 17.1956 19.2357C17.1375 19.2464 17.074 19.2622 17.0099 19.2729L16.9097 19.2938C16.7143 19.3309 16.5352 19.3624 16.3769 19.394C16.3041 19.4116 16.2247 19.4274 16.1495 19.4381ZM14.3243 19.5434H14.3508C14.4984 19.5276 14.6459 19.5068 14.7884 19.4854H14.8037C14.8938 19.4747 14.9833 19.459 15.0729 19.4488C15.1625 19.4385 15.2585 19.4223 15.342 19.4116L15.3629 19.4065C15.5583 19.3745 15.7342 19.3485 15.8906 19.3272C16.0595 19.3007 16.1913 19.2808 16.3602 19.2483C16.5185 19.2218 16.6976 19.1847 16.893 19.148L16.9932 19.1267C17.0512 19.116 17.1143 19.1058 17.1723 19.09L17.3362 19.058L17.4364 19.0371C17.5366 19.0162 17.6369 18.9949 17.7422 18.974L18.1483 18.884C18.1905 18.8738 18.2276 18.8682 18.2699 18.8575C19.4444 18.5939 20.5397 18.2881 21.5369 17.9595C23.3306 17.3637 24.6968 16.7042 25.5934 16.0026C26.4162 15.3607 26.8436 14.68 26.865 13.9732C26.8692 13.8488 26.8604 13.7244 26.8385 13.6019C26.754 13.0914 26.4672 12.6575 25.9995 12.3095C25.3034 11.799 24.1956 11.4602 22.6976 11.3178C20.9304 11.1488 18.9363 11.2713 17.5752 11.4073C16.3305 11.5289 15.3332 11.6858 14.8534 11.766C14.3735 11.8463 13.3869 12.0296 12.1683 12.3253C10.2656 12.7893 8.58098 13.3434 7.30989 13.9342C5.94877 14.5639 5.01181 15.2392 4.51943 15.9459C4.18158 16.4314 4.05536 16.9428 4.13935 17.4546C4.15922 17.5733 4.19029 17.6899 4.23217 17.8027C4.47998 18.4672 5.1139 18.974 6.12048 19.3114C7.20176 19.6752 8.70536 19.8441 10.5886 19.8177C11.6332 19.8019 12.7674 19.7281 13.9596 19.5912H13.9698C14.0247 19.587 14.0794 19.5798 14.1336 19.5699L14.3234 19.5434H14.3243Z" fill="white"/>
<path d="M9.98467 17.8923L9.96889 17.8872H9.95404L9.96889 18.0348C10.0153 18.0296 10.0585 18.0296 10.1081 18.0245C10.2316 18.0149 10.3556 18.0129 10.4794 18.0185C10.3121 17.9865 10.1469 17.9444 9.98467 17.8923ZM11.4488 18.2844H11.4767H11.4488ZM11.7087 18.1452L11.7263 18.1415L11.7087 18.1452ZM11.7672 18.1364H11.7625V18.1452H11.7732L11.7672 18.1364ZM26.9813 13.5829C26.8917 13.0288 26.5859 12.5647 26.0847 12.1907C25.3673 11.6579 24.2284 11.315 22.703 11.167C20.9256 10.9929 18.9208 11.1205 17.5518 11.257C16.3067 11.3832 15.3043 11.5354 14.8194 11.6208C14.3344 11.7062 13.3506 11.8802 12.1213 12.1796C10.18 12.6543 8.53398 13.1977 7.23644 13.7992C5.84793 14.4373 4.88916 15.1334 4.3824 15.8615C4.01856 16.3836 3.88166 16.9326 3.97633 17.4858C3.99226 17.5815 4.01522 17.676 4.04502 17.7684C4.05523 17.7999 4.06543 17.8301 4.07657 17.8612C4.084 17.8807 4.09142 17.8997 4.09931 17.9187C4.37775 18.5972 5.03859 19.1156 6.06002 19.4595C7.15755 19.8307 8.68202 20.0029 10.581 19.9764H10.6126L10.6334 19.9504C10.9072 19.6609 11.2019 19.3611 11.4966 19.1058C11.5026 19.1003 11.5087 19.0956 11.5147 19.0905L11.6781 18.948H11.4632C11.4511 18.948 11.4386 18.948 11.4265 18.948C10.0181 18.9615 8.88296 18.8357 8.05228 18.5652H8.04485L8.0546 18.5615C8.78365 18.2682 9.38741 18.1058 9.94383 18.0431H9.94708C10.3541 18.1703 10.8543 18.2515 11.4363 18.2854C11.0934 18.267 10.7523 18.2248 10.4153 18.1591C10.3545 18.1466 10.2947 18.1331 10.2362 18.1197L10.1638 18.0988C10.0937 18.0798 10.0246 18.0603 9.96054 18.0399L9.94476 18.0361H9.93966C9.83974 18.0052 9.74507 17.9701 9.65564 17.9308C9.11314 18.0208 8.51496 18.2032 7.80864 18.5007L7.63647 18.5745L7.62533 18.5791L7.81096 18.6478C8.63886 18.9592 9.80647 19.1174 11.2715 19.1119C11.0233 19.3337 10.7861 19.5815 10.5592 19.8186C8.69177 19.8451 7.20395 19.6711 6.12823 19.3123C5.15693 18.9875 4.53368 18.5049 4.26823 17.8737C4.25802 17.8505 4.24828 17.8273 4.23946 17.8023C4.23064 17.7772 4.22043 17.7507 4.21208 17.7243C4.18313 17.636 4.16064 17.5458 4.14479 17.4542C4.06033 16.9437 4.18656 16.4309 4.5244 15.9455C5.01261 15.2392 5.9491 14.564 7.31023 13.9361C8.58178 13.3453 10.2645 12.7912 12.1686 12.3271C13.3872 12.032 14.3739 11.8473 14.8537 11.7679C15.3336 11.6886 16.3309 11.5308 17.576 11.4092C18.9366 11.27 20.9307 11.1507 22.6979 11.3196C24.1959 11.4621 25.3037 11.7995 26.0003 12.3114C26.4699 12.6594 26.7544 13.0919 26.8388 13.6038C26.8609 13.7262 26.8698 13.8507 26.8653 13.9751C26.8444 14.6818 26.417 15.3622 25.5942 16.0058C24.7027 16.7019 23.3467 17.3614 21.5693 17.9521C21.2737 17.7995 20.9572 17.6412 20.6412 17.5039C22.0181 17.0189 23.0678 16.4913 23.7639 15.932L23.917 15.8054H23.8855L23.7166 15.7961C22.7355 15.733 22.0023 15.7859 21.4166 15.9543L21.4008 15.9599L21.3851 15.9701C20.9732 16.2512 20.5307 16.4848 20.0662 16.6662L19.9924 16.6927C19.8499 16.7507 19.6968 16.8087 19.5441 16.8611L19.449 16.8931L19.4517 16.876C19.4578 16.8393 19.4633 16.8022 19.4675 16.7655C19.4951 16.5541 19.5066 16.341 19.5019 16.1279C19.5019 16.0945 19.5019 16.0606 19.4977 16.0267C19.4935 15.9928 19.494 15.959 19.4912 15.9246C19.4884 15.8903 19.4852 15.8559 19.4824 15.8211C19.4796 15.7863 19.4749 15.752 19.4698 15.7176C19.4638 15.6712 19.4568 15.6248 19.449 15.5784C19.4411 15.532 19.4299 15.4856 19.4211 15.4392C19.4169 15.416 19.4118 15.3928 19.4067 15.3705C19.327 15.0105 19.1955 14.664 19.0164 14.3417C18.9555 14.2317 18.8891 14.1248 18.8174 14.0215C18.7955 13.9899 18.7733 13.9579 18.7501 13.9286C18.7269 13.8994 18.7111 13.8753 18.6907 13.8493C18.6702 13.8233 18.647 13.7936 18.6248 13.7662C18.3773 13.4635 18.0861 13.1995 17.7607 12.9829C17.5045 12.8105 17.2282 12.6702 16.9379 12.5652C16.3354 12.3476 15.6889 12.2805 15.0547 12.3698C14.9923 12.3763 14.9303 12.386 14.869 12.3991H14.8528C14.2242 12.5245 13.6358 12.8016 13.1385 13.2061C12.9097 13.3886 12.7039 13.5984 12.5259 13.8307L12.5106 13.8498C12.3903 14.0058 12.2817 14.1705 12.1858 14.3426C12.1667 14.3769 12.1486 14.4117 12.131 14.4466C12.1162 14.4739 12.1027 14.5018 12.0892 14.5305C12.0758 14.5593 12.066 14.577 12.0558 14.602C12.0035 14.7175 11.9571 14.8355 11.9166 14.9556C11.9055 14.9881 11.8948 15.0206 11.8841 15.0531C11.8734 15.0856 11.8646 15.1176 11.8553 15.1505C11.8484 15.1751 11.841 15.2007 11.8345 15.2257C11.8345 15.2308 11.8345 15.2355 11.8312 15.2401C11.8283 15.2483 11.826 15.2567 11.8243 15.2652C11.8182 15.287 11.8131 15.3116 11.808 15.3325C11.8076 15.3351 11.8076 15.3378 11.808 15.3404V15.3473C11.8034 15.3654 11.8001 15.3826 11.7964 15.4007C11.7927 15.4188 11.7894 15.4327 11.7862 15.4471C11.7792 15.481 11.7732 15.5153 11.7672 15.5496C11.7542 15.6262 11.743 15.7023 11.7338 15.7789C11.731 15.8049 11.7282 15.8313 11.7259 15.8578C11.7231 15.8926 11.7203 15.9274 11.718 15.9627C11.7087 16.1193 11.7087 16.2762 11.718 16.4328C11.7212 16.4954 11.7259 16.5585 11.7328 16.6217C11.7328 16.6351 11.7328 16.649 11.737 16.6625C11.743 16.7089 11.7495 16.7493 11.756 16.791C11.756 16.7999 11.756 16.8087 11.7602 16.817C11.76 16.8187 11.76 16.8204 11.7602 16.8221C11.7602 16.8291 11.7625 16.8361 11.7635 16.843C11.7631 16.8447 11.7631 16.8465 11.7635 16.8481C11.7635 16.8569 11.7662 16.8653 11.7672 16.8736C11.77 16.8922 11.7732 16.9098 11.7765 16.9284C11.8103 17.1101 11.8568 17.2892 11.9157 17.4644C11.9921 17.7006 12.0917 17.9287 12.2131 18.1452H12.2164C12.2368 18.1819 12.2586 18.2181 12.2804 18.2552L12.3036 18.2928H12.35C12.3282 18.2928 12.3074 18.2928 12.286 18.2928H12.2776L12.0874 18.3016H12.0962C12.1426 18.3016 12.1848 18.3016 12.228 18.2988C12.2456 18.2988 12.2628 18.2988 12.2804 18.2988H12.2832H12.3496L12.4888 18.2932L12.4159 18.1786C12.4081 18.1661 12.4002 18.1536 12.3927 18.1401C12.2541 17.9113 12.1416 17.6677 12.0572 17.4138C11.9945 17.228 11.9469 17.0374 11.9147 16.8439C11.9045 16.7757 11.8939 16.7121 11.8883 16.6435C11.8841 16.6068 11.8804 16.5697 11.8776 16.533C11.8488 16.2125 11.8632 15.8895 11.9203 15.5729C12.0211 14.9774 12.2658 14.4155 12.6331 13.9361C12.6842 13.8711 12.7375 13.8075 12.7923 13.7458C12.9274 13.5914 13.0752 13.4486 13.2341 13.3189C13.7121 12.9324 14.2771 12.6682 14.8802 12.549L14.8955 12.5462L14.9753 12.5327L15.0681 12.5169C15.6779 12.4309 16.2994 12.4963 16.878 12.7072C17.155 12.807 17.4189 12.9398 17.6641 13.1026C18.4659 13.6334 19.0312 14.4537 19.242 15.3919C19.2522 15.4554 19.268 15.5186 19.2786 15.5872C19.3089 15.7616 19.3265 15.938 19.3315 16.1149C19.3372 16.3912 19.313 16.6674 19.2596 16.9386C19.2596 16.9502 19.2554 16.9614 19.2531 16.973L19.2271 17.1099L19.3589 17.0676L19.4132 17.0491C19.4722 17.0291 19.5288 17.0087 19.5854 16.9887C19.7436 16.9358 19.8917 16.8778 20.0393 16.8198L20.113 16.7934C20.5841 16.6073 21.0333 16.3703 21.4528 16.0866C21.9805 15.939 22.645 15.8861 23.4892 15.9232L23.4831 15.9279C22.7759 16.4588 21.7336 16.9586 20.3873 17.4157L20.1817 17.4844H20.184L20.3822 17.5628L20.3989 17.5693C20.7826 17.7248 21.1574 17.9016 21.5215 18.0988L21.5531 18.1146H21.5744C23.3843 17.5113 24.7658 16.843 25.6787 16.1311C26.5381 15.461 26.9869 14.7389 27.0078 13.9839C27.0122 13.8497 27.0033 13.7154 26.9813 13.5829ZM11.7672 18.1364H11.7625V18.1452H11.7732L11.7672 18.1364ZM11.7268 18.1452L11.7082 18.1485L11.7268 18.1452ZM11.7198 18.3021H11.7282L11.8187 18.3048H11.8897C11.828 18.3048 11.7662 18.3011 11.7087 18.2983C11.6929 18.2983 11.6776 18.2983 11.6623 18.2983H11.6451C11.6425 18.2979 11.6398 18.2979 11.6372 18.2983L11.7198 18.3021ZM9.95358 17.8918L9.96843 18.0394C10.0148 18.0343 10.058 18.0343 10.1076 18.0292C10.2311 18.0195 10.3551 18.0175 10.4789 18.0232C10.3121 17.9911 10.1473 17.9489 9.9856 17.8969L9.96982 17.8918H9.95358ZM9.98421 17.8969L9.96843 17.8918H9.95358L9.96843 18.0394C10.0148 18.0343 10.058 18.0343 10.1076 18.0292C10.2311 18.0195 10.3551 18.0175 10.4789 18.0232C10.3117 17.9896 10.1466 17.9459 9.98467 17.8923L9.98421 17.8969ZM11.7087 18.1452L11.7263 18.1415L11.7087 18.1452ZM11.7672 18.1364H11.7625V18.1452H11.7732L11.7672 18.1364ZM11.7672 18.1378H11.7625V18.1452H11.7732L11.7672 18.1378ZM11.7087 18.1452L11.7263 18.1415L11.7087 18.1452ZM9.98467 17.8923L9.96889 17.8872H9.95404L9.96889 18.0348C10.0153 18.0296 10.0585 18.0296 10.1081 18.0245C10.2316 18.0149 10.3556 18.0129 10.4794 18.0185C10.3121 17.9865 10.1469 17.9444 9.98467 17.8923Z" fill="white"/>
<path d="M9.98467 17.8923L9.96889 17.8872H9.95404L9.96889 18.0348C10.0153 18.0296 10.0585 18.0296 10.1081 18.0245C10.2316 18.0149 10.3556 18.0129 10.4794 18.0185C10.3121 17.9865 10.1469 17.9444 9.98467 17.8923ZM11.4488 18.2844H11.4767H11.4488ZM11.7087 18.1452L11.7263 18.1415L11.7087 18.1452ZM11.7672 18.1364H11.7625V18.1452H11.7732L11.7672 18.1364ZM26.9813 13.5829C26.8917 13.0288 26.5859 12.5647 26.0847 12.1907C25.3673 11.6579 24.2284 11.315 22.703 11.167C20.9256 10.9929 18.9208 11.1205 17.5518 11.257C16.3067 11.3832 15.3043 11.5354 14.8194 11.6208C14.3344 11.7062 13.3506 11.8802 12.1213 12.1796C10.18 12.6543 8.53398 13.1977 7.23644 13.7992C5.84793 14.4373 4.88916 15.1334 4.3824 15.8615C4.01856 16.3836 3.88166 16.9326 3.97633 17.4858C3.99226 17.5815 4.01522 17.676 4.04502 17.7684C4.05523 17.7999 4.06543 17.8301 4.07657 17.8612C4.084 17.8807 4.09142 17.8997 4.09931 17.9187C4.37775 18.5972 5.03859 19.1156 6.06002 19.4595C7.15755 19.8307 8.68202 20.0029 10.581 19.9764H10.6126L10.6334 19.9504C10.9072 19.6609 11.2019 19.3611 11.4966 19.1058C11.5026 19.1003 11.5087 19.0956 11.5147 19.0905L11.6781 18.948H11.4632C11.4511 18.948 11.4386 18.948 11.4265 18.948C10.0181 18.9615 8.88296 18.8357 8.05228 18.5652H8.04485L8.0546 18.5615C8.78365 18.2682 9.38741 18.1058 9.94383 18.0431H9.94708C10.3541 18.1703 10.8543 18.2515 11.4363 18.2854C11.0934 18.267 10.7523 18.2248 10.4153 18.1591C10.3545 18.1466 10.2947 18.1331 10.2362 18.1197L10.1638 18.0988C10.0937 18.0798 10.0246 18.0603 9.96054 18.0399L9.94476 18.0361H9.93966C9.83974 18.0052 9.74507 17.9701 9.65564 17.9308C9.11314 18.0208 8.51496 18.2032 7.80864 18.5007L7.63647 18.5745L7.62533 18.5791L7.81096 18.6478C8.63886 18.9592 9.80647 19.1174 11.2715 19.1119C11.0233 19.3337 10.7861 19.5815 10.5592 19.8186C8.69177 19.8451 7.20395 19.6711 6.12823 19.3123C5.15693 18.9875 4.53368 18.5049 4.26823 17.8737C4.25802 17.8505 4.24828 17.8273 4.23946 17.8023C4.23064 17.7772 4.22043 17.7507 4.21208 17.7243C4.18313 17.636 4.16064 17.5458 4.14479 17.4542C4.06033 16.9437 4.18656 16.4309 4.5244 15.9455C5.01261 15.2392 5.9491 14.564 7.31023 13.9361C8.58178 13.3453 10.2645 12.7912 12.1686 12.3271C13.3872 12.032 14.3739 11.8473 14.8537 11.7679C15.3336 11.6886 16.3309 11.5308 17.576 11.4092C18.9366 11.27 20.9307 11.1507 22.6979 11.3196C24.1959 11.4621 25.3037 11.7995 26.0003 12.3114C26.4699 12.6594 26.7544 13.0919 26.8388 13.6038C26.8609 13.7262 26.8698 13.8507 26.8653 13.9751C26.8444 14.6818 26.417 15.3622 25.5942 16.0058C24.7027 16.7019 23.3467 17.3614 21.5693 17.9521C21.2737 17.7995 20.9572 17.6412 20.6412 17.5039C22.0181 17.0189 23.0678 16.4913 23.7639 15.932L23.917 15.8054H23.8855L23.7166 15.7961C22.7355 15.733 22.0023 15.7859 21.4166 15.9543L21.4008 15.9599L21.3851 15.9701C20.9732 16.2512 20.5307 16.4848 20.0662 16.6662L19.9924 16.6927C19.8499 16.7507 19.6968 16.8087 19.5441 16.8611L19.449 16.8931L19.4517 16.876C19.4578 16.8393 19.4633 16.8022 19.4675 16.7655C19.4951 16.5541 19.5066 16.341 19.5019 16.1279C19.5019 16.0945 19.5019 16.0606 19.4977 16.0267C19.4935 15.9928 19.494 15.959 19.4912 15.9246C19.4884 15.8903 19.4852 15.8559 19.4824 15.8211C19.4796 15.7863 19.4749 15.752 19.4698 15.7176C19.4638 15.6712 19.4568 15.6248 19.449 15.5784C19.4411 15.532 19.4299 15.4856 19.4211 15.4392C19.4169 15.416 19.4118 15.3928 19.4067 15.3705C19.327 15.0105 19.1955 14.664 19.0164 14.3417C18.9555 14.2317 18.8891 14.1248 18.8174 14.0215C18.7955 13.9899 18.7733 13.9579 18.7501 13.9286C18.7269 13.8994 18.7111 13.8753 18.6907 13.8493C18.6702 13.8233 18.647 13.7936 18.6248 13.7662C18.3773 13.4635 18.0861 13.1995 17.7607 12.9829C17.5045 12.8105 17.2282 12.6702 16.9379 12.5652C16.3354 12.3476 15.6889 12.2805 15.0547 12.3698C14.9923 12.3763 14.9303 12.386 14.869 12.3991H14.8528C14.2242 12.5245 13.6358 12.8016 13.1385 13.2061C12.9097 13.3886 12.7039 13.5984 12.5259 13.8307L12.5106 13.8498C12.3903 14.0058 12.2817 14.1705 12.1858 14.3426C12.1667 14.3769 12.1486 14.4117 12.131 14.4466C12.1162 14.4739 12.1027 14.5018 12.0892 14.5305C12.0758 14.5593 12.066 14.577 12.0558 14.602C12.0035 14.7175 11.9571 14.8355 11.9166 14.9556C11.9055 14.9881 11.8948 15.0206 11.8841 15.0531C11.8734 15.0856 11.8646 15.1176 11.8553 15.1505C11.8484 15.1751 11.841 15.2007 11.8345 15.2257C11.8345 15.2308 11.8345 15.2355 11.8312 15.2401C11.8283 15.2483 11.826 15.2567 11.8243 15.2652C11.8182 15.287 11.8131 15.3116 11.808 15.3325C11.8076 15.3351 11.8076 15.3378 11.808 15.3404V15.3473C11.8034 15.3654 11.8001 15.3826 11.7964 15.4007C11.7927 15.4188 11.7894 15.4327 11.7862 15.4471C11.7792 15.481 11.7732 15.5153 11.7672 15.5496C11.7542 15.6262 11.743 15.7023 11.7338 15.7789C11.731 15.8049 11.7282 15.8313 11.7259 15.8578C11.7231 15.8926 11.7203 15.9274 11.718 15.9627C11.7087 16.1193 11.7087 16.2762 11.718 16.4328C11.7212 16.4954 11.7259 16.5585 11.7328 16.6217C11.7328 16.6351 11.7328 16.649 11.737 16.6625C11.743 16.7089 11.7495 16.7493 11.756 16.791C11.756 16.7999 11.756 16.8087 11.7602 16.817C11.76 16.8187 11.76 16.8204 11.7602 16.8221C11.7602 16.8291 11.7625 16.8361 11.7635 16.843C11.7631 16.8447 11.7631 16.8465 11.7635 16.8481C11.7635 16.8569 11.7662 16.8653 11.7672 16.8736C11.77 16.8922 11.7732 16.9098 11.7765 16.9284C11.8103 17.1101 11.8568 17.2892 11.9157 17.4644C11.9921 17.7006 12.0917 17.9287 12.2131 18.1452H12.2164C12.2368 18.1819 12.2586 18.2181 12.2804 18.2552L12.3036 18.2928H12.35C12.3282 18.2928 12.3074 18.2928 12.286 18.2928H12.2776L12.0874 18.3016H12.0962C12.1426 18.3016 12.1848 18.3016 12.228 18.2988C12.2456 18.2988 12.2628 18.2988 12.2804 18.2988H12.2832H12.3496L12.4888 18.2932L12.4159 18.1786C12.4081 18.1661 12.4002 18.1536 12.3927 18.1401C12.2541 17.9113 12.1416 17.6677 12.0572 17.4138C11.9945 17.228 11.9469 17.0374 11.9147 16.8439C11.9045 16.7757 11.8939 16.7121 11.8883 16.6435C11.8841 16.6068 11.8804 16.5697 11.8776 16.533C11.8488 16.2125 11.8632 15.8895 11.9203 15.5729C12.0211 14.9774 12.2658 14.4155 12.6331 13.9361C12.6842 13.8711 12.7375 13.8075 12.7923 13.7458C12.9274 13.5914 13.0752 13.4486 13.2341 13.3189C13.7121 12.9324 14.2771 12.6682 14.8802 12.549L14.8955 12.5462L14.9753 12.5327L15.0681 12.5169C15.6779 12.4309 16.2994 12.4963 16.878 12.7072C17.155 12.807 17.4189 12.9398 17.6641 13.1026C18.4659 13.6334 19.0312 14.4537 19.242 15.3919C19.2522 15.4554 19.268 15.5186 19.2786 15.5872C19.3089 15.7616 19.3265 15.938 19.3315 16.1149C19.3372 16.3912 19.313 16.6674 19.2596 16.9386C19.2596 16.9502 19.2554 16.9614 19.2531 16.973L19.2271 17.1099L19.3589 17.0676L19.4132 17.0491C19.4722 17.0291 19.5288 17.0087 19.5854 16.9887C19.7436 16.9358 19.8917 16.8778 20.0393 16.8198L20.113 16.7934C20.5841 16.6073 21.0333 16.3703 21.4528 16.0866C21.9805 15.939 22.645 15.8861 23.4892 15.9232L23.4831 15.9279C22.7759 16.4588 21.7336 16.9586 20.3873 17.4157L20.1817 17.4844H20.184L20.3822 17.5628L20.3989 17.5693C20.7826 17.7248 21.1574 17.9016 21.5215 18.0988L21.5531 18.1146H21.5744C23.3843 17.5113 24.7658 16.843 25.6787 16.1311C26.5381 15.461 26.9869 14.7389 27.0078 13.9839C27.0122 13.8497 27.0033 13.7154 26.9813 13.5829ZM11.7672 18.1364H11.7625V18.1452H11.7732L11.7672 18.1364ZM11.7268 18.1452L11.7082 18.1485L11.7268 18.1452ZM11.7198 18.3021H11.7282L11.8187 18.3048H11.8897C11.828 18.3048 11.7662 18.3011 11.7087 18.2983C11.6929 18.2983 11.6776 18.2983 11.6623 18.2983H11.6451C11.6425 18.2979 11.6398 18.2979 11.6372 18.2983L11.7198 18.3021ZM9.95358 17.8918L9.96843 18.0394C10.0148 18.0343 10.058 18.0343 10.1076 18.0292C10.2311 18.0195 10.3551 18.0175 10.4789 18.0232C10.3121 17.9911 10.1473 17.9489 9.9856 17.8969L9.96982 17.8918H9.95358ZM9.98421 17.8969L9.96843 17.8918H9.95358L9.96843 18.0394C10.0148 18.0343 10.058 18.0343 10.1076 18.0292C10.2311 18.0195 10.3551 18.0175 10.4789 18.0232C10.3117 17.9896 10.1466 17.9459 9.98467 17.8923L9.98421 17.8969ZM11.7087 18.1452L11.7263 18.1415L11.7087 18.1452ZM11.7087 18.1452L11.7263 18.1415L11.7087 18.1452ZM9.98467 17.8923L9.96889 17.8872H9.95404L9.96889 18.0348C10.0153 18.0296 10.0585 18.0296 10.1081 18.0245C10.2316 18.0149 10.3556 18.0129 10.4794 18.0185C10.3121 17.9865 10.1469 17.9444 9.98467 17.8923Z" fill="white"/>
<path d="M11.7212 18.1309L11.6938 18.1351H11.6882C11.5912 18.1323 11.4956 18.1276 11.4028 18.1221C11.2846 18.115 11.1702 18.1057 11.0594 18.0942C10.8738 18.076 10.7002 18.0517 10.5387 18.0214C10.3484 17.9874 10.1605 17.9409 9.97627 17.8821L9.96003 17.8766H9.94425C9.84308 17.8877 9.74006 17.9032 9.63518 17.923C9.10149 18.0158 8.51584 18.1935 7.8253 18.4799C7.11063 18.2098 6.66048 17.8167 6.48552 17.3136C6.47578 17.2863 6.46696 17.2584 6.45907 17.2296C6.45118 17.2009 6.44607 17.1805 6.44097 17.1563C6.43401 17.1238 6.42844 17.0914 6.42194 17.0607C6.34816 16.6282 6.46417 16.2013 6.76489 15.7947L6.78578 15.7683C7.19369 15.2286 7.9325 14.7111 8.9878 14.2317C9.55823 13.9763 10.1426 13.7534 10.7383 13.5639C11.388 13.3519 12.1026 13.1528 12.8595 12.9709C13.1965 12.8906 13.5051 12.8196 13.7835 12.762C13.797 12.7588 13.8109 12.7565 13.8248 12.7537C13.5805 12.8776 13.3505 13.0279 13.1389 13.202C12.9079 13.3867 12.7004 13.5991 12.5212 13.8345L12.5115 13.8466C12.4608 13.9118 12.4128 13.9788 12.3676 14.0475C12.1775 14.3295 12.0258 14.6355 11.9166 14.9576C11.9054 14.99 11.8947 15.0225 11.8841 15.055C11.8734 15.0875 11.8646 15.1195 11.8553 15.1525C11.8511 15.1668 11.8474 15.1812 11.8437 15.1961C11.84 15.2109 11.8377 15.2174 11.8344 15.2276C11.8312 15.2378 11.8344 15.2374 11.8312 15.242C11.8283 15.2502 11.826 15.2586 11.8242 15.2671C11.8182 15.2889 11.8131 15.3135 11.808 15.3344C11.8075 15.337 11.8075 15.3397 11.808 15.3423V15.3492C11.8033 15.3673 11.8001 15.3845 11.7964 15.4026C11.7926 15.4207 11.7894 15.4346 11.7861 15.449C11.7861 15.4546 11.7834 15.4597 11.7824 15.4657C11.7764 15.4926 11.7718 15.5191 11.7671 15.546C11.7532 15.624 11.7425 15.7024 11.7337 15.7808C11.7309 15.8068 11.7281 15.8333 11.7258 15.8597C11.723 15.8945 11.7203 15.9293 11.7179 15.9646C11.7087 16.1212 11.7087 16.2781 11.7179 16.4347C11.7216 16.4973 11.7263 16.56 11.7332 16.6226C11.7332 16.6352 11.7332 16.6472 11.737 16.6593C11.743 16.7057 11.75 16.7489 11.7564 16.792C11.7571 16.7969 11.758 16.8017 11.7592 16.8064C11.762 16.8282 11.7653 16.8491 11.7685 16.8705C11.7759 16.9169 11.7843 16.9633 11.7945 17.0097C11.7945 17.0143 11.7945 17.0185 11.7968 17.0236C11.8029 17.0491 11.8084 17.0751 11.8145 17.1002C11.8381 17.2013 11.8646 17.296 11.8929 17.387C11.9003 17.4116 11.9082 17.4334 11.9161 17.4603L11.9467 17.5471C11.9574 17.5763 11.9681 17.6051 11.9797 17.6343C12.0024 17.6919 12.0261 17.7494 12.0511 17.806C12.0623 17.8306 12.0729 17.8524 12.0845 17.8784C12.0961 17.9044 12.1073 17.9248 12.1194 17.949C12.1509 18.0139 12.1853 18.078 12.2214 18.1402C12.2419 18.1768 12.2637 18.213 12.2855 18.2501L12.3087 18.2877H12.3551C12.3333 18.2877 12.3124 18.2877 12.2911 18.2877H12.2827L12.0924 18.2965H12.1013C12.1477 18.2965 12.1899 18.2965 12.2331 18.2938H12.285H12.2883H12.3546H12.3653L12.5022 18.2882L12.4345 18.1736C12.4266 18.161 12.4187 18.1485 12.4108 18.1351C12.2695 17.9077 12.154 17.6654 12.0664 17.4125C12.0049 17.2266 11.9583 17.036 11.9272 16.8426C11.917 16.7744 11.9063 16.7108 11.9012 16.6421C11.8961 16.6022 11.892 16.5623 11.8887 16.5219C11.8623 16.2045 11.8779 15.8849 11.9351 15.5715C12.0364 14.9764 12.2814 14.4151 12.6489 13.9361C12.6883 13.886 12.7287 13.8368 12.7704 13.7886C13.3182 13.146 14.0682 12.7089 14.8973 12.549V12.5462L14.8718 12.3987V12.3959C14.7961 12.4089 14.7042 12.4256 14.597 12.4451C14.1905 12.5198 13.571 12.6423 12.8336 12.8163C11.2877 13.1876 9.97952 13.6131 8.93536 14.0879C7.87495 14.5733 7.11573 15.0954 6.68832 15.649L6.66697 15.6755C6.32449 16.1293 6.19223 16.6036 6.27669 17.0895C6.28226 17.122 6.28875 17.1531 6.29618 17.1823C6.30361 17.2115 6.31103 17.2417 6.31892 17.2719C6.32542 17.2942 6.33238 17.3183 6.33934 17.3387C6.51058 17.8617 6.94263 18.2729 7.62296 18.5643C7.62667 18.5665 7.63057 18.5683 7.63456 18.5699C7.68979 18.5936 7.74733 18.6163 7.80673 18.6386L7.83829 18.6488L7.86474 18.6386C7.92786 18.6121 7.99004 18.5861 8.05037 18.5615L8.06058 18.5578C8.78546 18.2664 9.38551 18.1012 9.94518 18.0381H9.9526C10.0194 18.0589 10.089 18.0784 10.161 18.097C10.0909 18.078 10.0217 18.0585 9.95771 18.0381L9.94193 18.0343H9.93682C9.83691 18.0034 9.74224 17.9683 9.65281 17.929C9.75491 17.9118 9.85468 17.8974 9.9526 17.8868L9.96745 18.0343C10.0139 18.0292 10.057 18.0292 10.1067 18.0241C10.2302 18.0145 10.3542 18.0125 10.4779 18.0181C10.6944 18.0604 10.913 18.0914 11.1327 18.1109C11.2256 18.1197 11.3184 18.1267 11.4163 18.1327C11.5142 18.1388 11.6066 18.1425 11.7045 18.1457H11.7096L11.7272 18.142L11.7472 18.1392L11.7625 18.1369V18.1453H11.7732H11.8312C11.917 18.1453 12.0024 18.1499 12.0841 18.1499H12.2163C12.2151 18.1483 12.214 18.1466 12.2131 18.1448H12.0739C11.9931 18.1448 11.9087 18.1411 11.8233 18.1402H11.788L11.7727 18.1369H11.7667H11.762L11.7212 18.1309ZM11.7281 18.3012H11.7305L11.8186 18.3044H11.8896C11.8279 18.3044 11.7662 18.3007 11.7086 18.2979C11.6929 18.2979 11.6776 18.2979 11.6622 18.2979H11.6488L11.7281 18.3012ZM11.7203 18.1341L11.7309 18.1378L11.7203 18.1341ZM12.2122 18.149H12.0729C11.9922 18.149 11.9077 18.1453 11.8223 18.1443H11.788L11.7727 18.1411H11.7667H11.762V18.1453H11.7727H11.8307C11.9166 18.1453 12.0019 18.1499 12.0836 18.1499H12.2159C12.2148 18.1484 12.2139 18.1469 12.2131 18.1453L12.2122 18.149Z" fill="white"/>
<path d="M19.2373 17.1168L19.2637 16.9776C19.3219 16.6948 19.3484 16.4063 19.3426 16.1176C19.3379 15.9416 19.3202 15.7662 19.2897 15.5928C19.2795 15.5241 19.2637 15.461 19.253 15.3979C19.0425 14.4595 18.4771 13.639 17.6752 13.1081C17.43 12.9452 17.1661 12.8124 16.8891 12.7127C16.3105 12.5019 15.6889 12.4367 15.0792 12.5229L15.0527 12.3698C15.4115 12.3118 16.1605 12.1958 17.11 12.1062C18.1806 12.0004 19.7529 11.9057 21.1664 12.0319H21.1771C22.3586 12.1378 23.2557 12.3856 23.8515 12.7707L23.878 12.7865C24.3476 13.0979 24.627 13.4933 24.7064 13.9736C24.7181 14.0433 24.7251 14.1137 24.7272 14.1843C24.7481 14.7909 24.4214 15.3821 23.7527 15.9306L23.7262 15.9515H23.6947C22.7559 15.8935 22.024 15.9408 21.4527 16.1046C21.0331 16.3882 20.5839 16.6251 20.113 16.8114L20.0392 16.8379C19.8911 16.8959 19.7436 16.9539 19.5853 17.0068C19.5115 17.0328 19.4378 17.0592 19.3584 17.0857L19.2373 17.1168ZM16.1498 12.3587C16.4187 12.3969 16.6831 12.4623 16.9387 12.554C17.229 12.659 17.5054 12.7993 17.7615 12.9717C18.2825 13.3189 18.7129 13.7855 19.0168 14.3328C19.1958 14.6547 19.327 15.001 19.4062 15.3607C19.422 15.4294 19.4322 15.5 19.448 15.5663C19.4787 15.7478 19.4964 15.9313 19.5009 16.1153C19.507 16.3713 19.4893 16.6274 19.448 16.8801L19.5431 16.8485C19.6962 16.7956 19.8489 16.7376 19.9914 16.6796L20.0652 16.6532C20.5297 16.4716 20.9721 16.2381 21.3841 15.9571L21.3998 15.9464L21.4156 15.9408C21.9962 15.7724 22.7187 15.7246 23.684 15.7826C24.2961 15.2721 24.5968 14.7328 24.5755 14.1843C24.5735 14.1189 24.5666 14.0537 24.5546 13.9894C24.4808 13.562 24.2325 13.2033 23.8158 12.9183L23.7949 12.9025C23.225 12.528 22.3442 12.2853 21.1785 12.1744H21.1678C19.7649 12.0482 18.1977 12.1429 17.1271 12.2487C16.7684 12.2849 16.4412 12.322 16.1498 12.3587Z" fill="white"/>
<path d="M11.7731 18.1406V18.1453L11.7884 18.142L11.7731 18.1406ZM12.213 18.1457H12.0738C11.993 18.1457 11.9086 18.142 11.8232 18.1411L11.8311 18.1462C11.9169 18.1462 12.0023 18.1508 12.084 18.1508H12.2163C12.215 18.1491 12.2139 18.1472 12.213 18.1453V18.1457ZM11.7318 18.1346L11.6979 18.1401H11.6951C11.5981 18.1369 11.5039 18.1327 11.4116 18.1267C11.3053 18.1211 11.2027 18.1132 11.1025 18.103C10.9008 18.085 10.7003 18.0568 10.5015 18.0186C10.3243 17.9858 10.1493 17.9417 9.97757 17.8868L9.96133 17.8817H9.95669L9.94555 17.8779C9.39562 17.6951 9.02204 17.4167 8.8341 17.0473C8.81646 17.0125 8.79975 16.9763 8.78537 16.9391C8.77794 16.9206 8.77052 16.9015 8.76356 16.8821C8.74054 16.8165 8.723 16.7491 8.71112 16.6806C8.66471 16.4273 8.74824 16.1702 8.9594 15.9052C9.14117 15.6875 9.35344 15.4973 9.5896 15.3404C9.90503 15.125 10.2366 14.9342 10.5813 14.7696C11.1576 14.4937 11.7504 14.2539 12.3564 14.0517L12.368 14.0475C12.303 14.144 12.2427 14.2432 12.187 14.345C12.168 14.3793 12.1499 14.4141 12.1323 14.4489C12.1174 14.4763 12.1039 14.5041 12.0905 14.5329C12.077 14.5617 12.0673 14.5793 12.0571 14.6044C12.0048 14.7199 11.9583 14.8379 11.9179 14.958C11.9067 14.9905 11.896 15.023 11.8854 15.0555C11.8747 15.0879 11.8659 15.12 11.8566 15.1529C11.8496 15.1775 11.8422 15.203 11.8357 15.2281C11.8357 15.2332 11.8357 15.2378 11.8325 15.2425C11.8296 15.2507 11.8273 15.2591 11.8255 15.2675C11.8195 15.2894 11.8144 15.314 11.8093 15.3348C11.8088 15.3374 11.8088 15.3401 11.8093 15.3427V15.3497C11.8046 15.3678 11.8014 15.385 11.7977 15.4031C11.7939 15.4212 11.7879 15.4462 11.7837 15.468C11.7796 15.4898 11.7731 15.5214 11.7684 15.5483C11.7545 15.6263 11.7438 15.7047 11.735 15.7831C11.7322 15.8091 11.7294 15.8356 11.7271 15.862C11.7243 15.8968 11.7216 15.9316 11.7192 15.9669C11.7099 16.1235 11.7099 16.2804 11.7192 16.437C11.7229 16.4997 11.7276 16.5623 11.7345 16.625C11.7345 16.6375 11.7345 16.6495 11.7383 16.6616C11.7443 16.708 11.7513 16.7512 11.7577 16.7943C11.7584 16.7992 11.7593 16.804 11.7605 16.8087C11.7633 16.8305 11.7666 16.8514 11.7698 16.8728C11.7772 16.9192 11.7856 16.9656 11.7958 17.012C11.7958 17.0166 11.7958 17.0208 11.7981 17.0259C11.8042 17.0514 11.8097 17.0774 11.8158 17.1025C11.8394 17.2037 11.8659 17.2983 11.8942 17.3893C11.9016 17.4139 11.9095 17.4357 11.9174 17.4626L11.948 17.5494C11.9587 17.5786 11.9694 17.6074 11.981 17.6366C12.0037 17.6942 12.0274 17.7517 12.0524 17.8083C12.0636 17.8329 12.0742 17.8547 12.0858 17.8807C12.0974 17.9067 12.1086 17.9271 12.1207 17.9513C12.1522 18.0162 12.1866 18.0803 12.2227 18.1425C12.2432 18.1791 12.265 18.2153 12.2868 18.2525L12.31 18.29H12.3564C12.3346 18.29 12.3137 18.29 12.2924 18.29H12.284L12.0937 18.2989H12.1026C12.149 18.2989 12.1912 18.2989 12.2343 18.2961H12.2863H12.2896H12.3559H12.3666L12.5035 18.2905L12.4413 18.1815C12.4316 18.1666 12.4228 18.1518 12.4144 18.135C12.2776 17.9078 12.1663 17.6661 12.0826 17.4143C12.0195 17.2288 11.9718 17.0383 11.9401 16.8449C11.9295 16.7762 11.9188 16.7131 11.9137 16.6444C11.8714 16.2878 11.8821 15.9269 11.9452 15.5734C12.0477 14.978 12.2939 14.4165 12.6627 13.938L12.7792 13.7853L12.8158 13.7389L12.801 13.7435L12.5731 13.8178L12.5355 13.8303H12.53C12.5258 13.8303 12.5211 13.8303 12.517 13.8345C12.1457 13.9582 11.7971 14.084 11.471 14.2118C11.1306 14.3457 10.8175 14.4828 10.5317 14.6229C9.72975 15.0081 9.15987 15.404 8.84895 15.7994C8.61134 16.1001 8.51621 16.4059 8.5705 16.7015C8.58261 16.7605 8.59811 16.8188 8.61691 16.876C8.62842 16.9152 8.64188 16.9537 8.65728 16.9916C8.66378 17.0073 8.67028 17.0231 8.67724 17.038C8.84338 17.4139 9.1673 17.7076 9.64576 17.916L9.65318 17.9193L9.66525 17.9244C9.76734 17.9072 9.86712 17.8928 9.96504 17.8821L9.97989 18.0297C10.0263 18.0246 10.0695 18.0246 10.1191 18.0195C10.2426 18.0098 10.3666 18.0078 10.4904 18.0135C10.7069 18.0558 10.9254 18.0868 11.1452 18.1063C11.238 18.1151 11.3308 18.1221 11.4287 18.1281C11.5266 18.1341 11.619 18.1378 11.7169 18.1411H11.722L11.7396 18.1374L11.7596 18.1346L11.7749 18.1323L11.7318 18.1346ZM12.2288 18.1462C12.2275 18.1446 12.2265 18.1429 12.2255 18.1411H12.0863C12.0056 18.1411 11.9211 18.1374 11.8357 18.1364L11.8436 18.1415C11.9295 18.1415 12.0148 18.1462 12.0965 18.1462H12.2288ZM11.7856 18.1392L11.8009 18.136H11.7856V18.1392ZM11.7392 18.2947H11.7415L11.8297 18.2979H11.9007C11.839 18.2979 11.7772 18.2942 11.7197 18.2914C11.7039 18.2914 11.6886 18.2914 11.6733 18.2914H11.6487L11.7392 18.2947ZM12.213 18.1453H12.0738C11.993 18.1453 11.9086 18.1415 11.8232 18.1406H11.7624V18.1453H11.7731H11.8311C11.9169 18.1453 12.0023 18.1499 12.084 18.1499H12.2163C12.215 18.1485 12.2139 18.1469 12.213 18.1453Z" fill="white"/>
<path d="M19.2371 17.1168L19.2635 16.9776C19.3217 16.6948 19.3482 16.4064 19.3424 16.1177C19.3377 15.9416 19.3201 15.7662 19.2895 15.5928C19.2793 15.5241 19.2635 15.461 19.2529 15.3979C19.0423 14.4595 18.4769 13.639 17.675 13.1082L17.4639 12.9657L17.7173 12.9606C18.4341 12.9484 19.151 12.9794 19.864 13.0534C20.7504 13.1587 21.415 13.3379 21.848 13.6019C22.1853 13.8024 22.3807 14.0553 22.428 14.3509C22.4436 14.4521 22.4489 14.5546 22.4438 14.6568C22.4174 15.1673 22.0902 15.6485 21.473 16.0866L21.4572 16.0968C21.1092 16.3451 20.6558 16.5771 20.1225 16.7985L20.0487 16.8249C19.9012 16.8829 19.7536 16.9409 19.5953 16.9938C19.5216 17.0203 19.4473 17.0467 19.3684 17.0727L19.2371 17.1168ZM17.9595 13.1133C18.3923 13.4414 18.7516 13.8566 19.0143 14.3319C19.1942 14.654 19.3261 15.0006 19.406 15.3608C19.4218 15.4295 19.432 15.5 19.4478 15.5664C19.4785 15.7479 19.4962 15.9313 19.5007 16.1153C19.5069 16.3714 19.4891 16.6274 19.4478 16.8801L19.5429 16.8486C19.6961 16.7957 19.8487 16.7377 19.9912 16.6797L20.065 16.6532C20.5295 16.4717 20.9719 16.2381 21.3839 15.9571L21.3997 15.9464C21.9644 15.5404 22.2652 15.1023 22.286 14.647C22.2912 14.557 22.2859 14.4667 22.2703 14.3779C22.229 14.1314 22.0591 13.9221 21.7649 13.7407C21.3533 13.4929 20.7096 13.3189 19.8446 13.2135C19.2186 13.1449 18.5892 13.1115 17.9595 13.1133Z" fill="white"/>
<path d="M12.2127 18.1452H12.0735C11.9927 18.1452 11.9083 18.1415 11.8229 18.1406L11.8308 18.1457C11.9166 18.1457 12.002 18.1504 12.0837 18.1504H12.2159C12.2147 18.1488 12.2136 18.1471 12.2127 18.1452ZM12.4944 18.2914L12.4322 18.1824C12.4225 18.1675 12.4136 18.1527 12.4053 18.136C12.2684 17.9087 12.1571 17.667 12.0735 17.4153C12.0104 17.2297 11.9627 17.0393 11.931 16.8458C11.9203 16.7772 11.9097 16.7141 11.9045 16.6454L11.8888 16.5187L11.8744 16.5284L11.7848 16.5864L11.7287 16.6236H11.7254C11.5901 16.7142 11.4637 16.8174 11.3477 16.9317C11.1514 17.128 11.0558 17.3243 11.0618 17.5113C11.0618 17.5206 11.0618 17.5294 11.0618 17.5382C11.0628 17.5829 11.07 17.6273 11.0831 17.67C11.0869 17.6844 11.0915 17.6988 11.0961 17.7127C11.1296 17.8082 11.1814 17.8962 11.2488 17.9717C11.2954 18.0247 11.3474 18.0727 11.4038 18.1151C11.4061 18.117 11.4086 18.1188 11.4112 18.1202C11.4112 18.1202 11.4154 18.1234 11.4173 18.1258C11.5101 18.1313 11.6061 18.1356 11.7055 18.1388H11.7096L11.699 18.1336L11.6892 18.1285L11.679 18.1234L11.6581 18.1077H11.6526C11.6368 18.0993 11.6215 18.09 11.6061 18.0807C11.4952 18.0187 11.398 17.9349 11.3203 17.8343C11.2768 17.7756 11.2453 17.7089 11.2275 17.638C11.2251 17.6246 11.2224 17.6092 11.2205 17.5916C11.2186 17.574 11.2145 17.5508 11.2112 17.5304C11.1954 17.3828 11.2799 17.219 11.4488 17.0449C11.5418 16.951 11.6429 16.8654 11.7509 16.7892C11.7519 16.7985 11.7527 16.8078 11.7533 16.8171C11.753 16.8187 11.753 16.8205 11.7533 16.8222C11.7533 16.8291 11.7556 16.8361 11.7565 16.8431C11.7562 16.8447 11.7562 16.8465 11.7565 16.8482C11.7565 16.8551 11.7593 16.8621 11.7602 16.8686C11.7676 16.915 11.776 16.9614 11.7862 17.0078C11.7862 17.0124 11.7862 17.0166 11.7885 17.0217C11.7946 17.0473 11.8001 17.0732 11.8062 17.0983C11.8298 17.1995 11.8563 17.2941 11.8846 17.3851C11.892 17.4097 11.8999 17.4315 11.9078 17.4584L11.9384 17.5452C11.9491 17.5744 11.9598 17.6032 11.9714 17.6324C11.9941 17.69 12.0178 17.7475 12.0428 17.8042C12.054 17.8288 12.0647 17.8506 12.0763 17.8766C12.0879 17.9025 12.099 17.923 12.1111 17.9471C12.1426 18.0121 12.177 18.0761 12.2132 18.1383C12.2336 18.1749 12.2554 18.2111 12.2772 18.2483L12.3004 18.2859H12.3468C12.325 18.2859 12.3041 18.2859 12.2828 18.2859H12.2744L12.0841 18.2947H12.093C12.1394 18.2947 12.1816 18.2947 12.2248 18.2919H12.2767H12.28H12.3463H12.357L12.4939 18.2863L12.4944 18.2914ZM12.2159 18.1522C12.2147 18.1506 12.2136 18.1489 12.2127 18.1471H12.0735C11.9927 18.1471 11.9083 18.1434 11.8229 18.1425L11.8308 18.1476C11.9166 18.1476 12.002 18.1522 12.0837 18.1522H12.2159ZM12.2127 18.1471H12.0735C11.9927 18.1471 11.9083 18.1434 11.8229 18.1425H11.7876L11.7723 18.1457H11.8303C11.9161 18.1457 12.0015 18.1504 12.0832 18.1504H12.2155C12.2144 18.1487 12.2135 18.147 12.2127 18.1452V18.1471Z" fill="white"/>
<path d="M19.2372 17.1169L19.2637 16.9776C19.3219 16.6948 19.3483 16.4064 19.3426 16.1177C19.3379 15.9417 19.3202 15.7663 19.2897 15.5928C19.2795 15.5242 19.2637 15.461 19.253 15.3979L19.2266 15.2712L19.3533 15.3028C19.5236 15.3428 19.6896 15.3993 19.8489 15.4717C20.1338 15.6035 20.3027 15.7724 20.3501 15.9673C20.3557 15.9938 20.3608 16.0203 20.3659 16.0518C20.403 16.3103 20.3079 16.5623 20.0758 16.8064L20.0651 16.8166L20.0494 16.8222C19.9018 16.8802 19.7542 16.9382 19.596 16.9911C19.5222 17.0171 19.4479 17.0435 19.369 17.07L19.2372 17.1169ZM19.4321 15.487L19.4479 15.5659C19.4786 15.7474 19.4963 15.9309 19.5008 16.1149C19.507 16.371 19.4893 16.627 19.4479 16.8797L19.5431 16.8482C19.6906 16.7953 19.8331 16.7423 19.9756 16.6843C20.1612 16.4788 20.2396 16.2732 20.2132 16.0727C20.2076 16.0513 20.2076 16.0305 20.2025 16.004C20.1654 15.8564 20.0234 15.7256 19.7848 15.6137C19.6708 15.5624 19.5529 15.52 19.4321 15.487Z" fill="white"/>
<path d="M22.5237 18.594C22.2861 18.4937 22.0011 18.3462 21.7004 18.193L21.5264 18.1035L21.6002 17.9642L21.7742 18.0543C22.0749 18.2069 22.3547 18.355 22.5868 18.4497L22.5237 18.594Z" fill="white"/>
<path d="M20.1413 16.7846L20.041 16.6635C20.4309 16.3451 20.8785 16.1051 21.3594 15.9567C21.3752 15.9521 21.3907 15.9466 21.4059 15.9404L21.4425 16.0936C21.4323 16.0987 21.4161 16.0987 21.4059 16.1042C20.9449 16.2485 20.5157 16.4794 20.1413 16.7846Z" fill="white"/>
<path d="M27.2135 16.3047C26.7494 16.2782 26.2218 16.2151 25.6357 16.1358L25.5893 16.1307C24.972 16.0569 24.3335 15.9775 23.7061 15.9353L23.7144 15.7784C24.3479 15.8156 24.986 15.8945 25.6083 15.9738L25.6547 15.9789C26.2399 16.0527 26.7624 16.1181 27.2265 16.1423L27.2135 16.3047Z" fill="white"/>
<path d="M19.6277 16.9692L19.501 16.8764C19.7701 16.5284 20.0022 16.2541 20.2235 16.0114C20.8988 15.2782 21.5638 14.8248 22.3179 14.5821L22.3337 14.5765C22.9773 14.3709 23.7319 14.2127 24.6392 14.1017C25.404 14.0089 26.1845 13.9491 26.9336 13.8962L27.0129 13.8911C27.7777 13.8358 28.4942 13.7829 29.1811 13.6934L29.2019 13.8516C28.5109 13.9412 27.7884 13.9941 27.0236 14.047L26.9442 14.0521C26.1952 14.105 25.4197 14.163 24.655 14.2577C23.7579 14.3686 23.0089 14.5217 22.3759 14.7273L22.3601 14.7324C21.6376 14.9645 20.9939 15.4076 20.3345 16.12C20.1233 16.352 19.8968 16.6263 19.6277 16.9692Z" fill="white"/>
<path d="M19.4857 16.1622L19.3525 16.0778C19.495 15.8564 19.6217 15.6661 19.7428 15.4977C20.3758 14.6159 21.0037 14.0205 21.7314 13.6196L21.742 13.6145C21.7516 13.6103 21.7605 13.6049 21.7685 13.5982C22.3226 13.2924 22.9923 13.0232 23.8048 12.7629H23.8099C24.501 12.5466 25.192 12.3726 26.0203 12.167L26.0667 12.1564C26.7475 11.9879 27.3907 11.8315 28.0028 11.6459L28.0492 11.7934C27.4376 11.9791 26.7888 12.1415 26.108 12.3104L26.0616 12.3211C25.2356 12.5299 24.5446 12.7016 23.854 12.9179H23.8489C23.047 13.1713 22.3876 13.44 21.839 13.7407C21.8284 13.7463 21.8233 13.7514 21.8177 13.7514L21.8075 13.7565C21.1058 14.1472 20.4886 14.7273 19.8714 15.5923C19.7549 15.7562 19.6282 15.946 19.4857 16.1622Z" fill="white"/>
<path d="M19.0158 14.4057L18.8789 14.3264C19.1121 13.9064 19.3935 13.5152 19.7175 13.1606C19.7439 13.1342 19.7704 13.1026 19.7968 13.0762C20.1398 12.723 20.5774 12.3801 21.1259 12.0316L21.1417 12.0213C21.622 11.7151 22.139 11.4408 22.6662 11.1614L22.7456 11.1192C23.173 10.8923 23.5809 10.6811 23.9521 10.4648L24.0315 10.6041C23.6514 10.8254 23.2454 11.0366 22.8179 11.2635L22.7391 11.3057C22.2058 11.5842 21.6893 11.8594 21.2076 12.1657L21.1918 12.1759C20.6568 12.5119 20.234 12.8441 19.9022 13.1871L19.8233 13.266C19.5171 13.6182 19.2466 14 19.0158 14.4057Z" fill="white"/>
<path d="M16.9855 12.6594L16.8379 12.6014C16.8959 12.459 16.9646 12.3165 17.0486 12.1374C17.191 11.8473 17.3493 11.5568 17.4973 11.2881L17.5498 11.1981C17.682 10.9558 17.824 10.7076 17.9456 10.4648L18.0876 10.5345C17.966 10.7772 17.8236 11.0305 17.6918 11.2733L17.6393 11.3628C17.4913 11.632 17.3331 11.9165 17.1906 12.207C17.1061 12.3801 17.0379 12.5225 16.9855 12.6594Z" fill="white"/>
<path d="M13.1335 13.3138C13.0281 13.1922 12.9121 13.0762 12.7854 12.9495C12.5692 12.7332 12.3422 12.5318 12.0893 12.3063L12.0197 12.2478C11.7979 12.0478 11.5867 11.8631 11.3867 11.6677L11.4986 11.5554C11.6939 11.7457 11.9046 11.9355 12.1264 12.1304L12.1951 12.1884C12.4481 12.4153 12.675 12.6214 12.8968 12.8381C13.023 12.9643 13.1391 13.0859 13.25 13.2094L13.1335 13.3138Z" fill="white"/>
<path d="M21.4524 16.0885C21.0329 16.3722 20.5837 16.6092 20.1126 16.7953L20.0389 16.8217C19.8913 16.8797 19.7432 16.9377 19.585 16.9906C19.5284 17.0106 19.4718 17.031 19.4128 17.051L19.3585 17.0695L19.2267 17.1118L19.2527 16.9749C19.255 16.9633 19.2578 16.9521 19.2592 16.9405C19.0968 16.9943 18.9204 17.0482 18.7306 17.1066C18.3933 17.2069 18.029 17.3016 17.628 17.3967C17.227 17.4918 16.8103 17.5823 16.3778 17.6603C16.1829 17.6974 16.0089 17.7284 15.8557 17.7531C15.7081 17.774 15.5285 17.806 15.3281 17.8376C14.8747 17.9114 14.4681 17.9694 14.0834 18.0116C13.6718 18.058 13.2815 18.0961 12.9121 18.1169C12.7436 18.1267 12.571 18.1318 12.4053 18.136H12.3877C12.3951 18.1494 12.403 18.1619 12.4109 18.1745L12.4838 18.2891H12.4944C12.5928 18.2863 12.6907 18.2821 12.7873 18.2775L12.9339 18.2696C13.3052 18.2483 13.6987 18.2116 14.1094 18.1643C14.4946 18.122 14.9006 18.064 15.3596 17.9898C15.4445 17.9791 15.5258 17.9666 15.6028 17.954L15.736 17.9318L15.7824 17.9234C15.8186 17.9178 15.8534 17.9114 15.8859 17.9058C16.039 17.8793 16.2181 17.8478 16.4135 17.8106C16.8511 17.7313 17.2734 17.6417 17.6744 17.5471C17.8531 17.5053 18.0239 17.4626 18.1881 17.4185H18.197C18.4025 17.3642 18.5979 17.3085 18.7873 17.2533C18.9928 17.1953 19.1831 17.1322 19.3622 17.0742C19.378 17.0686 19.3938 17.0635 19.4086 17.0575C19.4704 17.037 19.5298 17.0162 19.5887 16.9948C19.747 16.9419 19.8945 16.8839 20.0421 16.8259L20.1164 16.7994C20.6542 16.5781 21.1025 16.3409 21.4561 16.0927C21.981 15.9455 22.6418 15.8926 23.4809 15.9288L23.4869 15.9242C22.6469 15.888 21.9801 15.9409 21.4524 16.0885ZM11.7315 18.1346L11.6976 18.1401H11.6948C11.5979 18.1369 11.5036 18.1327 11.4113 18.1267C11.305 18.1211 11.2025 18.1132 11.1022 18.103C10.9006 18.085 10.7 18.0568 10.5012 18.0186C10.324 17.9857 10.149 17.9417 9.97731 17.8868L9.96107 17.8816H9.94529C9.84691 17.8928 9.74667 17.9062 9.64411 17.9239C9.10207 18.0144 8.50481 18.1958 7.79896 18.4933L7.62586 18.5671L7.61426 18.5727L7.62632 18.5773L7.79664 18.6418C8.66724 18.9666 9.9012 19.1268 11.4679 19.1059H11.4976C11.9533 19.0998 12.4448 19.0794 12.9506 19.0428L13.0402 19.0377C13.0717 19.0325 13.1089 19.0325 13.1455 19.027L13.1878 19.0219C13.3989 19.0061 13.6054 18.9903 13.805 18.969C13.9266 18.9588 14.0426 18.943 14.153 18.9323L14.38 18.9059C14.4802 18.8952 14.5804 18.8794 14.6756 18.8687L14.702 18.8636C15.0185 18.8265 15.3243 18.7843 15.6195 18.7369C15.7777 18.7161 15.91 18.6947 16.0205 18.6738C16.1309 18.6529 16.2687 18.6316 16.4005 18.6C16.7115 18.542 17.0177 18.4784 17.3236 18.4098C17.4289 18.3889 17.5347 18.3675 17.6452 18.3415L17.8614 18.2886C17.9617 18.2622 18.0619 18.2422 18.1677 18.2149C18.3575 18.1726 18.5529 18.1197 18.7529 18.0673L18.8745 18.0353C18.9209 18.025 18.9641 18.0093 19.0114 17.9986L19.0276 17.993C19.5052 17.858 19.9678 17.7178 20.3999 17.5726L20.4199 17.5661H20.4254C21.9044 17.0644 23.0182 16.5103 23.7421 15.9177L23.8846 15.8003L23.8948 15.791L23.6943 15.7808C22.7133 15.7172 21.9801 15.7701 21.3944 15.939L21.3786 15.9441L21.3628 15.9548C20.9509 16.236 20.5085 16.4695 20.044 16.6509L19.9702 16.6774C19.8277 16.7354 19.675 16.7934 19.5219 16.8463L19.4509 16.8714C19.4509 16.8714 19.4509 16.8714 19.4486 16.8714L19.3005 16.9238L19.2592 16.9387C19.0968 16.9925 18.9204 17.0463 18.7306 17.1048C18.3933 17.205 18.029 17.2997 17.628 17.3948C17.227 17.49 16.8103 17.5805 16.3778 17.6584C16.1829 17.6956 16.0089 17.7265 15.8557 17.7512C15.7081 17.7721 15.5285 17.8041 15.3281 17.8357C14.8747 17.9095 14.4681 17.9675 14.0834 18.0097C13.6718 18.0561 13.2815 18.0942 12.9121 18.1151C12.7436 18.1248 12.571 18.1299 12.4053 18.1341H12.3877H12.3413C12.2981 18.1341 12.2564 18.1378 12.2141 18.1387H12.0726C11.9918 18.1387 11.9074 18.135 11.822 18.1341H11.7612V18.1452H11.7719H11.8299C11.9157 18.1452 12.0011 18.1499 12.0828 18.1499H12.2151C12.2138 18.1483 12.2127 18.1466 12.2118 18.1448H12.2151C12.2355 18.1814 12.2573 18.2176 12.2791 18.2548L12.3023 18.2924H12.3487C12.3951 18.2924 12.4387 18.2924 12.4842 18.2924H12.4949C12.5933 18.2896 12.6912 18.2854 12.7877 18.2808L12.9344 18.2729C13.3056 18.2515 13.6992 18.2149 14.1099 18.1675C14.4951 18.1253 14.9011 18.0673 15.3601 17.993C15.445 17.9824 15.5262 17.9698 15.6033 17.9573L15.7364 17.935L15.7829 17.9267C15.819 17.9211 15.8539 17.9146 15.8863 17.909C16.0395 17.8826 16.2186 17.851 16.414 17.8139C16.8516 17.7345 17.2739 17.645 17.6749 17.5503C17.8535 17.5085 18.0243 17.4658 18.1886 17.4218H18.1974C18.403 17.3675 18.5984 17.3118 18.7877 17.2565C18.9933 17.1985 19.1836 17.1354 19.3627 17.0774C19.3785 17.0718 19.3943 17.0667 19.4091 17.0607C19.4708 17.0403 19.5302 17.0194 19.5892 16.9981C19.7474 16.9452 19.895 16.8871 20.0426 16.8291L20.1168 16.8027C20.6547 16.5813 21.103 16.3442 21.4566 16.0959C21.9815 15.9488 22.6423 15.8959 23.4813 15.9321H23.4929C22.7857 16.4648 21.7466 16.9605 20.3962 17.4194H20.3911L20.1823 17.489C19.8064 17.612 19.4124 17.7304 19.0035 17.8417L18.9877 17.8468C18.9413 17.8575 18.8982 17.8733 18.8485 17.884L18.7009 17.9206C18.5111 17.9735 18.3213 18.0209 18.1417 18.0631C18.0364 18.0896 17.9361 18.1095 17.8359 18.1369L17.6196 18.1898C17.5087 18.2107 17.4034 18.2362 17.298 18.2585C16.9918 18.3216 16.6859 18.3852 16.3801 18.4441C16.2321 18.4701 16.1017 18.4905 15.9843 18.5123C15.8668 18.5341 15.7415 18.5546 15.5889 18.5759C15.2984 18.6181 14.9856 18.6655 14.676 18.7026L14.6496 18.7077C14.5568 18.7235 14.4547 18.7341 14.3544 18.7448L14.1275 18.7708C14.0166 18.7866 13.9006 18.7973 13.7846 18.8079C13.5841 18.8237 13.3785 18.8451 13.1724 18.8608L13.1358 18.8659C13.0987 18.8711 13.0671 18.8711 13.0304 18.8766L12.9404 18.8817C12.4828 18.9147 12.041 18.9346 11.6238 18.9425L11.4633 18.9453H11.4266C10.0209 18.9588 8.88767 18.8335 8.05745 18.5638L8.04956 18.5615H8.04538C8.77351 18.2682 9.3717 18.1044 9.93879 18.0408H9.93369C9.83377 18.0099 9.7391 17.9748 9.64968 17.9355C9.75177 17.9183 9.85155 17.9039 9.94947 17.8933L9.96432 18.0408C10.0107 18.0357 10.0539 18.0357 10.1035 18.0306C10.227 18.021 10.351 18.019 10.4748 18.0246C10.6913 18.0669 10.9099 18.0979 11.1296 18.1174C11.2224 18.1262 11.3152 18.1332 11.4131 18.1392C11.5111 18.1452 11.6034 18.149 11.7013 18.1522H11.7064L11.7241 18.1485L11.744 18.1457L11.7593 18.1434" fill="white"/>
<path d="M11.7946 15.6187C11.4425 15.313 11.0566 15.0483 10.6446 14.8298L10.5179 14.7667C10.0747 14.5504 9.55776 14.3815 8.94008 14.2391C8.40222 14.1124 7.83745 14.0279 7.26246 13.9383L7.16965 13.9226C6.68933 13.8488 6.23594 13.7801 5.79785 13.6956L5.82987 13.5425C6.26749 13.6269 6.72135 13.6956 7.1961 13.7694L7.28891 13.7852C7.86947 13.8752 8.43378 13.9592 8.97721 14.0859C9.53201 14.2044 10.0717 14.385 10.5861 14.6242L10.7128 14.6873C11.1376 14.9105 11.5344 15.1833 11.8948 15.4999L11.7946 15.6187Z" fill="white"/>
<path d="M11.9421 17.4955C11.7309 17.3317 11.536 17.1841 11.3462 17.0523C10.4863 16.449 9.72193 16.0921 8.93533 15.9339L8.88243 15.9232C8.27914 15.8072 7.57932 15.765 6.73006 15.797H6.72496C5.96017 15.823 5.16336 15.9023 4.46168 15.971H4.4459C3.71824 16.0448 3.03234 16.1135 2.39424 16.1395L2.38867 15.9812C3.02167 15.9552 3.70756 15.8884 4.43059 15.8128H4.44637C5.14804 15.7441 5.94485 15.6647 6.71475 15.6387H6.72032C7.57978 15.6067 8.29816 15.6489 8.90935 15.7705L8.96225 15.7807C9.76927 15.9445 10.5554 16.3084 11.4306 16.9256C11.6209 17.0648 11.8214 17.204 12.0339 17.3739L11.9421 17.4955Z" fill="white"/>
<path d="M12.1314 18.1508H12.085C12.0033 18.1508 11.9179 18.147 11.8321 18.1461L11.8242 18.141C11.6428 18.0264 11.4775 17.9285 11.3207 17.8408C11.2506 17.8018 11.1815 17.7642 11.1151 17.7289C11.1086 17.7257 11.103 17.7224 11.0965 17.7196C10.2821 17.288 9.56185 17.0741 8.83233 17.0467C8.79892 17.0467 8.76458 17.0444 8.7307 17.0439H8.66434C8.04202 17.0439 7.3292 17.134 6.4832 17.3126L6.40384 17.3289L6.3398 17.3428C5.62652 17.4955 4.90768 17.695 4.26308 17.8742L4.1763 17.8978L4.0988 17.9183C3.34932 18.1294 2.64254 18.3248 1.9831 18.4617L1.94922 18.309C2.59892 18.1726 3.30338 17.979 4.04358 17.7688L4.05425 17.766L4.13314 17.7447L4.206 17.7247C4.85292 17.5451 5.57919 17.3461 6.29432 17.1855L6.3644 17.1697L6.43633 17.1544C7.27491 16.9748 7.98494 16.8843 8.60308 16.8801C8.63789 16.8801 8.67269 16.8801 8.70657 16.8801H8.71724H8.75901C9.50895 16.8964 10.244 17.0987 11.0585 17.5168L11.181 17.5809L11.2163 17.5999C11.4836 17.7428 11.7769 17.9201 12.1221 18.1452L12.1314 18.1508Z" fill="white"/>
<path d="M11.7468 18.1392L11.7269 18.142L11.7092 18.1457H11.7041C11.6063 18.1426 11.5103 18.1383 11.4159 18.1327C11.3189 18.1267 11.2243 18.1197 11.1324 18.1109L11.1008 18.1035C11.0869 18.0998 11.073 18.097 11.0591 18.0942C10.8877 18.0562 10.7136 18.0318 10.5384 18.0213L10.5017 18.019H10.4794C10.3557 18.0134 10.2317 18.0154 10.1082 18.025C10.0618 18.0301 10.0186 18.0301 9.96895 18.0353L9.9541 17.8877V17.877C10.0014 17.8711 10.0489 17.8677 10.0966 17.8668C10.4843 17.8401 10.8737 17.8781 11.2489 17.9791C11.3661 18.0101 11.4852 18.0463 11.6062 18.0877L11.6526 18.1039H11.6633L11.6791 18.1146L11.7222 18.1313L11.7329 18.135C11.7373 18.1368 11.742 18.1381 11.7468 18.1387V18.1392Z" fill="white"/>
<path d="M4.67761 20.1241L4.61914 19.9816C5.073 19.7913 5.54728 19.5593 6.04895 19.3115L6.08607 19.2957C6.64296 19.0214 7.2198 18.7388 7.80035 18.4938L7.85836 18.6362C7.28338 18.879 6.70839 19.1583 6.15429 19.4331L6.11763 19.4539C5.61133 19.7018 5.13612 19.9338 4.67761 20.1241Z" fill="white"/>
<path d="M16.1498 19.4382C16.076 19.4488 15.9966 19.4646 15.9126 19.4748C15.7539 19.5013 15.5748 19.5277 15.3794 19.5593L15.333 19.5648L15.0903 19.5964C15.0058 19.6071 14.9163 19.6229 14.8216 19.6331H14.804C14.662 19.6544 14.5088 19.6702 14.3557 19.6915H14.3399L14.145 19.7124C12.9635 19.8531 11.7757 19.9342 10.586 19.9551L10.4004 19.9602L10.5271 19.821C10.8095 19.5161 11.107 19.2255 11.4186 18.9504L11.4394 18.9295H11.4659C11.988 18.924 12.5528 18.8975 13.1366 18.8502L13.1788 18.8451C13.3899 18.8293 13.5965 18.8079 13.7909 18.7922C13.912 18.7815 14.0336 18.7657 14.1496 18.7555L14.3608 18.7291C14.461 18.7184 14.5557 18.7077 14.6453 18.6919L14.6773 18.6868C14.9938 18.6497 15.2996 18.6024 15.5896 18.5601C15.7428 18.5388 15.8747 18.5178 15.9855 18.497C16.1015 18.4757 16.2333 18.4548 16.3809 18.4283C16.6867 18.3703 16.993 18.3067 17.2988 18.2427C17.4042 18.2214 17.51 18.1963 17.6204 18.174L17.858 18.116C17.9532 18.0951 18.0478 18.0738 18.143 18.0473C18.3221 18.0052 18.5067 17.9578 18.6966 17.9049L18.8446 17.8682C19.3825 17.7206 19.8995 17.5675 20.3793 17.4041L20.4113 17.3986L20.4322 17.4041C20.8225 17.5568 21.2184 17.7573 21.5878 17.9471L21.7562 18.0316L21.5794 18.0928C20.4389 18.4656 19.2804 18.7808 18.1082 19.0372L17.7917 19.1059C17.6756 19.1323 17.5647 19.1523 17.4594 19.1746L17.3591 19.1954L17.1902 19.227C17.1322 19.2377 17.0691 19.2535 17.0111 19.2641L16.9109 19.285C16.7155 19.3221 16.5363 19.3537 16.3781 19.3853C16.3039 19.4104 16.2275 19.4281 16.1498 19.4382ZM14.3246 19.5435H14.3455C14.4935 19.5277 14.6411 19.5068 14.7835 19.4855H14.7993C14.8889 19.4748 14.9789 19.459 15.0629 19.4488C15.1469 19.4386 15.2318 19.4275 15.3056 19.4168L15.3479 19.4117C15.5432 19.3801 15.7191 19.3537 15.8755 19.3328C15.9538 19.3158 16.033 19.3034 16.1127 19.2957C16.1869 19.285 16.2658 19.2692 16.3447 19.2535C16.5029 19.227 16.6821 19.1903 16.8774 19.1532L16.9777 19.1323C17.0357 19.1217 17.0937 19.111 17.1568 19.0952C17.2097 19.0845 17.2677 19.0743 17.3206 19.0636L17.4209 19.0423C17.5262 19.0214 17.6371 18.9959 17.7531 18.9741L18.0641 18.9054C19.2405 18.6413 20.3431 18.3485 21.34 18.0237C21.0341 17.8654 20.7125 17.7127 20.396 17.586C19.9213 17.7443 19.4094 17.9025 18.8767 18.045L18.7551 18.0766C18.5546 18.1295 18.3597 18.1824 18.1699 18.2241C18.0747 18.2455 17.9796 18.2706 17.8849 18.2928L17.6422 18.3508C17.5313 18.3773 17.426 18.3972 17.3206 18.4195C17.0143 18.4882 16.7034 18.5513 16.3971 18.6093C16.2496 18.6358 16.1187 18.6622 16.0017 18.678C15.8848 18.6938 15.759 18.7202 15.6008 18.7411C15.305 18.7888 14.999 18.831 14.6828 18.8678L14.6513 18.8734C14.5562 18.8836 14.4615 18.8943 14.3612 18.91L14.1501 18.9365C14.0341 18.9472 13.9125 18.9629 13.7863 18.9736C13.5858 18.9945 13.3797 19.0103 13.169 19.0261L13.1268 19.0316C12.5463 19.0739 11.9926 19.0998 11.4756 19.1105C11.2274 19.3268 10.9796 19.5746 10.7475 19.8173C11.7866 19.7964 12.9157 19.712 14.1028 19.5746L14.3241 19.543L14.3246 19.5435Z" fill="white"/>
<path d="M9.85827 20.7412L9.75293 20.6247C9.94274 20.4563 10.1641 20.2187 10.3961 19.9708L10.5284 19.8284L10.6444 19.9393L10.5126 20.0785C10.275 20.3296 10.0536 20.5667 9.85827 20.7412Z" fill="white"/>
<path d="M19.4124 16.9128L19.3428 17.0549L20.38 17.5633L20.4496 17.4212L19.4124 16.9128Z" fill="white"/>
<path d="M12.2841 18.2947L12.2785 18.2998C12.2265 18.3504 11.8729 18.6952 11.6288 18.9393C11.6264 18.9422 11.6238 18.9447 11.6209 18.9472L11.5365 19.0321L11.4209 18.9523L11.4316 18.9421L11.4422 18.9314C11.4422 18.9314 11.9606 18.3745 12.0854 18.3035L12.2757 18.2947H12.2841Z" fill="white"/>
<path d="M12.3483 18.2932C12.3265 18.2932 12.3056 18.2932 12.2842 18.2932H12.2759L12.0856 18.302H11.8898C11.8281 18.302 11.7663 18.2983 11.7088 18.2955C11.693 18.2955 11.6777 18.2955 11.6624 18.2955H11.6452C11.6426 18.2951 11.6399 18.2951 11.6373 18.2955H11.6137H11.5886H11.5696H11.5348H11.5185H11.5041C11.4955 18.2963 11.4868 18.2963 11.4781 18.2955H11.4503H11.4359C11.0931 18.2772 10.7519 18.235 10.415 18.1693C10.3542 18.1568 10.2943 18.1433 10.2358 18.1299L10.1634 18.0988C10.0934 18.0797 10.0242 18.0603 9.96017 18.0398L9.94439 18.0361H9.93929C9.83937 18.0052 9.7447 17.9701 9.65527 17.9308C9.75737 17.9136 9.85714 17.8992 9.95506 17.8885L9.96991 18.0361C10.0163 18.031 10.0595 18.031 10.1091 18.0259C10.2326 18.0163 10.3566 18.0143 10.4804 18.0199C10.6969 18.0622 10.9155 18.0932 11.1352 18.1127C11.228 18.1215 11.3208 18.1285 11.4187 18.1345C11.5167 18.1405 11.609 18.1443 11.7069 18.1475H11.712L11.7297 18.1438L11.7496 18.141L11.7649 18.1387V18.1452H11.7756H11.8336C11.9195 18.1452 12.0049 18.1498 12.0865 18.1498H12.2188C12.2176 18.1482 12.2165 18.1465 12.2156 18.1447H12.2188C12.2392 18.1814 12.261 18.2176 12.2828 18.2547L12.3061 18.2923L12.3483 18.2932Z" fill="white"/>
<path d="M19.4664 16.7628C19.4608 16.7999 19.4553 16.8375 19.4483 16.8746C19.44 16.9211 19.4302 16.9702 19.42 17.018L19.4126 17.051L19.4103 17.0584V17.0617L19.368 17.0761C19.162 17.1447 18.9601 17.2055 18.7903 17.2566C18.6046 17.3113 18.4092 17.3652 18.1986 17.4195H18.1897C18.0282 17.4612 17.8584 17.503 17.6793 17.5457C17.2263 17.6548 16.8063 17.7374 16.4202 17.8102C16.2573 17.8413 16.0889 17.871 15.8917 17.9054L15.7849 17.9244L15.7385 17.9327L15.6053 17.955C15.5297 17.9666 15.4471 17.9787 15.3622 17.9903C14.9157 18.0627 14.5055 18.1198 14.1092 18.1643C13.7031 18.2107 13.3063 18.2455 12.929 18.2706L12.7898 18.2785C12.6933 18.2831 12.5954 18.2873 12.497 18.2901H12.4835C12.4371 18.2901 12.3935 18.2901 12.348 18.2901H12.3016L12.2784 18.2525C12.2566 18.2154 12.2348 18.1792 12.2144 18.1425C12.1782 18.0785 12.1438 18.0149 12.1123 17.9513C12.1002 17.9276 12.0886 17.9049 12.0775 17.8808C12.0663 17.8566 12.0552 17.8343 12.044 17.8084C12.0176 17.7508 11.9939 17.6937 11.9726 17.6367C11.961 17.6074 11.9503 17.5786 11.9396 17.5494C11.929 17.5202 11.9183 17.4868 11.9081 17.4566L11.8858 17.3907C11.8575 17.2979 11.831 17.2051 11.8074 17.1039C11.8013 17.0788 11.7958 17.0529 11.7897 17.0273C11.7897 17.0222 11.7897 17.018 11.7874 17.0134C11.7814 16.987 11.7758 16.9605 11.7707 16.9331C11.7656 16.9057 11.7619 16.889 11.7577 16.8663L11.747 16.7967L11.7257 16.6575C11.7257 16.6473 11.7234 16.6375 11.7224 16.6273C11.6823 16.2647 11.6942 15.8983 11.7577 15.5391C11.8506 15.0062 12.0541 14.4988 12.355 14.0494C12.4014 13.977 12.4534 13.9069 12.5063 13.8378C12.6903 13.6016 12.8991 13.3858 13.129 13.1941C13.5586 12.8437 14.0574 12.5881 14.5927 12.4442C14.6747 12.4219 14.7578 12.4025 14.8419 12.3861L15.0341 12.3537C15.7032 12.2559 16.3862 12.3346 17.0156 12.5819C17.645 12.8293 18.1988 13.2368 18.6223 13.764C18.6445 13.7914 18.6687 13.8192 18.6882 13.847C18.7076 13.8749 18.7285 13.8999 18.7476 13.9264C18.7666 13.9529 18.794 13.9895 18.8148 14.0192C18.8804 14.1157 18.9423 14.2151 19.0005 14.3171C19.1785 14.6386 19.3107 14.9833 19.3931 15.3414C19.4033 15.3738 19.413 15.4054 19.4205 15.437C19.4317 15.4795 19.4407 15.5225 19.4474 15.566C19.4476 15.5686 19.4476 15.5712 19.4474 15.5739C19.4553 15.6203 19.4622 15.6667 19.4683 15.7131C19.4734 15.7474 19.4775 15.7818 19.4808 15.8166C19.484 15.8514 19.4868 15.8857 19.4896 15.9201C19.4924 15.9544 19.4942 15.9873 19.4961 16.0221C19.498 16.057 19.4989 16.0839 19.5003 16.115V16.1229C19.5081 16.3367 19.4968 16.5509 19.4664 16.7628Z" fill="white"/>
</g>
<defs>
<clipPath id="clip0_1458_40464">
<rect width="27.6587" height="10.5344" fill="white" transform="translate(1.6709 10.256)"/>
</clipPath>
</defs>
</svg>
