<svg width="934" height="934" viewBox="0 0 934 934" fill="none" xmlns="http://www.w3.org/2000/svg">
<path d="M466.664 933.328C724.395 933.328 933.328 724.395 933.328 466.664C933.328 208.933 724.395 0 466.664 0C208.933 0 0 208.933 0 466.664C0 724.395 208.933 933.328 466.664 933.328Z" fill="url(#paint0_radial_3_8)"/>
<path d="M433.03 311.11H264.863C251.483 311.11 238.651 316.425 229.19 325.885C219.728 335.347 214.413 348.179 214.413 361.56V596.993C214.432 607.672 217.839 618.069 224.143 626.687C230.447 635.306 239.323 641.702 249.494 644.955C259.664 648.208 270.604 648.151 280.74 644.789C290.875 641.43 299.684 634.939 305.896 626.254L474.064 390.821C479.433 383.279 482.624 374.406 483.286 365.172C483.949 355.938 482.059 346.7 477.822 338.469C473.584 330.238 467.165 323.331 459.264 318.506C451.364 313.68 442.288 311.121 433.03 311.11ZM298.497 428.826C291.844 428.826 285.342 426.854 279.81 423.158C274.28 419.463 269.969 414.21 267.424 408.063C264.878 401.919 264.211 395.156 265.509 388.631C266.807 382.107 270.01 376.115 274.714 371.41C279.418 366.707 285.41 363.503 291.935 362.206C298.459 360.908 305.222 361.574 311.368 364.12C317.513 366.665 322.766 370.976 326.462 376.507C330.157 382.038 332.13 388.541 332.13 395.192C332.13 404.113 328.587 412.668 322.279 418.976C315.972 425.283 307.417 428.826 298.497 428.826Z" fill="#0D0A03"/>
<path d="M559.156 630.627C582.375 630.627 601.198 611.804 601.198 588.586C601.198 565.366 582.375 546.543 559.156 546.543C535.937 546.543 517.114 565.366 517.114 588.586C517.114 611.804 535.937 630.627 559.156 630.627Z" fill="#0D0A03"/>
<path d="M718.914 361.56V596.993C718.933 609.583 714.244 621.725 705.768 631.034C697.294 640.344 685.644 646.148 673.107 647.307C660.571 648.465 648.055 644.895 638.016 637.298C627.978 629.699 621.143 618.622 618.854 606.243C618.317 603.188 618.036 600.094 618.013 596.993V558.651C617.923 548.002 614.466 537.654 608.136 529.09C601.807 520.524 592.929 514.183 582.775 510.973C572.62 507.762 561.711 507.848 551.607 511.216C541.504 514.585 532.726 521.064 526.53 529.727L500.296 566.555L458.086 625.75C450.037 635.986 438.34 642.713 425.443 644.523C412.547 646.333 399.45 643.087 388.892 635.461C378.336 627.837 371.135 616.425 368.799 603.613C366.463 590.803 369.171 577.584 376.357 566.723L544.525 331.29C549.172 325.092 555.185 320.047 562.097 316.547C569.008 313.048 576.634 311.187 584.38 311.11H668.463C681.844 311.11 694.676 316.425 704.138 325.885C713.598 335.347 718.914 348.179 718.914 361.56Z" fill="#FFFDFA"/>
<defs>
<radialGradient id="paint0_radial_3_8" cx="0" cy="0" r="1" gradientUnits="userSpaceOnUse" gradientTransform="translate(466.664 466.664) scale(466.664)">
<stop offset="0.473958" stop-color="#FFC640"/>
<stop offset="1" stop-color="#F2AF13"/>
</radialGradient>
</defs>
</svg>
