<svg width="137" height="19" viewBox="0 0 137 19" fill="none" xmlns="http://www.w3.org/2000/svg">
<path d="M25.2313 7.95636V10.4584H28.7768V12.7843H25.2313V15.4978H29.7949V17.9117H22.2183V5.54241H29.7949V7.95636H25.2313Z" fill="#4F5664"/>
<path d="M39.8777 17.837L37.5499 13.1676H36.3381V17.837H33.325V5.46767H38.382C39.357 5.46767 40.1851 5.638 40.8664 5.97866C41.5595 6.31931 42.0763 6.78918 42.417 7.38826C42.7576 7.9756 42.928 8.63341 42.928 9.36171C42.928 10.184 42.693 10.9182 42.2232 11.5642C41.7651 12.2103 41.0837 12.6684 40.1792 12.9386L43.0337 17.837H39.8777ZM36.3381 11.0356H38.2058C38.7579 11.0356 39.169 10.9005 39.4392 10.6304C39.7211 10.3602 39.8621 9.97841 39.8621 9.48505C39.8621 9.01518 39.7211 8.64516 39.4392 8.37499C39.169 8.10481 38.7579 7.96973 38.2058 7.96973H36.3381V11.0356Z" fill="#4F5664"/>
<path d="M50.5401 18.035C49.6356 18.035 48.825 17.8882 48.1085 17.5945C47.3919 17.3009 46.8164 16.8663 46.3817 16.2907C45.9588 15.7151 45.7357 15.022 45.7122 14.2115H48.919C48.966 14.6696 49.1246 15.022 49.3948 15.2687C49.6649 15.5036 50.0173 15.6211 50.452 15.6211C50.8983 15.6211 51.2507 15.5213 51.5092 15.3216C51.7676 15.1101 51.8968 14.8223 51.8968 14.4582C51.8968 14.1528 51.7911 13.9002 51.5796 13.7005C51.38 13.5008 51.1274 13.3364 50.822 13.2071C50.5283 13.0779 50.1054 12.9311 49.5533 12.7666C48.7546 12.52 48.1026 12.2733 47.5975 12.0266C47.0924 11.7799 46.6578 11.4158 46.2936 10.9342C45.9295 10.4525 45.7474 9.82409 45.7474 9.04881C45.7474 7.89763 46.1644 6.999 46.9984 6.35293C47.8324 5.69512 48.919 5.36621 50.2581 5.36621C51.6208 5.36621 52.7191 5.69512 53.5531 6.35293C54.3871 6.999 54.8335 7.9035 54.8922 9.06643H51.6325C51.609 8.66704 51.4622 8.35575 51.192 8.13256C50.9218 7.89763 50.5753 7.78016 50.1524 7.78016C49.7883 7.78016 49.4946 7.88001 49.2714 8.0797C49.0482 8.26765 48.9366 8.5437 48.9366 8.90785C48.9366 9.30724 49.1246 9.61852 49.5005 9.84171C49.8764 10.0649 50.4637 10.3057 51.2625 10.5641C52.0613 10.8343 52.7073 11.0927 53.2007 11.3394C53.7058 11.5861 54.1404 11.9444 54.5046 12.4142C54.8687 12.8841 55.0508 13.4891 55.0508 14.2291C55.0508 14.9339 54.8687 15.5741 54.5046 16.1497C54.1522 16.7253 53.6353 17.1834 52.954 17.5241C52.2727 17.8647 51.4681 18.035 50.5401 18.035Z" fill="#4F5664"/>
<path d="M61.3277 5.54241V17.9117H58.3146V5.54241H61.3277Z" fill="#4F5664"/>
<path d="M69.3963 18.035C68.4918 18.035 67.6813 17.8882 66.9647 17.5945C66.2482 17.3009 65.6726 16.8663 65.238 16.2907C64.8151 15.7151 64.5919 15.022 64.5684 14.2115H67.7753C67.8222 14.6696 67.9808 15.022 68.251 15.2687C68.5212 15.5036 68.8736 15.6211 69.3082 15.6211C69.7546 15.6211 70.107 15.5213 70.3654 15.3216C70.6238 15.1101 70.753 14.8223 70.753 14.4582C70.753 14.1528 70.6473 13.9002 70.4359 13.7005C70.2362 13.5008 69.9836 13.3364 69.6782 13.2071C69.3846 13.0779 68.9617 12.9311 68.4096 12.7666C67.6108 12.52 66.9589 12.2733 66.4537 12.0266C65.9486 11.7799 65.514 11.4158 65.1499 10.9342C64.7857 10.4525 64.6036 9.82409 64.6036 9.04881C64.6036 7.89763 65.0206 6.999 65.8547 6.35293C66.6887 5.69512 67.7753 5.36621 69.1144 5.36621C70.477 5.36621 71.5753 5.69512 72.4093 6.35293C73.2434 6.999 73.6897 7.9035 73.7485 9.06643H70.4888C70.4653 8.66704 70.3184 8.35575 70.0482 8.13256C69.7781 7.89763 69.4315 7.78016 69.0087 7.78016C68.6445 7.78016 68.3508 7.88001 68.1277 8.0797C67.9045 8.26765 67.7929 8.5437 67.7929 8.90785C67.7929 9.30724 67.9808 9.61852 68.3567 9.84171C68.7326 10.0649 69.32 10.3057 70.1187 10.5641C70.9175 10.8343 71.5636 11.0927 72.0569 11.3394C72.562 11.5861 72.9967 11.9444 73.3608 12.4142C73.725 12.8841 73.907 13.4891 73.907 14.2291C73.907 14.9339 73.725 15.5741 73.3608 16.1497C73.0084 16.7253 72.4916 17.1834 71.8103 17.5241C71.1289 17.8647 70.3243 18.035 69.3963 18.035Z" fill="#4F5664"/>
<path d="M86.069 5.54241V7.95636H82.7917V17.9117H79.7787V7.95636H76.5013V5.54241H86.069Z" fill="#4F5664"/>
<path d="M92.0038 7.95636V10.4584H95.5494V12.7843H92.0038V15.4978H96.5674V17.9117H88.9908V5.54241H96.5674V7.95636H92.0038Z" fill="#4F5664"/>
<path d="M110.999 17.9117H107.986L102.946 10.2822V17.9117H99.9331V5.54241H102.946L107.986 13.2071V5.54241H110.999V17.9117Z" fill="#4F5664"/>
<path d="M114.081 11.7094C114.081 10.4878 114.346 9.40121 114.874 8.44972C115.403 7.48649 116.137 6.74058 117.077 6.21197C118.028 5.67163 119.103 5.40145 120.301 5.40145C121.769 5.40145 123.026 5.78909 124.072 6.56438C125.117 7.33966 125.816 8.39686 126.169 9.73599H122.856C122.609 9.21914 122.257 8.82562 121.799 8.55545C121.352 8.28527 120.841 8.15018 120.266 8.15018C119.338 8.15018 118.586 8.47322 118.011 9.11929C117.435 9.76536 117.147 10.6287 117.147 11.7094C117.147 12.7901 117.435 13.6535 118.011 14.2996C118.586 14.9457 119.338 15.2687 120.266 15.2687C120.841 15.2687 121.352 15.1336 121.799 14.8634C122.257 14.5933 122.609 14.1997 122.856 13.6829H126.169C125.816 15.022 125.117 16.0792 124.072 16.8545C123.026 17.618 121.769 17.9998 120.301 17.9998C119.103 17.9998 118.028 17.7355 117.077 17.2069C116.137 16.6666 115.403 15.9206 114.874 14.9692C114.346 14.0177 114.081 12.9311 114.081 11.7094Z" fill="#4F5664"/>
<path d="M132.436 7.95636V10.4584H135.982V12.7843H132.436V15.4978H137V17.9117H129.423V5.54241H137V7.95636H132.436Z" fill="#4F5664"/>
<rect width="18.0357" height="18.0349" rx="1.06943" fill="#4F5664"/>
<path d="M13.7757 9.57442C13.7757 10.2977 13.6097 10.9618 13.2777 11.5665C12.9457 12.1594 12.4358 12.6396 11.7481 13.0072C11.0603 13.3748 10.2066 13.5586 9.18684 13.5586H7.30148V18.0407H4.26001V5.55469H9.18684C10.1829 5.55469 11.0248 5.72662 11.7125 6.07049C12.4003 6.41436 12.9161 6.88867 13.2599 7.49341C13.6038 8.09814 13.7757 8.79181 13.7757 9.57442ZM8.95562 11.1396C9.53664 11.1396 9.96944 11.0033 10.254 10.7305C10.5386 10.4578 10.6809 10.0724 10.6809 9.57442C10.6809 9.0764 10.5386 8.69102 10.254 8.4183C9.96944 8.14557 9.53664 8.00921 8.95562 8.00921H7.30148V11.1396H8.95562Z" fill="#262B35"/>
<path d="M13.8386 2.3916H4.26025V4.40104H13.8386V2.3916Z" fill="#262B35"/>
</svg>
