<svg width="331" height="56" viewBox="0 0 331 56" fill="none" xmlns="http://www.w3.org/2000/svg">
<path d="M48 0H8C3.58172 0 0 3.58172 0 8V48C0 52.4183 3.58172 56 8 56H48C52.4183 56 56 52.4183 56 48V8C56 3.58172 52.4183 0 48 0Z" fill="url(#paint0_radial_89_2133)"/>
<path d="M25.3333 14.6665H12C10.9391 14.6665 9.92172 15.0879 9.17157 15.8381C8.42143 16.5882 8 17.6056 8 18.6665V37.3332C8.00152 38.1798 8.27163 39.0041 8.77145 39.6874C9.27127 40.3708 9.97502 40.8779 10.7814 41.1358C11.5878 41.3938 12.4552 41.3892 13.2588 41.1227C14.0624 40.8563 14.7608 40.3418 15.2533 39.6532V39.6532L28.5867 20.9865C29.0124 20.3886 29.2654 19.685 29.3179 18.9529C29.3705 18.2208 29.2206 17.4884 28.8847 16.8358C28.5487 16.1831 28.0397 15.6356 27.4133 15.2529C26.7869 14.8703 26.0673 14.6674 25.3333 14.6665ZM14.6667 23.9998C14.1393 23.9998 13.6237 23.8434 13.1851 23.5504C12.7466 23.2574 12.4048 22.8409 12.203 22.3537C12.0012 21.8664 11.9483 21.3302 12.0512 20.8129C12.1541 20.2956 12.4081 19.8205 12.781 19.4476C13.154 19.0746 13.6291 18.8206 14.1464 18.7177C14.6637 18.6148 15.1999 18.6677 15.6872 18.8695C16.1744 19.0713 16.5909 19.4131 16.8839 19.8517C17.1769 20.2902 17.3333 20.8058 17.3333 21.3332C17.3333 22.0404 17.0524 22.7187 16.5523 23.2188C16.0522 23.7189 15.3739 23.9998 14.6667 23.9998Z" fill="#0D0A03"/>
<path d="M35.3333 40.0002C37.1743 40.0002 38.6667 38.5078 38.6667 36.6668C38.6667 34.8259 37.1743 33.3335 35.3333 33.3335C33.4924 33.3335 32 34.8259 32 36.6668C32 38.5078 33.4924 40.0002 35.3333 40.0002Z" fill="#0D0A03"/>
<path d="M47.9999 18.6665V37.3332C48.0015 38.3314 47.6297 39.294 46.9577 40.0321C46.2858 40.7702 45.3621 41.2304 44.3681 41.3223C43.3742 41.4142 42.3818 41.1311 41.5859 40.5287C40.79 39.9263 40.2481 39.048 40.0666 38.0665C40.024 37.8243 40.0017 37.579 39.9999 37.3332V34.2932C39.9928 33.4488 39.7187 32.6284 39.2168 31.9493C38.715 31.2703 38.0111 30.7675 37.206 30.5129C36.4009 30.2584 35.5359 30.2651 34.7348 30.5322C33.9338 30.7993 33.2378 31.313 32.7466 31.9998L30.6666 34.9198L27.3199 39.6132C26.6817 40.4248 25.7543 40.9581 24.7318 41.1016C23.7093 41.2451 22.6709 40.9877 21.8338 40.3832C20.9968 39.7786 20.4259 38.8738 20.2407 37.8581C20.0555 36.8423 20.2702 35.7943 20.8399 34.9332V34.9332L34.1733 16.2665C34.5418 15.7751 35.0185 15.3751 35.5665 15.0977C36.1145 14.8202 36.7191 14.6727 37.3333 14.6665H43.9999C45.0608 14.6665 46.0782 15.0879 46.8284 15.8381C47.5785 16.5882 47.9999 17.6056 47.9999 18.6665V18.6665Z" fill="#FFFDFA"/>
<path d="M70.3121 15.3636H77.5181L85.1289 33.9318H85.4528L93.0636 15.3636H100.27V43H94.6019V25.0121H94.3725L87.2205 42.8651H83.3612L76.2092 24.9446H75.9798V43H70.3121V15.3636ZM110.886 43.3913C109.564 43.3913 108.385 43.1619 107.351 42.7031C106.316 42.2353 105.497 41.5471 104.895 40.6385C104.301 39.7209 104.004 38.5784 104.004 37.2109C104.004 36.0594 104.215 35.0923 104.638 34.3097C105.061 33.527 105.637 32.8973 106.366 32.4205C107.094 31.9437 107.922 31.5838 108.849 31.3409C109.784 31.098 110.765 30.9271 111.79 30.8281C112.996 30.7022 113.967 30.5852 114.705 30.4773C115.443 30.3603 115.978 30.1894 116.311 29.9645C116.644 29.7396 116.81 29.4067 116.81 28.9659V28.8849C116.81 28.0303 116.54 27.3691 116.001 26.9013C115.47 26.4335 114.714 26.1996 113.733 26.1996C112.699 26.1996 111.876 26.429 111.264 26.8878C110.652 27.3376 110.247 27.9044 110.05 28.5881L104.733 28.1562C105.003 26.8968 105.533 25.8082 106.325 24.8906C107.117 23.964 108.138 23.2533 109.388 22.7585C110.648 22.2547 112.105 22.0028 113.76 22.0028C114.912 22.0028 116.014 22.1378 117.067 22.4077C118.128 22.6776 119.068 23.0959 119.887 23.6626C120.715 24.2294 121.367 24.9581 121.844 25.8487C122.32 26.7303 122.559 27.7874 122.559 29.0199V43H117.107V40.1257H116.945C116.612 40.7734 116.167 41.3447 115.609 41.8395C115.051 42.3253 114.381 42.7076 113.599 42.9865C112.816 43.2564 111.912 43.3913 110.886 43.3913ZM112.532 39.424C113.378 39.424 114.125 39.2576 114.773 38.9247C115.42 38.5829 115.929 38.1241 116.297 37.5483C116.666 36.9725 116.851 36.3203 116.851 35.5916V33.392C116.671 33.509 116.423 33.617 116.108 33.7159C115.803 33.8059 115.456 33.8913 115.069 33.9723C114.683 34.0443 114.296 34.1117 113.909 34.1747C113.522 34.2287 113.171 34.2782 112.856 34.3232C112.182 34.4221 111.592 34.5795 111.089 34.7955C110.585 35.0114 110.193 35.3037 109.915 35.6726C109.636 36.0324 109.496 36.4822 109.496 37.022C109.496 37.8047 109.78 38.4029 110.346 38.8168C110.922 39.2216 111.651 39.424 112.532 39.424ZM132.767 31.017V43H127.019V22.2727H132.497V25.9297H132.74C133.199 24.7242 133.968 23.7706 135.048 23.0689C136.127 22.3582 137.436 22.0028 138.975 22.0028C140.414 22.0028 141.669 22.3177 142.74 22.9474C143.81 23.5772 144.642 24.4768 145.236 25.6463C145.83 26.8068 146.127 28.1922 146.127 29.8026V43H140.378V30.8281C140.387 29.5597 140.063 28.5701 139.406 27.8594C138.75 27.1397 137.846 26.7798 136.694 26.7798C135.92 26.7798 135.237 26.9463 134.643 27.2791C134.058 27.612 133.599 28.0978 133.267 28.7365C132.943 29.3662 132.776 30.1264 132.767 31.017ZM161.682 22.2727V26.5909H149.2V22.2727H161.682ZM152.034 17.3068H157.782V36.6307C157.782 37.1615 157.863 37.5753 158.025 37.8722C158.187 38.16 158.412 38.3625 158.7 38.4794C158.997 38.5964 159.339 38.6548 159.725 38.6548C159.995 38.6548 160.265 38.6323 160.535 38.5874C160.805 38.5334 161.012 38.4929 161.156 38.4659L162.06 42.7436C161.772 42.8336 161.367 42.937 160.846 43.054C160.324 43.1799 159.69 43.2564 158.943 43.2834C157.557 43.3374 156.343 43.1529 155.299 42.7301C154.265 42.3073 153.46 41.6506 152.884 40.7599C152.308 39.8693 152.025 38.7448 152.034 37.3864V17.3068ZM171.621 15.3636V43H165.872V15.3636H171.621ZM185.672 43.4048C183.54 43.4048 181.704 42.973 180.166 42.1094C178.637 41.2367 177.458 40.0043 176.631 38.4119C175.803 36.8106 175.389 34.9169 175.389 32.7308C175.389 30.5987 175.803 28.7275 176.631 27.1172C177.458 25.5069 178.623 24.2519 180.126 23.3523C181.637 22.4527 183.409 22.0028 185.442 22.0028C186.81 22.0028 188.083 22.2232 189.261 22.6641C190.449 23.0959 191.483 23.7481 192.365 24.6207C193.256 25.4934 193.948 26.5909 194.443 27.9134C194.938 29.2268 195.185 30.7652 195.185 32.5284V34.1072H177.683V30.5447H189.774C189.774 29.7171 189.594 28.9839 189.234 28.3452C188.874 27.7064 188.375 27.2071 187.736 26.8473C187.107 26.4785 186.373 26.294 185.537 26.294C184.664 26.294 183.89 26.4964 183.216 26.9013C182.55 27.2971 182.028 27.8324 181.65 28.5071C181.273 29.1728 181.079 29.915 181.07 30.7337V34.1207C181.07 35.1463 181.259 36.0324 181.637 36.7791C182.024 37.5258 182.568 38.1016 183.27 38.5064C183.971 38.9112 184.804 39.1136 185.766 39.1136C186.405 39.1136 186.99 39.0237 187.52 38.8438C188.051 38.6638 188.506 38.3939 188.883 38.0341C189.261 37.6742 189.549 37.2334 189.747 36.7116L195.064 37.0625C194.794 38.34 194.241 39.4555 193.404 40.4091C192.576 41.3537 191.506 42.0914 190.192 42.6222C188.888 43.1439 187.381 43.4048 185.672 43.4048ZM203.336 43L195.428 15.3636H201.811L206.385 34.5661H206.615L211.662 15.3636H217.127L222.16 34.6065H222.403L226.978 15.3636H233.361L225.453 43H219.758L214.496 24.9311H214.28L209.03 43H203.336ZM240.064 43.3913C238.741 43.3913 237.563 43.1619 236.528 42.7031C235.494 42.2353 234.675 41.5471 234.072 40.6385C233.479 39.7209 233.182 38.5784 233.182 37.2109C233.182 36.0594 233.393 35.0923 233.816 34.3097C234.239 33.527 234.815 32.8973 235.543 32.4205C236.272 31.9437 237.1 31.5838 238.026 31.3409C238.962 31.098 239.942 30.9271 240.968 30.8281C242.174 30.7022 243.145 30.5852 243.883 30.4773C244.621 30.3603 245.156 30.1894 245.489 29.9645C245.821 29.7396 245.988 29.4067 245.988 28.9659V28.8849C245.988 28.0303 245.718 27.3691 245.178 26.9013C244.647 26.4335 243.892 26.1996 242.911 26.1996C241.877 26.1996 241.054 26.429 240.442 26.8878C239.83 27.3376 239.425 27.9044 239.227 28.5881L233.911 28.1562C234.18 26.8968 234.711 25.8082 235.503 24.8906C236.295 23.964 237.316 23.2533 238.566 22.7585C239.826 22.2547 241.283 22.0028 242.938 22.0028C244.09 22.0028 245.192 22.1378 246.244 22.4077C247.306 22.6776 248.246 23.0959 249.065 23.6626C249.892 24.2294 250.545 24.9581 251.021 25.8487C251.498 26.7303 251.737 27.7874 251.737 29.0199V43H246.285V40.1257H246.123C245.79 40.7734 245.345 41.3447 244.787 41.8395C244.229 42.3253 243.559 42.7076 242.776 42.9865C241.994 43.2564 241.089 43.3913 240.064 43.3913ZM241.71 39.424C242.556 39.424 243.303 39.2576 243.95 38.9247C244.598 38.5829 245.106 38.1241 245.475 37.5483C245.844 36.9725 246.028 36.3203 246.028 35.5916V33.392C245.848 33.509 245.601 33.617 245.286 33.7159C244.98 33.8059 244.634 33.8913 244.247 33.9723C243.86 34.0443 243.473 34.1117 243.087 34.1747C242.7 34.2287 242.349 34.2782 242.034 34.3232C241.359 34.4221 240.77 34.5795 240.266 34.7955C239.763 35.0114 239.371 35.3037 239.092 35.6726C238.813 36.0324 238.674 36.4822 238.674 37.022C238.674 37.8047 238.957 38.4029 239.524 38.8168C240.1 39.2216 240.829 39.424 241.71 39.424ZM261.945 15.3636V43H256.196V15.3636H261.945ZM272.298 15.3636V43H266.55V15.3636H272.298ZM286.349 43.4048C284.217 43.4048 282.382 42.973 280.844 42.1094C279.314 41.2367 278.136 40.0043 277.308 38.4119C276.481 36.8106 276.067 34.9169 276.067 32.7308C276.067 30.5987 276.481 28.7275 277.308 27.1172C278.136 25.5069 279.301 24.2519 280.803 23.3523C282.315 22.4527 284.087 22.0028 286.12 22.0028C287.487 22.0028 288.76 22.2232 289.939 22.6641C291.126 23.0959 292.161 23.7481 293.043 24.6207C293.933 25.4934 294.626 26.5909 295.121 27.9134C295.616 29.2268 295.863 30.7652 295.863 32.5284V34.1072H278.361V30.5447H290.452C290.452 29.7171 290.272 28.9839 289.912 28.3452C289.552 27.7064 289.053 27.2071 288.414 26.8473C287.784 26.4785 287.051 26.294 286.214 26.294C285.342 26.294 284.568 26.4964 283.893 26.9013C283.228 27.2971 282.706 27.8324 282.328 28.5071C281.95 29.1728 281.757 29.915 281.748 30.7337V34.1207C281.748 35.1463 281.937 36.0324 282.315 36.7791C282.701 37.5258 283.246 38.1016 283.947 38.5064C284.649 38.9112 285.481 39.1136 286.444 39.1136C287.083 39.1136 287.667 39.0237 288.198 38.8438C288.729 38.6638 289.183 38.3939 289.561 38.0341C289.939 37.6742 290.227 37.2334 290.425 36.7116L295.741 37.0625C295.472 38.34 294.918 39.4555 294.082 40.4091C293.254 41.3537 292.183 42.0914 290.87 42.6222C289.566 43.1439 288.059 43.4048 286.349 43.4048ZM310.639 22.2727V26.5909H298.157V22.2727H310.639ZM300.991 17.3068H306.739V36.6307C306.739 37.1615 306.82 37.5753 306.982 37.8722C307.144 38.16 307.369 38.3625 307.657 38.4794C307.954 38.5964 308.296 38.6548 308.683 38.6548C308.952 38.6548 309.222 38.6323 309.492 38.5874C309.762 38.5334 309.969 38.4929 310.113 38.4659L311.017 42.7436C310.729 42.8336 310.324 42.937 309.803 43.054C309.281 43.1799 308.647 43.2564 307.9 43.2834C306.514 43.3374 305.3 43.1529 304.256 42.7301C303.222 42.3073 302.417 41.6506 301.841 40.7599C301.265 39.8693 300.982 38.7448 300.991 37.3864V17.3068Z" fill="white"/>
<defs>
<radialGradient id="paint0_radial_89_2133" cx="0" cy="0" r="1" gradientUnits="userSpaceOnUse" gradientTransform="translate(28 28) scale(28)">
<stop offset="0.473958" stop-color="#FFC640"/>
<stop offset="1" stop-color="#F2AF13"/>
</radialGradient>
</defs>
</svg>
