<svg style="position: absolute; width: 0; height: 0; overflow: hidden;" version="1.1"
     xmlns="http://www.w3.org/2000/svg">
    <defs>

        <symbol id="icon-staking" viewBox="0 0 15 13">
            <path fill-rule="evenodd" clip-rule="evenodd"
                  d="M12.534 9.28c-1.013.618-2.367.96-3.813.96-1.082 0-2.111-.192-2.985-.547.106.004.212.006.32.006 1.584 0 3.08-.38 4.21-1.072 1.19-.727 1.845-1.714 1.845-2.779V4.792c.146.072.288.15.423.232.954.583 1.48 1.339 1.48 2.128 0 .788-.526 1.544-1.48 2.127zM2.243 5.977C1.289 5.395.763 4.64.763 3.851c0-.79.526-1.545 1.48-2.128 1.012-.619 2.366-.96 3.812-.96 1.447 0 2.8.341 3.813.96.954.583 1.48 1.339 1.48 2.128 0 .788-.526 1.544-1.48 2.127-1.012.62-2.366.96-3.813.96-1.446 0-2.8-.34-3.812-.96zm12.533 1.174c0-1.065-.655-2.052-1.844-2.779a6.373 6.373 0 0 0-.821-.42v-.102c0-1.065-.655-2.052-1.844-2.779C9.136.381 7.64 0 6.055 0c-1.584 0-3.08.38-4.21 1.072C.654 1.8 0 2.786 0 3.851v1.997C0 6.913.655 7.9 1.844 8.627c.256.156.531.296.821.42v.102c0 1.065.655 2.052 1.845 2.779C5.64 12.619 7.136 13 8.72 13c1.585 0 3.081-.38 4.212-1.072 1.19-.727 1.844-1.714 1.844-2.779V7.197v-.045z"/>
        </symbol>
        <symbol id="icon-wallet" viewBox="0 0 16 14">
            <path d="M13.713 0H4.567A2.303 2.303 0 0 0 2.28 2.287v2.94h1.307v-2.94a.98.98 0 0 1 .98-.98h9.146a.98.98 0 0 1 .98.98v9.146a.98.98 0 0 1-.98.98H4.567a.98.98 0 0 1-.98-.98V8.167H2.28v3.266a2.303 2.303 0 0 0 2.287 2.287h9.146A2.303 2.303 0 0 0 16 11.433V2.287A2.303 2.303 0 0 0 13.713 0z"/>
            <path d="M10.447 9.147a2.287 2.287 0 1 1 0-4.574 2.287 2.287 0 0 1 0 4.574zm0-3.267a.98.98 0 1 0 0 1.96.98.98 0 0 0 0-1.96zM4.41 8.82H2.123a2.123 2.123 0 1 1 0-4.247H4.41a2.123 2.123 0 0 1 0 4.247zM2.123 5.88a.817.817 0 1 0 0 1.633H4.41a.817.817 0 1 0 0-1.633H2.123z"/>
        </symbol>

        <symbol id="icon-explorer" viewBox="0 0 16 16">
            <path d="M8 0C3.589 0 0 3.589 0 8s3.589 8 8 8 8-3.589 8-8-3.589-8-8-8zm0 14.636A6.644 6.644 0 0 1 1.364 8 6.644 6.644 0 0 1 8 1.364 6.644 6.644 0 0 1 14.636 8 6.644 6.644 0 0 1 8 14.636z"/>
            <path d="M10.446 3.609c-.59-.33-3.184 3.205-3.513 3.795-.33.59-1.968 4.658-1.378 4.987.59.33 3.184-3.205 3.513-3.795.329-.59 1.968-4.658 1.378-4.987zm-1.894 4.7a.633.633 0 1 1-1.104-.618.633.633 0 0 1 1.104.617z"/>
        </symbol>
        <symbol id="icon-exclamation" fill="none" viewBox="0 0 29 26">
            <path d="M9.617 3.052c2.194-3.8 6.765-4.177 9.042-.242l8.778 15.21c2.203 3.804.228 7.954-4.308 7.954H5.564c-4.383 0-6.998-3.773-4.73-7.708L9.617 3.052zm4.554 14.293c.86 0 1.557.697 1.557 1.553 0 .86-.697 1.557-1.557 1.557a1.556 1.556 0 0 1 0-3.11zm-.957-8.068c0-1.26 1.913-1.26 1.913 0v5.36c0 1.26-1.913 1.26-1.913 0v-5.36zm-1.943-5.269L2.488 19.214c-1.535 2.667.167 4.847 3.076 4.847h17.565c3.159 0 4.067-2.645 2.659-5.084l-8.783-15.21c-1.535-2.667-4.277-2.281-5.734.241z"
                  fill="#FF434C"/>
        </symbol>
        <symbol id="icon-lock" fill="none" viewBox="0 0 14 22">
            <path d="M7 0a5.182 5.182 0 0 0-5.182 5.075c-.007.98-.003 1.976-.003 2.962H0v13.222h14V8.037h-1.815c-.004-.986.008-1.982-.003-2.962A5.182 5.182 0 0 0 7 0zm0 1.814a3.367 3.367 0 0 1 3.37 3.371v2.852H3.63V5.185A3.367 3.367 0 0 1 7 1.814zm-.881 9.885l1.815.016-.016 1.708 1.629-.514.544 1.731-1.628.513.991 1.39-1.477 1.054-.991-1.39-1.016 1.372-1.459-1.08 1.016-1.372-1.618-.542.576-1.72 1.618.54.016-1.706z"
                  fill="#8D9CB5"/>
        </symbol>
        <symbol id="icon-help" viewBox="0 0 16 16">
            <path d="M8 0a8 8 0 1 0 0 16A8 8 0 0 0 8 0zm0 14.857A6.857 6.857 0 1 1 8 1.143a6.857 6.857 0 0 1 0 13.714z"/>
            <path d="M10.023 4.154a3.097 3.097 0 0 0-3.291-.428 2.857 2.857 0 0 0-1.589 2.56.571.571 0 1 0 1.143 0 1.714 1.714 0 0 1 .954-1.537 1.937 1.937 0 0 1 2.029.268 1.937 1.937 0 0 1 .268 2.029A1.714 1.714 0 0 1 8 8a.571.571 0 0 0-.571.571v1.143a.572.572 0 0 0 1.143 0V9.08a2.857 2.857 0 0 0 1.988-1.526 3.097 3.097 0 0 0-.428-3.291.57.57 0 0 0-.109-.109zM8 10.857a.571.571 0 0 0-.572.572V12a.572.572 0 0 0 1.143 0v-.571A.571.571 0 0 0 8 10.857z"/>
        </symbol>

        <symbol id="icon-info" fill="none" viewBox="0 0 15 15">
            <path d="M9.472 3.302a.803.803 0 1 1-1.55-.415.803.803 0 0 1 1.55.415zM7.544 10.5l1.263-4.715c.234-.873-1.106-1.233-1.972-.814A3.366 3.366 0 0 0 5.5 6.135c.544-.24 1.76-.78 1.318.87L5.554 11.72c-.233.872 1.106 1.233 1.973.814a3.365 3.365 0 0 0 1.335-1.165c-.545.239-1.76.78-1.318-.87zM15 7.5a7.5 7.5 0 1 1-15 0 7.5 7.5 0 0 1 15 0zm-.833 0A6.666 6.666 0 1 0 7.5 14.167 6.674 6.674 0 0 0 14.167 7.5z"
                  fill="#8D9CB5"/>
        </symbol>
        <symbol id="icon-left-arrow" viewBox="0 0 20 12">
            <path d="M19.204 4.747H2.71l3.368-3.391A.793.793 0 0 0 6.073.23.793.793 0 0 0 4.95.236L.232 4.981c-.31.31-.31.81 0 1.125l4.717 4.75a.802.802 0 0 0 1.129.004.793.793 0 0 0 .005-1.124L2.71 6.34h16.494a.796.796 0 1 0 0-1.593z"/>
        </symbol>
        <symbol id="icon-profile" fill="none" viewBox="0 0 21 21">
            <path d="M14.946 19.63H13.12v-5.478a1.132 1.132 0 0 0-1.132-1.132H9.01a1.132 1.132 0 0 0-1.132 1.132v5.478H6.053v-5.478a2.963 2.963 0 0 1 2.958-2.958h2.977a2.963 2.963 0 0 1 2.958 2.958v5.478z"
                  fill="#5F646C"/>
            <path d="M10.5 12.783a3.652 3.652 0 1 1 0-7.305 3.652 3.652 0 0 1 0 7.305zm0-5.479a1.826 1.826 0 1 0 0 3.653 1.826 1.826 0 0 0 0-3.653z"
                  fill="#5F646C"/>
            <path d="M10.5 21a10.5 10.5 0 1 1 0-21 10.5 10.5 0 0 1 0 21zm0-19.174a8.674 8.674 0 1 0 0 17.348 8.674 8.674 0 0 0 0-17.348z"
                  fill="#5F646C"/>
        </symbol>
        <symbol id="icon-copy" viewBox="0 0 12 13">
            <path d="M6.344 8.218a.33.33 0 0 1-.331.33H2.55a.33.33 0 0 1 0-.66h3.464a.33.33 0 0 1 .33.33zm-.331 1.383H2.55a.33.33 0 1 0 0 .662h3.464a.33.33 0 1 0 0-.662h-.001zm5.33-5.639v5.365a1.058 1.058 0 0 1-1.056 1.056h-1.92v1.11a1.058 1.058 0 0 1-1.057 1.055H1.251a1.058 1.058 0 0 1-1.056-1.056V3.673A1.058 1.058 0 0 1 1.25 2.617h1.92v-1.11A1.058 1.058 0 0 1 4.229.453h2.921v2.787a1.058 1.058 0 0 0 1.057 1.056h1.358a.33.33 0 0 0 0-.661H8.206a.397.397 0 0 1-.395-.395V.646l3.422 3.07a.331.331 0 0 1 .11.246zM7.705 6.275L4.823 3.691V5.4a.395.395 0 0 0 .395.396h1.356a.33.33 0 1 1 0 .661H5.218a1.058 1.058 0 0 1-1.056-1.056V3.279H1.25a.394.394 0 0 0-.395.394v7.82a.394.394 0 0 0 .395.394h6.06a.394.394 0 0 0 .394-.395V6.275z"/>
        </symbol>
        <symbol id="icon-up-arrow" fill="none" viewBox="0 0 12 12">
            <path d="M0 6a6 6 0 1 0 12 0A6 6 0 0 0 0 6zm9.158 1.137l-.896.884L6 5.765 3.738 8.021l-.896-.89L6 3.973l3.158 3.164z"
                  fill="#E50913"/>
        </symbol>
        <symbol id="icon-down-arrow" fill="none" viewBox="0 0 12 12">
            <path d="M12 6A6 6 0 1 0 0 6a6 6 0 0 0 12 0zM2.842 4.863l.896-.884L6 6.235l2.262-2.256.896.89L6 8.027 2.842 4.863z"
                  fill="#8D9CB5" fill-opacity=".48"/>
        </symbol>
        <symbol id="icon-success" fill="none" viewBox="0 0 14 11">
            <path fill-rule="evenodd" clip-rule="evenodd"
                  d="M13.67 2.239l-7.851 8.166a1.078 1.078 0 0 1-1.574 0L.328 6.295a1.194 1.194 0 0 1 0-1.643 1.078 1.078 0 0 1 1.574 0l3.147 3.287L12.114.595a1.078 1.078 0 0 1 1.573 0c.42.455.42 1.19-.017 1.644z"
                  fill="#4FBE89"/>
        </symbol>
        <symbol id="icon-pending" fill="none" viewBox="0 0 16 6">
            <circle cx="2" cy="4" r="2" fill="#FFC554"/>
            <circle cx="8" cy="2" r="2" fill="#FFC554"/>
            <circle cx="14" cy="4" r="2" fill="#FFC554"/>
        </symbol>
        <symbol id="icon-right-coursel" fill="none" viewBox="0 0 11 6">
            <path d="M10.077 0L5.842 4.25 1.544.094.653 1l5.221 5L11 .875 10.077 0z" fill="#D2D2D2"/>
        </symbol>
        <symbol id="icon-telegram-plane" viewBox="0 0 32 32">
            <path d="M27.919 6.162l-4.225 19.925c-0.319 1.406-1.15 1.756-2.331 1.094l-6.438-4.744-3.106 2.988c-0.344 0.344-0.631 0.631-1.294 0.631l0.463-6.556 11.931-10.781c0.519-0.463-0.113-0.719-0.806-0.256l-14.75 9.287-6.35-1.988c-1.381-0.431-1.406-1.381 0.288-2.044l24.837-9.569c1.15-0.431 2.156 0.256 1.781 2.013z"></path>
        </symbol>
        <symbol id="icon-twitter-logo" viewBox="0 0 32 32">
            <path d="M32 6.079c-1.178 0.522-2.442 0.876-3.769 1.034 1.356-0.812 2.394-2.1 2.885-3.629-1.272 0.752-2.675 1.298-4.171 1.594-1.198-1.278-2.901-2.074-4.791-2.074-3.625 0-6.565 2.939-6.565 6.563 0 0.514 0.058 1.016 0.17 1.496-5.455-0.274-10.292-2.887-13.529-6.859-0.566 0.968-0.888 2.096-0.888 3.299 0 2.278 1.16 4.287 2.919 5.463-1.076-0.036-2.088-0.332-2.973-0.824v0.082c0 3.179 2.264 5.833 5.265 6.437-0.55 0.148-1.13 0.23-1.73 0.23-0.424 0-0.834-0.042-1.236-0.122 0.836 2.61 3.259 4.507 6.131 4.559-2.246 1.76-5.077 2.805-8.152 2.805-0.53 0-1.052-0.032-1.566-0.090 2.905 1.866 6.355 2.953 10.062 2.953 12.076 0 18.677-10.002 18.677-18.677l-0.022-0.85c1.29-0.92 2.405-2.076 3.283-3.391z"></path>
        </symbol>
        <symbol id="icon-reddit-round" viewBox="0 0 15 15">
            <path d="M13.328 5.495c-.474 0-.89.199-1.197.509-1.129-.791-2.65-1.3-4.335-1.355L8.67.653l2.788.634a1.25 1.25 0 0 0 1.24 1.256c.695 0 1.254-.58 1.254-1.272C13.953.58 13.398 0 12.7 0c-.487 0-.907.298-1.117.704L8.503.014c-.155-.043-.307.07-.348.227l-.961 4.405c-1.673.07-3.178.58-4.31 1.37a1.672 1.672 0 0 0-1.213-.521C-.087 5.495-.663 7.883.947 8.7a3.63 3.63 0 0 0-.083.79c0 2.684 2.985 4.858 6.65 4.858 3.68 0 6.663-2.174 6.663-4.857 0-.27-.028-.551-.097-.804 1.577-.82.996-3.191-.752-3.192zM3.501 8.869c0-.704.556-1.27 1.255-1.27.682 0 1.239.562 1.239 1.27a1.25 1.25 0 0 1-1.24 1.256A1.253 1.253 0 0 1 3.502 8.87zm6.774 2.994c-1.15 1.165-4.398 1.165-5.549 0-.127-.113-.127-.311 0-.439a.3.3 0 0 1 .418 0c.878.913 3.793.928 4.71 0a.3.3 0 0 1 .418 0c.13.129.13.327.003.439zm-.026-1.735a1.249 1.249 0 0 1-1.238-1.255c0-.704.556-1.271 1.238-1.271.696 0 1.255.563 1.255 1.271a1.258 1.258 0 0 1-1.255 1.255z"/>
        </symbol>
        <symbol id="icon-medium-m" viewBox="0 0 32 32">
            <path d="M4.469 8.894c0.037-0.369-0.106-0.738-0.381-0.987l-2.819-3.4v-0.506h8.762l6.775 14.856 5.956-14.856h8.356v0.506l-2.413 2.313c-0.206 0.156-0.313 0.419-0.269 0.675v17c-0.044 0.256 0.063 0.519 0.269 0.675l2.356 2.313v0.506h-11.856v-0.506l2.444-2.369c0.238-0.238 0.238-0.313 0.238-0.675v-13.738l-6.794 17.244h-0.919l-7.9-17.244v11.556c-0.069 0.488 0.094 0.975 0.438 1.325l3.175 3.85v0.506h-9v-0.5l3.175-3.856c0.338-0.35 0.494-0.844 0.406-1.325v-13.363z"></path>
        </symbol>
        <symbol id="icon-linkedin-footer" viewBox="0 0 11 10">
            <title>Linkedin</title>
            <path d="M2.335 3.213H.324a.162.162 0 0 0-.162.162v6.463c0 .09.072.161.162.161h2.011c.09 0 .162-.072.162-.161V3.375a.162.162 0 0 0-.162-.162zM1.33 0C.598 0 .002.595.002 1.326a1.328 1.328 0 0 0 2.654 0C2.657.595 2.062 0 1.33 0zM7.452 3.053c-.808 0-1.405.347-1.767.742v-.42a.162.162 0 0 0-.162-.162H3.596a.162.162 0 0 0-.161.162v6.463c0 .09.072.162.161.162h2.008c.09 0 .162-.072.162-.162V6.64c0-1.077.292-1.497 1.043-1.497.819 0 .884.673.884 1.553v3.142c0 .09.072.162.161.162h2.008c.09 0 .162-.072.162-.162V6.293c0-1.602-.306-3.24-2.572-3.24z"/>
        </symbol>
        <symbol id="icon-announcements" viewBox="0 0 12 8">
            <title>Announcements</title>
            <path d="M11.37 3.888a1.122 1.122 0 0 1-1.121 1.121V2.766a1.122 1.122 0 0 1 1.122 1.122zM2.958 2.205H1.835a1.683 1.683 0 0 0 0 3.365l.561 2.244h1.122l-.56-2.244V2.205zM9.128.695c-.05 0-.1.007-.148.02l-5.462 1.49V5.57l5.461 1.49a.56.56 0 0 0 .709-.541V1.257a.561.561 0 0 0-.56-.562z"/>
        </symbol>
        <symbol id="icon-discord" viewBox="0 0 11 14">
            <title>discord</title>
            <path d="M6.678 6.003c-.356 0-.637.306-.637.687 0 .38.288.687.637.687.356 0 .637-.306.637-.687 0-.381-.287-.687-.637-.687zm-2.28 0c-.355 0-.636.306-.636.687 0 .38.287.687.637.687.356 0 .637-.306.637-.687.006-.381-.281-.687-.637-.687z"/>
            <path d="M9.713.807H1.344c-.705 0-1.28.574-1.28 1.28v8.37c0 .705.575 1.28 1.28 1.28h7.083l-.331-1.143.8.737.755.693 1.35 1.168V2.087A1.292 1.292 0 0 0 9.712.807zm-2.41 8.088s-.225-.269-.413-.5c.819-.231 1.13-.737 1.13-.737-.255.169-.499.287-.717.369a4.375 4.375 0 0 1-2.523.262 4.755 4.755 0 0 1-.919-.269 3.66 3.66 0 0 1-.456-.212c-.018-.012-.037-.019-.056-.031-.012-.006-.019-.013-.025-.013a2.19 2.19 0 0 1-.175-.106s.3.494 1.093.73c-.187.238-.418.513-.418.513-1.38-.044-1.905-.943-1.905-.943 0-1.992.9-3.61.9-3.61.899-.668 1.748-.65 1.748-.65l.063.075c-1.125.319-1.637.812-1.637.812s.138-.075.369-.175a4.894 4.894 0 0 1 1.417-.393c.038-.006.07-.013.107-.013.38-.05.812-.062 1.261-.012.594.069 1.23.244 1.88.593 0 0-.493-.468-1.555-.787l.087-.1s.856-.018 1.75.65c0 0 .899 1.618.899 3.61 0-.006-.525.893-1.905.937z"/>
        </symbol>
        <symbol id="icon-youtube" viewBox="-21 -117 682.667 682">
            <path d="M626.813 64.035c-7.375-27.418-28.993-49.031-56.407-56.414C520.324-6.082 319.992-6.082 319.992-6.082s-200.324 0-250.406 13.184c-26.887 7.375-49.031 29.52-56.406 56.933C0 114.113 0 217.97 0 217.97s0 104.379 13.18 153.933c7.382 27.414 28.992 49.028 56.41 56.41C120.195 442.02 320 442.02 320 442.02s200.324 0 250.406-13.184c27.418-7.379 49.032-28.992 56.414-56.406 13.176-50.082 13.176-153.934 13.176-153.934s.527-104.383-13.183-154.46zM256.21 313.915V122.022l166.586 95.946zm0 0"/>
        </symbol>
        <symbol id="icon-download" viewBox="0 0 21 14">
            <path d="M20.2 8.39c0 1.885-1.558 3.375-3.417 3.375h-1.658c-.302 0-.503-.199-.503-.497s.201-.496.503-.496h1.658a2.398 2.398 0 0 0 2.412-2.383c0-1.34-1.105-2.383-2.412-2.383h-.452l-.1-.446C15.827 2.88 13.516.993 10.802.993A5.45 5.45 0 0 0 5.88 4.02l-.2.347-.403-.099c-.301-.1-.603-.1-.904-.1-1.86 0-3.367 1.49-3.367 3.327 0 1.836 1.507 3.326 3.367 3.326h.753c.302 0 .503.198.503.496s-.201.496-.503.496h-.753C1.96 11.814 0 9.878 0 7.496c0-2.383 1.96-4.319 4.372-4.319.25 0 .502 0 .753.05A6.475 6.475 0 0 1 10.753 0c3.065 0 5.678 2.085 6.332 5.014A3.377 3.377 0 0 1 20.2 8.389zm-7.186 2.034a.49.49 0 0 0-.703 0l-1.709 1.688V7.645c0-.298-.2-.497-.502-.497-.301 0-.502.199-.502.497v4.467l-1.709-1.688a.49.49 0 0 0-.703 0 .476.476 0 0 0 0 .695l2.562 2.532c.05.05.1.1.151.1.05.049.15.049.201.049.05 0 .15 0 .201-.05.05-.05.1-.05.15-.099l2.563-2.532a.476.476 0 0 0 0-.694z"
                  fill="#E9721C"/>
        </symbol>
        <symbol id="icon-dayMode" fill="none" viewBox="0 0 48 55">
            <path d="M21.205.043c1.447-.34 2.455 1.406 1.436 2.488-7.347 7.808-8.807 19.61-3.364 29.038 5.444 9.429 16.394 14.065 26.83 11.606 1.447-.341 2.455 1.405 1.436 2.488a27.495 27.495 0 0 1-6.288 4.972C28.1 58.229 11.283 53.722 3.689 40.569-3.905 27.416.602 10.597 13.755 3.003a27.5 27.5 0 0 1 7.45-2.96z"
                  fill="#5F646C"/>
        </symbol>
        <symbol id="icon-darkMode" fill="none" viewBox="0 0 68 68">
            <path d="M34 48c7.732 0 14-6.268 14-14s-6.268-14-14-14-14 6.268-14 14 6.268 14 14 14z" stroke="#fff"
                  stroke-width="4"/>
            <path d="M34 12V2M34 66V56M56 34h10M2 34h10M49.556 18.444l7.071-7.071M11.372 56.627l7.071-7.07M49.556 49.556l7.071 7.071M11.372 11.373l7.071 7.07"
                  stroke="#fff" stroke-width="4" stroke-linecap="round"/>
        </symbol>
        <symbol id="icon-export" fill="none" viewBox="0 0 12 12">
            <path d="M9.5 3a.5.5 0 0 0-.5-.5H4.5a.5.5 0 0 0 0 1h4v4a.5.5 0 0 0 1 0V3zM3.354 9.354l6-6-.708-.708-6 6 .708.708z"
                  fill="#5F646C"/>
        </symbol>
        <symbol id="icon-warning" viewBox="0 0 91 80">
            <path d="M45.004 0c-2.847 0-5.424 1.469-6.843 3.938L1.067 68.156a7.8 7.8 0 0 0 0 7.875C2.49 78.491 5.069 80.003 7.91 80h74.187c2.842 0 5.42-1.508 6.844-3.969a7.8 7.8 0 0 0 0-7.875L51.848 3.937C50.428 1.47 47.852 0 45.004 0zm0 6c.578 0 1.37.438 1.657.938l37.093 64.218c.288.498.288 1.377 0 1.875s-1.079.97-1.656.969H7.911c-.578 0-1.369-.471-1.657-.969-.288-.498-.287-1.377 0-1.875L43.348 6.937C43.635 6.439 44.426 6 45.004 6zm-.03 12.938a3.006 3.006 0 0 0-.313.03A3 3 0 0 0 42.004 22v27a3 3 0 1 0 6 0V22a3.001 3.001 0 0 0-3.03-3.063zM45.003 55c-4.382 0-8 3.617-8 8s3.618 8 8 8c4.383 0 8-3.617 8-8s-3.617-8-8-8zm0 6c1.14 0 2 .86 2 2 0 1.14-.86 2-2 2-1.14 0-2-.86-2-2 0-1.14.86-2 2-2z"/>
        </symbol>
    </defs>
</svg>