<svg style="position: absolute; width: 0; height: 0; overflow: hidden;" version="1.1"
     xmlns="http://www.w3.org/2000/svg" xmlns:xlink="http://www.w3.org/1999/xlink">
    <defs>
        <symbol id="icon-staking" viewBox="0 0 17 17">
            <path d="M9.04 10.48c.897.728 2.318 1.157 3.956 1.157 1.64 0 3.06-.43 3.956-1.157v1.74c-.61.903-2.145 1.482-3.956 1.482-1.808 0-3.343-.578-3.957-1.479V10.48zm0-7.334c0-1.236 1.625-2.171 3.804-2.214.05 0 .1-.004.152-.004 2.116 0 3.744.838 3.94 2 .008.05.01.1.012.15.002.023.006.044.006.067 0 1.263-1.702 2.215-3.958 2.215-2.251 0-3.95-.949-3.957-2.208v-.006zm3.956 2.933c1.727 0 3.149-.502 3.956-1.305V6.65c-.61.902-2.145 1.482-3.956 1.482-1.808 0-3.343-.579-3.957-1.48v-1.88c.807.804 2.23 1.307 3.957 1.307zM9.04 7.695c.898.727 2.319 1.156 3.957 1.156 1.64 0 3.06-.429 3.956-1.157v1.741c-.61.903-2.145 1.482-3.956 1.482-1.808 0-3.343-.578-3.957-1.479v-.736l.002-.02-.002-.019v-.968zM4.364 6.467c2.246 0 3.94.944 3.956 2.2v.041c-.024 1.25-1.715 2.19-3.956 2.19-2.254 0-3.954-.95-3.957-2.211v-.003-.001c0-1.264 1.7-2.216 3.957-2.216zm0 5.151c1.726 0 3.148-.502 3.955-1.306v1.877c-.61.902-2.144 1.482-3.956 1.482-1.807 0-3.343-.579-3.956-1.48v-1.88c.806.804 2.23 1.307 3.957 1.307zm-.001 4.87c-2.252 0-3.953-.954-3.956-2.218v-1.037c.897.728 2.318 1.157 3.956 1.157 1.64 0 3.06-.429 3.956-1.157v1.036c-.006 1.265-1.707 2.219-3.956 2.219zm8.633 0c-2.253 0-3.953-.954-3.957-2.218v-1.005c.898.728 2.319 1.157 3.957 1.157 1.64 0 3.06-.429 3.956-1.157v1.004c-.006 1.265-1.707 2.219-3.956 2.219z" />
        </symbol>
        <symbol id="icon-wallet" viewBox="0 0 17 16">
            <path d="M16.13 2.75V1.628C16.108.93 15.802.547 15.547.347c-.611-.482-1.43-.327-1.515-.31L1.408 2.548C.607 2.705 0 3.41 0 4.257v9.69c0 .96.78 1.74 1.74 1.74h13.52c.96 0 1.74-.78 1.74-1.74v-9.69a1.74 1.74 0 0 0-.87-1.506zm-1.864-1.575c.059-.013.396-.049.564.084.087.068.134.203.14.386v.87H7.521l6.744-1.34zm1.574 6.48h-3.51a1.48 1.48 0 1 0 0 2.959h3.51v3.331c0 .32-.26.58-.58.58H1.74a.58.58 0 0 1-.58-.58v-9.69c0-.32.26-.58.58-.58h13.52c.32 0 .58.26.58.58v3.4zm-2.805 1.477a.445.445 0 1 1-.89 0 .445.445 0 0 1 .89 0z"/>
        </symbol>
        <symbol id="icon-explorer" viewBox="0 0 17 17">
            <path d="M8.819 2.22c3.094.218 5.603 2.743 5.787 5.854.217 3.646-2.66 6.674-6.255 6.674a6.27 6.27 0 0 1-5.637-3.53c-.05-.083-.134-.15-.234-.15H1.226a.253.253 0 0 0-.234.351 7.92 7.92 0 0 0 7.743 4.984c3.947-.184 7.192-3.311 7.527-7.242.4-4.683-3.295-8.63-7.895-8.63C5.04.531 2.162 2.605.992 5.532a.254.254 0 0 0 .234.351h1.27c.101 0 .185-.05.235-.15A6.282 6.282 0 0 1 8.819 2.22z" />
            <path d="M.891 9.73h5.804v1.94c0 .217.117.401.3.502.185.1.419.066.586-.05l4.315-3.195a.563.563 0 0 0 .218-.452.588.588 0 0 0-.218-.451L7.581 4.829a.622.622 0 0 0-.334-.117.472.472 0 0 0-.251.067.564.564 0 0 0-.301.502v1.94H.89a.485.485 0 0 0-.485.485v1.539c0 .267.218.485.485.485z"/>
        </symbol>
        <symbol id="icon-exclamation" fill="none" viewBox="0 0 29 26">
            <path d="M9.617 3.052c2.194-3.8 6.765-4.177 9.042-.242l8.778 15.21c2.203 3.804.228 7.954-4.308 7.954H5.564c-4.383 0-6.998-3.773-4.73-7.708L9.617 3.052zm4.554 14.293c.86 0 1.557.697 1.557 1.553 0 .86-.697 1.557-1.557 1.557a1.556 1.556 0 0 1 0-3.11zm-.957-8.068c0-1.26 1.913-1.26 1.913 0v5.36c0 1.26-1.913 1.26-1.913 0v-5.36zm-1.943-5.269L2.488 19.214c-1.535 2.667.167 4.847 3.076 4.847h17.565c3.159 0 4.067-2.645 2.659-5.084l-8.783-15.21c-1.535-2.667-4.277-2.281-5.734.241z" fill="#FF434C"/>
        </symbol>
        <symbol id="icon-lock" fill="none" viewBox="0 0 14 22">
            <path d="M7 0a5.182 5.182 0 0 0-5.182 5.075c-.007.98-.003 1.976-.003 2.962H0v13.222h14V8.037h-1.815c-.004-.986.008-1.982-.003-2.962A5.182 5.182 0 0 0 7 0zm0 1.814a3.367 3.367 0 0 1 3.37 3.371v2.852H3.63V5.185A3.367 3.367 0 0 1 7 1.814zm-.881 9.885l1.815.016-.016 1.708 1.629-.514.544 1.731-1.628.513.991 1.39-1.477 1.054-.991-1.39-1.016 1.372-1.459-1.08 1.016-1.372-1.618-.542.576-1.72 1.618.54.016-1.706z" fill="#8D9CB5"/>
        </symbol>
        <symbol id="icon-help" fill="none" viewBox="0 0 12 12">
            <path d="M7.92 4.32a1.92 1.92 0 0 0-3.84 0h.826A1.1 1.1 0 1 1 6 5.42v.82a1.92 1.92 0 0 0 1.92-1.92zM6 8.04a.648.648 0 1 0 0 1.3.648.648 0 0 0 0-1.302v.002zM9.569 12H2.43A2.433 2.433 0 0 1 0 9.569V2.43A2.434 2.434 0 0 1 2.431 0H9.57A2.434 2.434 0 0 1 12 2.431V9.57A2.433 2.433 0 0 1 9.569 12zM2.43.826A1.608 1.608 0 0 0 .826 2.43V9.57a1.608 1.608 0 0 0 1.605 1.605H9.57a1.608 1.608 0 0 0 1.605-1.605V2.43A1.608 1.608 0 0 0 9.57.826H2.43z" fill="#272931"/>
        </symbol>
        <symbol id="icon-info" fill="none" viewBox="0 0 15 15">
            <path d="M9.472 3.302a.803.803 0 1 1-1.55-.415.803.803 0 0 1 1.55.415zM7.544 10.5l1.263-4.715c.234-.873-1.106-1.233-1.972-.814A3.366 3.366 0 0 0 5.5 6.135c.544-.24 1.76-.78 1.318.87L5.554 11.72c-.233.872 1.106 1.233 1.973.814a3.365 3.365 0 0 0 1.335-1.165c-.545.239-1.76.78-1.318-.87zM15 7.5a7.5 7.5 0 1 1-15 0 7.5 7.5 0 0 1 15 0zm-.833 0A6.666 6.666 0 1 0 7.5 14.167 6.674 6.674 0 0 0 14.167 7.5z" fill="#8D9CB5"/>
        </symbol>
        <symbol id="icon-left-arrow" fill="none" viewBox="0 0 20 12">
            <path d="M19.204 4.747H2.71l3.368-3.391A.793.793 0 0 0 6.073.23.793.793 0 0 0 4.95.236L.232 4.981c-.31.31-.31.81 0 1.125l4.717 4.75a.802.802 0 0 0 1.129.004.793.793 0 0 0 .005-1.124L2.71 6.34h16.494a.796.796 0 1 0 0-1.593z" fill="#2E3239"/>
        </symbol>
        <symbol id="icon-profile" fill="none" viewBox="0 0 23 23">
            <path d="M11.5 0a11.5 11.5 0 1 0 0 23 11.5 11.5 0 0 0 0-23zm8.327 17.418c-.994-2.786-2.178-5.409-8.324-5.41a3.96 3.96 0 1 0-.006 0c-6.165.001-7.331 2.624-8.324 5.41a10.222 10.222 0 1 1 16.654 0z" fill="#8D9CB5"/>
        </symbol>
        <symbol id="icon-copy" fill="none" viewBox="0 0 12 13">
            <path d="M6.344 8.218a.33.33 0 0 1-.331.33H2.55a.33.33 0 0 1 0-.66h3.464a.33.33 0 0 1 .33.33zm-.331 1.383H2.55a.33.33 0 1 0 0 .662h3.464a.33.33 0 1 0 0-.662h-.001zm5.33-5.639v5.365a1.058 1.058 0 0 1-1.056 1.056h-1.92v1.11a1.058 1.058 0 0 1-1.057 1.055H1.251a1.058 1.058 0 0 1-1.056-1.056V3.673A1.058 1.058 0 0 1 1.25 2.617h1.92v-1.11A1.058 1.058 0 0 1 4.229.453h2.921v2.787a1.058 1.058 0 0 0 1.057 1.056h1.358a.33.33 0 0 0 0-.661H8.206a.397.397 0 0 1-.395-.395V.646l3.422 3.07a.331.331 0 0 1 .11.246zM7.705 6.275L4.823 3.691V5.4a.395.395 0 0 0 .395.396h1.356a.33.33 0 1 1 0 .661H5.218a1.058 1.058 0 0 1-1.056-1.056V3.279H1.25a.394.394 0 0 0-.395.394v7.82a.394.394 0 0 0 .395.394h6.06a.394.394 0 0 0 .394-.395V6.275z" fill="#2E3239"/>
        </symbol>
    </defs>
</svg>