<svg width="222" height="42" viewBox="0 0 222 42" fill="none" xmlns="http://www.w3.org/2000/svg">
<path d="M36 0H6C2.68629 0 0 2.68629 0 6V36C0 39.3137 2.68629 42 6 42H36C39.3137 42 42 39.3137 42 36V6C42 2.68629 39.3137 0 36 0Z" fill="url(#paint0_radial_335_802)"/>
<path opacity="0.95" d="M19 11H9C8.20435 11 7.44129 11.3161 6.87868 11.8787C6.31607 12.4413 6 13.2044 6 14V28C6.00114 28.635 6.20372 29.2532 6.57859 29.7657C6.95345 30.2782 7.48126 30.6586 8.08605 30.852C8.69084 31.0455 9.3414 31.042 9.94411 30.8422C10.5468 30.6424 11.0706 30.2564 11.44 29.74L21.44 15.74C21.7593 15.2916 21.949 14.7639 21.9885 14.2148C22.0279 13.6657 21.9154 13.1164 21.6635 12.6269C21.4115 12.1375 21.0298 11.7268 20.56 11.4398C20.0902 11.1529 19.5505 11.0007 19 11ZM11 18C10.6044 18 10.2178 17.8827 9.88886 17.6629C9.55996 17.4432 9.30362 17.1308 9.15224 16.7654C9.00087 16.3999 8.96126 15.9978 9.03843 15.6098C9.1156 15.2219 9.30608 14.8655 9.58579 14.5858C9.86549 14.3061 10.2219 14.1156 10.6098 14.0384C10.9978 13.9613 11.3999 14.0009 11.7654 14.1522C12.1308 14.3036 12.4432 14.56 12.6629 14.8889C12.8827 15.2178 13 15.6044 13 16C13 16.5304 12.7893 17.0391 12.4142 17.4142C12.0391 17.7893 11.5304 18 11 18Z" fill="black"/>
<path opacity="0.95" d="M26.5 30C27.8807 30 29 28.8807 29 27.5C29 26.1193 27.8807 25 26.5 25C25.1193 25 24 26.1193 24 27.5C24 28.8807 25.1193 30 26.5 30Z" fill="black"/>
<path opacity="0.95" d="M36 14V28C36.0011 28.7486 35.7223 29.4706 35.2183 30.0242C34.7143 30.5778 34.0216 30.9229 33.2761 30.9918C32.5306 31.0608 31.7864 30.8485 31.1894 30.3966C30.5925 29.9448 30.1861 29.2862 30.05 28.55C30.018 28.3684 30.0013 28.1844 30 28V25.72C29.9946 25.0867 29.789 24.4714 29.4126 23.9621C29.0362 23.4528 28.5083 23.0757 27.9045 22.8848C27.3006 22.6939 26.6519 22.699 26.0511 22.8993C25.4503 23.0996 24.9284 23.4849 24.56 24L23 26.19L20.49 29.71C20.0112 30.3187 19.3157 30.7187 18.5488 30.8263C17.7819 30.934 17.0032 30.7409 16.3754 30.2875C15.7476 29.8341 15.3195 29.1555 15.1805 28.3937C15.0416 27.6319 15.2026 26.8458 15.63 26.2L25.63 12.2C25.9063 11.8314 26.2639 11.5315 26.6749 11.3234C27.0859 11.1153 27.5393 11.0046 28 11H33C33.7956 11 34.5587 11.3161 35.1213 11.8787C35.6839 12.4413 36 13.2044 36 14Z" fill="white"/>
<g opacity="0.95">
<path d="M61.18 11H54.75L48 31H53.2L54.51 26.8H61.42L62.74 31H67.93L61.18 11ZM55.66 23.12L57.88 16H58L60.23 23.09L55.66 23.12Z" fill="#FFFDFA"/>
<path d="M82.1702 20.58L77.7802 20.7C77.7393 20.3905 77.6109 20.0991 77.4102 19.86C77.1978 19.6078 76.9264 19.412 76.6202 19.29C76.2687 19.1439 75.8907 19.0724 75.5102 19.08C75.0193 19.0635 74.5327 19.1774 74.1002 19.41C73.9502 19.4818 73.8206 19.5899 73.723 19.7244C73.6253 19.8589 73.5627 20.0157 73.5409 20.1805C73.5191 20.3452 73.5386 20.5129 73.5979 20.6682C73.6571 20.8235 73.7541 20.9616 73.8801 21.07C74.2693 21.3449 74.7184 21.5232 75.1902 21.59L78.0802 22.13C79.3058 22.2941 80.4638 22.7884 81.4302 23.56C81.7945 23.8941 82.0823 24.3029 82.2739 24.7586C82.4655 25.2143 82.5563 25.706 82.5402 26.2C82.5507 27.1725 82.2258 28.119 81.6202 28.88C80.9702 29.6762 80.1216 30.2868 79.1602 30.65C78.0183 31.0877 76.8029 31.3016 75.5802 31.28C73.8014 31.3905 72.0324 30.943 70.5201 30C69.9313 29.5975 69.4373 29.0713 69.0729 28.4581C68.7085 27.845 68.4823 27.1596 68.4102 26.45L73.1202 26.33C73.1618 26.5829 73.2552 26.8245 73.3946 27.0396C73.534 27.2547 73.7163 27.4387 73.9302 27.58C74.4338 27.8802 75.0144 28.0262 75.6002 28C76.1216 28.0237 76.6399 27.9063 77.1002 27.66C77.2737 27.5797 77.4206 27.4512 77.5234 27.29C77.6262 27.1287 77.6806 26.9413 77.6802 26.75C77.6825 26.5874 77.6422 26.4271 77.5632 26.285C77.4843 26.1428 77.3694 26.0239 77.2302 25.94C76.812 25.6844 76.3456 25.5176 75.8602 25.45L73.2402 24.96C71.9931 24.8016 70.8225 24.272 69.8801 23.44C69.5124 23.0695 69.2257 22.6266 69.038 22.1394C68.8504 21.6523 68.766 21.1315 68.7902 20.61C68.7568 19.6873 69.039 18.7808 69.5901 18.04C70.1832 17.2836 70.9818 16.7142 71.8902 16.4C73.0225 15.9973 74.2186 15.8042 75.4202 15.83C77.1154 15.7365 78.7965 16.1848 80.2202 17.11C80.7828 17.507 81.2497 18.0245 81.5871 18.6248C81.9244 19.225 82.1236 19.893 82.1702 20.58Z" fill="#FFFDFA"/>
<path d="M97.4299 20.58L92.9999 20.7C92.9591 20.3905 92.8307 20.0991 92.6299 19.86C92.4176 19.6078 92.1462 19.412 91.8399 19.29C91.4884 19.1439 91.1105 19.0724 90.7299 19.08C90.239 19.0635 89.7525 19.1774 89.3199 19.41C89.17 19.4818 89.0404 19.5899 88.9427 19.7244C88.8451 19.8589 88.7825 20.0157 88.7607 20.1805C88.7388 20.3452 88.7584 20.5129 88.8176 20.6682C88.8769 20.8235 88.9739 20.9616 89.0999 21.07C89.4891 21.3449 89.9382 21.5232 90.4099 21.59L93.2999 22.13C94.5256 22.2941 95.6836 22.7884 96.6499 23.56C97.0215 23.8904 97.3168 24.2976 97.5154 24.7535C97.714 25.2093 97.811 25.7029 97.7999 26.2C97.8105 27.1725 97.4856 28.119 96.8799 28.88C96.23 29.6762 95.3814 30.2867 94.4199 30.65C93.2781 31.0877 92.0626 31.3016 90.8399 31.28C89.0611 31.3905 87.2922 30.943 85.7799 30C85.191 29.5975 84.6971 29.0713 84.3327 28.4581C83.9682 27.845 83.742 27.1596 83.6699 26.45L88.3799 26.33C88.4215 26.5829 88.5149 26.8245 88.6543 27.0396C88.7937 27.2547 88.9761 27.4387 89.1899 27.58C89.6925 27.8837 90.2732 28.0332 90.8599 28.01C91.3814 28.0337 91.8996 27.9163 92.3599 27.67C92.5335 27.5897 92.6804 27.4612 92.7832 27.2999C92.886 27.1387 92.9404 26.9513 92.9399 26.76C92.9423 26.5974 92.9019 26.4371 92.823 26.295C92.744 26.1528 92.6292 26.0339 92.4899 25.95C92.0717 25.6943 91.6054 25.5275 91.1199 25.46L88.4999 24.97C87.2529 24.8116 86.0822 24.282 85.1399 23.45C84.7722 23.0795 84.4854 22.6366 84.2978 22.1494C84.1102 21.6623 84.0258 21.1415 84.0499 20.62C84.0166 19.6973 84.2988 18.7908 84.8499 18.05C85.443 17.2936 86.2416 16.7242 87.1499 16.41C88.2822 16.0073 89.4784 15.8142 90.6799 15.84C92.3752 15.7465 94.0563 16.1948 95.4799 17.12C96.0413 17.5159 96.5075 18.0318 96.8448 18.6303C97.182 19.2287 97.3819 19.8947 97.4299 20.58Z" fill="#FFFDFA"/>
<path d="M113.72 24.65V23.46C113.739 22.343 113.556 21.2318 113.18 20.18C112.861 19.277 112.35 18.4544 111.68 17.77C111.034 17.118 110.252 16.6162 109.39 16.3C108.451 15.9601 107.459 15.7907 106.46 15.8C105.081 15.7729 103.719 16.1184 102.52 16.8C101.413 17.4394 100.514 18.3836 99.9299 19.52C99.2963 20.7675 98.977 22.151 98.9999 23.55C98.9636 24.9812 99.2796 26.3995 99.9199 27.68C100.506 28.8125 101.419 29.7428 102.54 30.35C103.774 30.9902 105.15 31.31 106.54 31.28C107.721 31.3028 108.895 31.0991 110 30.68C110.953 30.3337 111.805 29.7565 112.48 29C113.096 28.2632 113.507 27.3766 113.67 26.43L109.29 26.31C109.17 26.6293 108.979 26.9167 108.73 27.15C108.473 27.3842 108.17 27.5615 107.84 27.67C107.468 27.7861 107.08 27.8435 106.69 27.84C106.139 27.8532 105.594 27.7222 105.11 27.46C104.681 27.207 104.333 26.8354 104.11 26.39C103.86 25.8909 103.736 25.338 103.75 24.78V24.66L113.72 24.65ZM104.11 20.57C104.351 20.1555 104.695 19.8108 105.11 19.57C105.55 19.3469 106.036 19.2306 106.53 19.2306C107.023 19.2306 107.51 19.3469 107.95 19.57C108.361 19.7889 108.706 20.1134 108.95 20.51C109.185 20.9213 109.309 21.3865 109.31 21.86H103.76C103.763 21.407 103.884 20.9627 104.11 20.57Z" fill="#FFFDFA"/>
<path d="M124.36 30.78C124.14 30.85 123.81 30.93 123.36 31.02C122.874 31.128 122.378 31.1916 121.88 31.21C120.906 31.2832 119.927 31.1468 119.01 30.81C118.255 30.5355 117.611 30.0186 117.18 29.34C116.739 28.5723 116.528 27.6943 116.57 26.81V19.51H114.57V16H116.57V12.4H121.34V16H124.05V19.51H121.34V26.28C121.33 26.5255 121.382 26.7696 121.49 26.99C121.577 27.1618 121.722 27.2968 121.9 27.37C122.112 27.4471 122.335 27.4844 122.56 27.48C122.755 27.477 122.948 27.4603 123.14 27.43L123.6 27.33L124.36 30.78Z" fill="#FFFDFA"/>
<path d="M126.29 11H132.29L137.37 23.38H137.6L142.67 11H148.67V31H144V18.72H143.83L139 30.87H136L131.2 18.65H131V31H126.29V11Z" fill="#FFFDFA"/>
<path d="M192.32 30.78C192.094 30.8533 191.76 30.9333 191.32 31.02C190.834 31.1273 190.338 31.1909 189.84 31.21C188.863 31.2824 187.881 31.1461 186.96 30.81C186.207 30.5356 185.567 30.0184 185.14 29.34C184.695 28.574 184.483 27.6947 184.53 26.81V19.51H182.53V16H184.53V12.4H189.3V16H192.01V19.51H189.3V26.28C189.292 26.5242 189.34 26.7671 189.44 26.99C189.531 27.1625 189.68 27.2972 189.86 27.37C190.068 27.4464 190.289 27.4837 190.51 27.48C190.705 27.4774 190.898 27.4607 191.09 27.43L191.56 27.33L192.32 30.78Z" fill="#FFFDFA"/>
<path d="M162.44 17.11C161.801 16.6559 161.087 16.3175 160.33 16.11C159.47 15.8745 158.582 15.7601 157.69 15.77C156.51 15.7419 155.337 15.9528 154.24 16.39C153.357 16.7493 152.584 17.3358 152 18.09C151.458 18.8052 151.113 19.6499 151 20.54L155.4 20.69C155.491 20.2343 155.752 19.8303 156.13 19.56C156.586 19.27 157.12 19.1268 157.66 19.15C158.157 19.125 158.647 19.2696 159.05 19.56C159.223 19.6975 159.361 19.8747 159.452 20.0766C159.542 20.2784 159.583 20.4991 159.57 20.72V20.77C159.576 20.9081 159.546 21.0454 159.485 21.1694C159.424 21.2934 159.333 21.4002 159.22 21.48C158.869 21.6805 158.481 21.8097 158.08 21.86C157.56 21.95 156.87 22.03 156.02 22.11C155.294 22.1672 154.574 22.2911 153.87 22.48C153.235 22.6527 152.634 22.9298 152.09 23.3C151.576 23.658 151.16 24.1394 150.88 24.7C150.57 25.3554 150.419 26.0751 150.44 26.8C150.405 27.6685 150.628 28.528 151.08 29.27C151.508 29.9198 152.116 30.4306 152.83 30.74C154.24 31.293 155.792 31.3702 157.25 30.96C157.786 30.7949 158.283 30.5228 158.71 30.16C159.119 29.7985 159.458 29.3645 159.71 28.88H159.83V31H164.32V20.8C164.334 20.0767 164.169 19.3611 163.839 18.7172C163.51 18.0733 163.025 17.5211 162.43 17.11H162.44ZM159.59 25.66C159.601 26.1176 159.472 26.5677 159.22 26.95C158.967 27.3185 158.622 27.6148 158.22 27.81C157.788 28.0234 157.312 28.1297 156.83 28.12C156.35 28.1411 155.875 28.0041 155.48 27.73C155.313 27.5958 155.182 27.4224 155.098 27.2252C155.015 27.0281 154.981 26.8133 155 26.6C154.995 26.301 155.083 26.0078 155.25 25.76C155.436 25.5052 155.684 25.3021 155.97 25.17C156.338 25.0107 156.724 24.8998 157.12 24.84L157.82 24.74L158.52 24.6C158.75 24.55 158.96 24.49 159.15 24.43C159.318 24.3796 159.482 24.3161 159.64 24.24L159.59 25.66Z" fill="#FFFDFA"/>
<path d="M180.52 18.48C180.97 19.3968 181.19 20.4093 181.16 21.43V31H176.38V22.37C176.432 21.6629 176.206 20.9635 175.75 20.42C175.524 20.1811 175.249 19.9946 174.943 19.8736C174.637 19.7527 174.309 19.7002 173.98 19.72C173.52 19.712 173.066 19.8222 172.66 20.04C172.278 20.2566 171.971 20.5845 171.78 20.98C171.561 21.4351 171.452 21.935 171.46 22.44V31H166.69V16H171.23V18.75H171.39C171.702 17.8616 172.3 17.1018 173.09 16.59C173.958 16.0376 174.973 15.7621 176 15.8C176.965 15.7764 177.918 16.0222 178.75 16.51C179.513 16.9881 180.126 17.6706 180.52 18.48Z" fill="#FFFDFA"/>
<path d="M199.02 11H194.25V31H199.02V11Z" fill="#FFFDFA"/>
<path d="M215.63 24.65V23.46C215.649 22.343 215.466 21.2318 215.09 20.18C214.771 19.277 214.259 18.4544 213.59 17.77C212.943 17.118 212.162 16.6162 211.3 16.3C210.361 15.9601 209.368 15.7907 208.37 15.8C206.99 15.7729 205.629 16.1184 204.43 16.8C203.323 17.4394 202.424 18.3836 201.84 19.52C201.205 20.7774 200.889 22.1717 200.92 23.58C200.884 25.0112 201.199 26.4295 201.84 27.71C202.426 28.8425 203.339 29.7728 204.46 30.38C205.694 31.0202 207.07 31.34 208.46 31.31C209.641 31.3328 210.815 31.1291 211.92 30.71C212.872 30.3537 213.721 29.766 214.39 29C215.006 28.2632 215.417 27.3766 215.58 26.43L211.2 26.31C211.08 26.6293 210.888 26.9167 210.64 27.15C210.383 27.3842 210.08 27.5615 209.75 27.67C209.378 27.7861 208.99 27.8435 208.6 27.84C208.049 27.8532 207.504 27.7222 207.02 27.46C206.59 27.207 206.243 26.8354 206.02 26.39C205.77 25.8909 205.646 25.338 205.66 24.78V24.66L215.63 24.65ZM206 20.57C206.241 20.1555 206.585 19.8108 207 19.57C207.44 19.3469 207.926 19.2306 208.42 19.2306C208.913 19.2306 209.4 19.3469 209.84 19.57C210.251 19.7889 210.596 20.1134 210.84 20.51C211.074 20.9213 211.198 21.3865 211.2 21.86H205.65C205.653 21.407 205.774 20.9627 206 20.57Z" fill="#FFFDFA"/>
</g>
<defs>
<radialGradient id="paint0_radial_335_802" cx="0" cy="0" r="1" gradientUnits="userSpaceOnUse" gradientTransform="translate(93.91 -37.94) scale(18.9)">
<stop stop-color="#FFC942"/>
<stop offset="0.28" stop-color="#FEC73E"/>
<stop offset="0.57" stop-color="#FBC131"/>
<stop offset="0.86" stop-color="#F5B71D"/>
<stop offset="1" stop-color="#F2B110"/>
</radialGradient>
</defs>
</svg>
