<svg width="21" height="21" viewBox="0 0 21 21" fill="none" xmlns="http://www.w3.org/2000/svg">
<mask id="mask0" mask-type="alpha" maskUnits="userSpaceOnUse" x="0" y="0" width="22" height="21">
<rect width="21.0009" height="21" rx="10.5" fill="white"/>
</mask>
<g mask="url(#mask0)">
<rect width="21.0009" height="21" rx="10.5" fill="#2E3239"/>
<path d="M15.6133 11.908C15.6133 12.6853 15.4349 13.3988 15.0781 14.0487C14.7213 14.6858 14.1734 15.2018 13.4344 15.5968C12.6953 15.9918 11.7779 16.1894 10.6821 16.1894H8.65607V21.0059H5.3877V7.58838H10.6821C11.7524 7.58838 12.6571 7.77314 13.3962 8.14266C14.1352 8.51219 14.6895 9.02187 15.059 9.67173C15.4285 10.3216 15.6133 11.067 15.6133 11.908ZM10.4336 13.5899C11.058 13.5899 11.5231 13.4434 11.8289 13.1503C12.1347 12.8573 12.2876 12.4432 12.2876 11.908C12.2876 11.3728 12.1347 10.9587 11.8289 10.6656C11.5231 10.3725 11.058 10.226 10.4336 10.226H8.65607V13.5899H10.4336Z" fill="white"/>
<path d="M15.6811 4.18945H5.38818V6.3488H15.6811V4.18945Z" fill="#E50913"/>
</g>
</svg>
