<svg width="114" height="33" viewBox="0 0 114 33" fill="none" xmlns="http://www.w3.org/2000/svg">
<mask id="mask0" mask-type="alpha" maskUnits="userSpaceOnUse" x="0" y="0" width="30" height="30">
<rect width="29.7619" height="29.7606" rx="14.8803" fill="white"/>
</mask>
<g mask="url(#mask0)">
<rect width="29.7619" height="29.7606" rx="14.8803" fill="white"/>
<path d="M22.1268 16.8758C22.1268 17.9773 21.874 18.9885 21.3683 19.9095C20.8627 20.8124 20.0862 21.5437 19.0389 22.1035C17.9915 22.6633 16.6913 22.9432 15.1384 22.9432H12.2672V29.7691H7.63531V10.7542H15.1384C16.6552 10.7542 17.9373 11.016 18.9847 11.5397C20.0321 12.0633 20.8176 12.7857 21.3413 13.7066C21.8649 14.6276 22.1268 15.684 22.1268 16.8758ZM14.7862 19.2594C15.6711 19.2594 16.3302 19.0518 16.7636 18.6364C17.197 18.2211 17.4137 17.6342 17.4137 16.8758C17.4137 16.1173 17.197 15.5305 16.7636 15.1151C16.3302 14.6998 15.6711 14.4921 14.7862 14.4921H12.2672V19.2594H14.7862Z" fill="#272931"/>
<path d="M22.2221 5.93677H7.63525V8.99693H22.2221V5.93677Z" fill="#E50913"/>
</g>
<path d="M55.7039 9.86176L52.0183 24H47.8493L45.5936 14.6953L43.2574 24H39.0884L35.5035 9.86176H39.1891L41.2232 20.1533L43.7407 9.86176H47.527L49.9438 20.1533L51.9981 9.86176H55.7039ZM66.2322 21.5026H60.9555L60.1096 24H56.5046L61.6201 9.86176H65.6078L70.7234 24H67.0781L66.2322 21.5026ZM65.346 18.8442L63.5938 13.6682L61.8618 18.8442H65.346ZM75.7242 21.3415H80.2356V24H72.2803V9.86176H75.7242V21.3415ZM85.3222 21.3415H89.8335V24H81.8782V9.86176H85.3222V21.3415ZM94.9201 12.6209V15.4808H99.5322V18.1393H94.9201V21.2408H100.136V24H91.4762V9.86176H100.136V12.6209H94.9201ZM112.543 9.86176V12.6209H108.797V24H105.353V12.6209H101.607V9.86176H112.543Z" fill="white"/>
</svg>
