<svg width="124" height="36" viewBox="0 0 124 36" fill="none" xmlns="http://www.w3.org/2000/svg">
    <mask id="mask0" mask-type="alpha" maskUnits="userSpaceOnUse" x="0" y="3" width="26" height="27">
        <rect y="3.5" width="25.9328" height="25.9317" rx="12.9659" fill="white"/>
    </mask>
    <g mask="url(#mask0)">
        <rect y="3.5" width="25.9328" height="25.9317" rx="12.9659" fill="white"/>
        <path d="M19.2799 18.2045C19.2799 19.1644 19.0596 20.0455 18.619 20.848C18.1784 21.6347 17.5019 22.2719 16.5892 22.7597C15.6766 23.2475 14.5437 23.4914 13.1906 23.4914H10.6888V29.4391H6.65283V12.8705H13.1906C14.5123 12.8705 15.6294 13.0987 16.542 13.555C17.4546 14.0113 18.1391 14.6407 18.5954 15.4431C19.0517 16.2456 19.2799 17.1661 19.2799 18.2045ZM12.8837 20.2815C13.6547 20.2815 14.2291 20.1006 14.6067 19.7387C14.9843 19.3768 15.1731 18.8654 15.1731 18.2045C15.1731 17.5437 14.9843 17.0323 14.6067 16.6704C14.2291 16.3085 13.6547 16.1276 12.8837 16.1276H10.6888V20.2815H12.8837Z"
              fill="#1F1D2B"/>
        <path d="M19.3629 8.67297H6.65283V11.3394H19.3629V8.67297Z" fill="#ffc942"/>
    </g>
    <path d="M52.8049 9.272L47.9569 26H45.5089L41.6209 12.536L37.5889 26L35.1649 26.024L30.4849 9.272H32.8129L36.4609 23.456L40.4929 9.272H42.9409L46.7809 23.408L50.4529 9.272H52.8049ZM65.0829 22.28H57.7869L56.4429 26H54.1389L60.1869 9.368H62.7069L68.7309 26H66.4269L65.0829 22.28ZM64.4589 20.504L61.4349 12.056L58.4109 20.504H64.4589ZM73.5508 24.224H79.4068V26H71.3668V9.272H73.5508V24.224ZM83.9102 24.224H89.7662V26H81.7262V9.272H83.9102V24.224ZM94.2695 11.048V16.64H100.366V18.44H94.2695V24.2H101.086V26H92.0855V9.248H101.086V11.048H94.2695ZM114.686 9.272V11.048H110.126V26H107.942V11.048H103.358V9.272H114.686Z"
          fill="white"/>
</svg>
