<svg width="114" height="31" viewBox="0 0 114 31" fill="none" xmlns="http://www.w3.org/2000/svg">
    <path d="M55.7039 7.86176L52.0183 22H47.8493L45.5936 12.6953L43.2574 22H39.0884L35.5035 7.86176H39.1891L41.2232 18.1533L43.7407 7.86176H47.527L49.9438 18.1533L51.9981 7.86176H55.7039ZM66.2322 19.5026H60.9555L60.1096 22H56.5046L61.6201 7.86176H65.6078L70.7234 22H67.0781L66.2322 19.5026ZM65.346 16.8442L63.5938 11.6682L61.8618 16.8442H65.346ZM75.7242 19.3415H80.2356V22H72.2803V7.86176H75.7242V19.3415ZM85.3222 19.3415H89.8335V22H81.8782V7.86176H85.3222V19.3415ZM94.9201 10.6209V13.4808H99.5322V16.1393H94.9201V19.2408H100.136V22H91.4762V7.86176H100.136V10.6209H94.9201ZM112.543 7.86176V10.6209H108.797V22H105.353V10.6209H101.607V7.86176H112.543Z"
          fill="#2E3239"/>
    <mask id="mask0" mask-type="alpha" maskUnits="userSpaceOnUse" x="0" y="0" width="30" height="30">
        <rect width="29.7619" height="29.7606" rx="14.8803" fill="white"/>
    </mask>
    <g mask="url(#mask0)">
        <rect width="29.7619" height="29.7606" rx="14.8803" fill="#2E3239"/>
        <path d="M22.1268 16.8758C22.1268 17.9773 21.874 18.9885 21.3683 19.9095C20.8627 20.8124 20.0862 21.5437 19.0389 22.1035C17.9915 22.6633 16.6913 22.9432 15.1384 22.9432H12.2672V29.7691H7.63531V10.7542H15.1384C16.6552 10.7542 17.9373 11.016 18.9847 11.5397C20.0321 12.0633 20.8176 12.7857 21.3413 13.7066C21.8649 14.6276 22.1268 15.684 22.1268 16.8758ZM14.7862 19.2594C15.6711 19.2594 16.3302 19.0518 16.7636 18.6364C17.197 18.2211 17.4137 17.6342 17.4137 16.8758C17.4137 16.1173 17.197 15.5305 16.7636 15.1151C16.3302 14.6998 15.6711 14.4921 14.7862 14.4921H12.2672V19.2594H14.7862Z"
              fill="white"/>
        <path d="M22.2221 5.93677H7.63525V8.99693H22.2221V5.93677Z" fill="#E50913"/>
    </g>
</svg>
