<svg width="21" height="11" viewBox="0 0 21 11" fill="none" xmlns="http://www.w3.org/2000/svg">
    <path fill-rule="evenodd" clip-rule="evenodd"
          d="M13.9792 2.01057C14.99 2.95722 15.6233 4.31309 15.6233 5.81939C15.6233 8.68058 13.339 11 10.5211 11C7.7032 11 5.41891 8.68058 5.41891 5.81939C5.41891 4.33126 6.03709 2.98997 7.02655 2.04504C6.07398 2.43286 5.11973 2.98586 4.17445 3.72084C3.15922 4.51018 2.15592 5.50992 1.17936 6.73531C0.635548 7.41766 -0.389327 6.57568 0.154406 5.89334C2.97749 2.35084 6.68833 -0.153778 10.9302 0.00734994C14.937 0.15958 18.3818 2.62263 20.8571 5.90896C21.3807 6.60424 20.3359 7.41571 19.8116 6.71954C18.1542 4.51885 16.1551 2.87176 13.9792 2.01057V2.01057ZM12.9452 3.4486C13.4572 3.4486 13.8722 3.86993 13.8722 4.3898C13.8722 4.9096 13.4572 5.331 12.9452 5.331C12.4333 5.331 12.0183 4.9096 12.0183 4.3898C12.0183 3.87 12.4332 3.4486 12.9452 3.4486V3.4486Z"
          fill="#8D9CB5"/>
</svg>
