<svg width="23" height="23" viewBox="0 0 23 23" fill="none" xmlns="http://www.w3.org/2000/svg">
    <path d="M11.5 0C9.22552 0 7.00211 0.674463 5.11095 1.9381C3.21978 3.20173 1.7458 4.99779 0.87539 7.09914C0.00498279 9.20049 -0.222756 11.5128 0.220974 13.7435C0.664704 15.9743 1.75997 18.0234 3.36828 19.6317C4.97658 21.24 7.02568 22.3353 9.25646 22.779C11.4872 23.2228 13.7995 22.995 15.9009 22.1246C18.0022 21.2542 19.7983 19.7802 21.0619 17.8891C22.3255 15.9979 23 13.7745 23 11.5C23 9.98979 22.7025 8.49438 22.1246 7.09913C21.5467 5.70389 20.6996 4.43614 19.6317 3.36827C18.5639 2.30039 17.2961 1.45331 15.9009 0.87538C14.5056 0.297452 13.0102 -2.68479e-06 11.5 0ZM19.827 17.418C18.8328 14.6316 17.6487 12.0094 11.5027 12.0086C12.5527 12.0079 13.5594 11.5902 14.3015 10.8473C15.0436 10.1045 15.4603 9.09734 15.4599 8.04733C15.4596 6.99732 15.0422 5.99044 14.2996 5.2481C13.557 4.50576 12.55 4.08873 11.5 4.08873C10.45 4.08873 9.44297 4.50576 8.70038 5.2481C7.95779 5.99044 7.54043 6.99732 7.54008 8.04733C7.53973 9.09734 7.95641 10.1045 8.69851 10.8473C9.4406 11.5902 10.4473 12.0079 11.4973 12.0086C5.33164 12.0094 4.16588 14.6316 3.17295 17.4179C2.08431 15.889 1.43763 14.0898 1.30381 12.2177C1.16998 10.3456 1.55417 8.47273 2.41426 6.8045C3.27435 5.13626 4.57714 3.73702 6.17981 2.76018C7.78248 1.78334 9.62316 1.2666 11.5001 1.26661C13.377 1.26662 15.2176 1.78338 16.8203 2.76024C18.423 3.7371 19.7257 5.13635 20.5858 6.8046C21.4459 8.47285 21.83 10.3457 21.6962 12.2178C21.5624 14.0899 20.9157 15.8891 19.827 17.418H19.827Z"
          fill="#8D9CB5"/>
</svg>
