<svg width="85" height="88" viewBox="0 0 85 88" fill="none" xmlns="http://www.w3.org/2000/svg">
    <path d="M17.9528 52.8969C20.8173 58.569 25.5578 63.0741 31.3684 65.6463C37.1789 68.2185 43.701 68.6991 49.8258 67.0063C55.9506 65.3135 61.3002 61.5519 64.9652 56.3609C68.6301 51.1698 70.3843 44.8698 69.9295 38.5316L67.2051 38.7271C67.6148 44.4358 66.0349 50.1101 62.7339 54.7855C59.4329 59.461 54.6147 62.849 49.0982 64.3736C43.5817 65.8983 37.7074 65.4655 32.474 63.1487C27.2405 60.832 22.9709 56.7744 20.3908 51.6656L17.9528 52.8969Z"
          fill="#17a500"/>
    <path d="M42.4296 14.9185C37.384 14.9185 32.4517 16.4147 28.2565 19.2178C24.0612 22.021 20.7914 26.0053 18.8605 30.6668C16.9296 35.3284 16.4244 40.4578 17.4088 45.4065C18.3931 50.3551 20.8228 54.9008 24.3906 58.4685C27.9584 62.0363 32.504 64.466 37.4527 65.4504C42.4013 66.4347 47.5308 65.9295 52.1923 63.9986C56.8538 62.0678 60.8381 58.798 63.6413 54.6027C66.4445 50.4074 67.9407 45.4751 67.9407 40.4295C67.9339 33.6656 65.244 27.1807 60.4612 22.3979C55.6784 17.6152 49.1935 14.9252 42.4296 14.9185ZM38.6564 51.615L26.3325 40.34L29.786 36.5667L38.4965 44.5417L54.8622 28.1696L58.482 31.7894L38.6564 51.615Z"
          fill="#4FBE89"/>
    <path d="M2.43 27.25L3.8 29.45L4.96 27.45C5.04555 27.2973 5.16968 27.1697 5.32 27.08L7.53 25.77L5.11 24.4C4.94247 24.3093 4.80646 24.1698 4.72 24L3.65 22L2.49 24.18C2.39313 24.3608 2.24301 24.5074 2.06 24.6L0 25.58L2.11 26.89C2.24241 26.9844 2.35179 27.1074 2.43 27.25Z"
          fill="#3C9EE4"/>
    <path d="M19.805 73.8033C20.2803 73.3277 20.6038 72.7219 20.7348 72.0624C20.8658 71.403 20.7984 70.7195 20.541 70.0983C20.2836 69.4772 19.8478 68.9463 19.2887 68.5728C18.7296 68.1993 18.0724 68 17.4 68C16.7276 68 16.0704 68.1993 15.5113 68.5728C14.9522 68.9463 14.5164 69.4772 14.259 70.0983C14.0016 70.7195 13.9342 71.403 14.0652 72.0624C14.1962 72.7219 14.5197 73.3277 14.995 73.8033C15.3107 74.1193 15.6857 74.37 16.0983 74.541C16.511 74.712 16.9533 74.8 17.4 74.8C17.8467 74.8 18.289 74.712 18.7017 74.541C19.1143 74.37 19.4893 74.1193 19.805 73.8033Z"
          fill="#FFC554"/>
    <path d="M48.17 81.6299L47.11 79.6299L45.94 81.8099C45.8478 81.9941 45.6963 82.142 45.51 82.2299L43.46 83.2299L45.56 84.5799C45.6897 84.6607 45.7992 84.7702 45.88 84.8999L47.27 87.1099L48.44 85.1099C48.5256 84.9572 48.6497 84.8296 48.8 84.7399L51.01 83.4299L48.57 82.0299C48.4041 81.9337 48.2662 81.7958 48.17 81.6299Z"
          fill="#FD666C"/>
    <path d="M71.79 5.28L73.17 7.49L74.33 5.49C74.4155 5.33728 74.5397 5.2097 74.69 5.12L76.9 3.81L74.48 2.4C74.3109 2.30794 74.172 2.16905 74.08 2L73.02 0L71.86 2.19C71.7631 2.37078 71.613 2.51741 71.43 2.61L69.37 3.66L71.47 4.97C71.5986 5.04795 71.708 5.15392 71.79 5.28Z"
          fill="#FFC554"/>
    <path d="M72.39 60.6499C71.7179 60.6496 71.0607 60.8484 70.5016 61.2214C69.9425 61.5943 69.5064 62.1246 69.2485 62.7453C68.9907 63.3659 68.9225 64.0491 69.0527 64.7085C69.1829 65.3678 69.5055 65.9738 69.98 66.4499C70.6275 67.0691 71.489 67.4147 72.385 67.4147C73.2809 67.4147 74.1424 67.0691 74.79 66.4499C75.2638 65.9744 75.5863 65.3694 75.7168 64.7109C75.8473 64.0525 75.78 63.3701 75.5233 62.7499C75.2667 62.1296 74.8322 61.5993 74.2746 61.2255C73.717 60.8518 73.0612 60.6515 72.39 60.6499Z"
          fill="#E95EE3"/>
    <path d="M81.54 35.2002L80.47 33.2002L79.27 35.3802C79.1732 35.561 79.023 35.7076 78.84 35.8002L76.78 36.8502L78.88 38.1602C79.0097 38.241 79.1192 38.3505 79.2 38.4802L80.58 40.6802L81.74 38.6802C81.8256 38.5275 81.9497 38.3999 82.1 38.3102L84.31 37.0002L81.93 35.5802C81.7694 35.4893 81.6351 35.3584 81.54 35.2002Z"
          fill="#F168A2"/>
    <path d="M54.46 2.58008C53.7879 2.57975 53.1308 2.77862 52.5717 3.15157C52.0126 3.52451 51.5765 4.05481 51.3186 4.67546C51.0607 5.29611 50.9926 5.97928 51.1227 6.63865C51.2529 7.29802 51.5756 7.90401 52.05 8.38008C52.6988 8.997 53.5598 9.34103 54.455 9.34103C55.3503 9.34103 56.2113 8.997 56.86 8.38008C57.3339 7.90462 57.6563 7.29954 57.7868 6.6411C57.9174 5.98266 57.85 5.30032 57.5934 4.68007C57.3367 4.05983 56.9022 3.52943 56.3446 3.15572C55.787 2.78201 55.1313 2.58172 54.46 2.58008Z"
          fill="#17a500"/>
</svg>
