<svg width="98" height="36" viewBox="0 0 98 36" fill="none" xmlns="http://www.w3.org/2000/svg">
<path d="M48.688 26L45.064 20.36L41.776 26H37.984L43.264 17.552L37.912 9.248H41.776L45.4 14.864L48.664 9.248H52.456L47.2 17.672L52.552 26H48.688ZM67.3251 14.432C67.3251 15.328 67.1091 16.168 66.6771 16.952C66.2611 17.736 65.5971 18.368 64.6851 18.848C63.7891 19.328 62.6531 19.568 61.2771 19.568H58.4691V26H55.1091V9.248H61.2771C62.5731 9.248 63.6771 9.472 64.5891 9.92C65.5011 10.368 66.1811 10.984 66.6291 11.768C67.0931 12.552 67.3251 13.44 67.3251 14.432ZM61.1331 16.856C62.0611 16.856 62.7491 16.648 63.1971 16.232C63.6451 15.8 63.8691 15.2 63.8691 14.432C63.8691 12.8 62.9571 11.984 61.1331 11.984H58.4691V16.856H61.1331ZM78.3507 26L74.6547 19.472H73.0707V26H69.7107V9.248H75.9987C77.2947 9.248 78.3987 9.48 79.3107 9.944C80.2227 10.392 80.9027 11.008 81.3507 11.792C81.8147 12.56 82.0467 13.424 82.0467 14.384C82.0467 15.488 81.7267 16.488 81.0867 17.384C80.4467 18.264 79.4947 18.872 78.2307 19.208L82.2387 26H78.3507ZM73.0707 16.952H75.8787C76.7907 16.952 77.4707 16.736 77.9187 16.304C78.3667 15.856 78.5907 15.24 78.5907 14.456C78.5907 13.688 78.3667 13.096 77.9187 12.68C77.4707 12.248 76.7907 12.032 75.8787 12.032H73.0707V16.952ZM96.4857 9.248V11.96H92.0217V26H88.6617V11.96H84.1977V9.248H96.4857Z" fill="#8D9CB5"/>
<mask id="mask0" mask-type="alpha" maskUnits="userSpaceOnUse" x="0" y="1" width="30" height="30">
<rect y="1" width="29.7619" height="29.7606" rx="14.8803" fill="white"/>
</mask>
<g mask="url(#mask0)">
<rect y="1" width="29.7619" height="29.7606" rx="14.8803" fill="#2E3239"/>
<path d="M22.1268 17.8758C22.1268 18.9773 21.874 19.9885 21.3683 20.9095C20.8627 21.8124 20.0862 22.5437 19.0389 23.1035C17.9915 23.6633 16.6913 23.9432 15.1384 23.9432H12.2672V30.7691H7.63531V11.7542H15.1384C16.6552 11.7542 17.9373 12.016 18.9847 12.5397C20.0321 13.0633 20.8176 13.7857 21.3413 14.7066C21.8649 15.6276 22.1268 16.684 22.1268 17.8758ZM14.7862 20.2594C15.6711 20.2594 16.3302 20.0518 16.7636 19.6364C17.197 19.2211 17.4137 18.6342 17.4137 17.8758C17.4137 17.1173 17.197 16.5305 16.7636 16.1151C16.3302 15.6998 15.6711 15.4921 14.7862 15.4921H12.2672V20.2594H14.7862Z" fill="white"/>
<path d="M22.2221 6.93677H7.63525V9.99693H22.2221V6.93677Z" fill="#E50913"/>
</g>
</svg>
