<svg width="5591" height="900" viewBox="0 0 5591 900" fill="none" xmlns="http://www.w3.org/2000/svg">
<g clip-path="url(#clip0_1344_754)">
<path d="M1793.17 677.59V229.59H1923.09L2021.01 631.51H2031.25L2129.17 229.59H2259.09V677.59H2191.89V278.23H2181.65L2084.37 677.59H1967.89L1870.61 278.23H1860.37V677.59H1793.17Z" fill="#FFFDFA"/>
<path d="M2433.17 686.55C2410.55 686.55 2390.39 682.71 2372.69 675.03C2354.98 667.35 2340.9 656.05 2330.45 641.11C2319.99 626.18 2314.77 608.05 2314.77 586.71C2314.77 565.37 2319.99 546.93 2330.45 532.63C2340.9 518.34 2355.19 507.57 2373.33 500.31C2391.46 493.06 2412.05 489.43 2435.09 489.43H2531.09V468.95C2531.09 450.61 2525.54 435.89 2514.45 424.79C2503.35 413.7 2486.29 408.15 2463.25 408.15C2440.21 408.15 2423.35 413.49 2411.41 424.15C2399.46 434.82 2391.57 448.69 2387.73 465.75L2326.29 445.91C2331.41 428.85 2339.62 413.38 2350.93 399.51C2362.23 385.65 2377.27 374.45 2396.05 365.91C2414.82 357.38 2437.43 353.11 2463.89 353.11C2504.85 353.11 2537.06 363.57 2560.53 384.47C2583.99 405.38 2595.73 435.03 2595.73 473.43V603.35C2595.73 616.15 2601.7 622.55 2613.65 622.55H2640.53V677.59H2591.25C2576.31 677.59 2564.15 673.75 2554.77 666.07C2545.38 658.39 2540.69 647.94 2540.69 634.71V632.79H2531.09C2527.67 639.19 2522.55 646.66 2515.73 655.19C2508.9 663.73 2498.87 671.09 2485.65 677.27C2472.42 683.45 2454.93 686.55 2433.17 686.55ZM2442.77 632.15C2469.22 632.15 2490.55 624.58 2506.77 609.43C2522.98 594.29 2531.09 573.49 2531.09 547.03V540.63H2438.93C2421.43 540.63 2407.35 544.37 2396.69 551.83C2386.02 559.3 2380.69 570.29 2380.69 584.79C2380.69 599.29 2386.23 610.82 2397.33 619.35C2408.42 627.89 2423.57 632.15 2442.77 632.15Z" fill="#FFFDFA"/>
<path d="M2685.33 677.59V362.07H2749.97V409.43H2760.21C2766.18 396.63 2776.85 384.69 2792.21 373.59C2807.57 362.5 2830.39 356.95 2860.69 356.95C2884.58 356.95 2905.81 362.29 2924.37 372.95C2942.93 383.62 2957.54 398.66 2968.21 418.07C2978.87 437.49 2984.21 460.85 2984.21 488.15V677.59H2918.29V493.27C2918.29 465.97 2911.46 445.81 2897.81 432.79C2884.15 419.78 2865.38 413.27 2841.49 413.27C2814.18 413.27 2792.31 422.23 2775.89 440.15C2759.46 458.07 2751.25 484.1 2751.25 518.23V677.59H2685.33Z" fill="#FFFDFA"/>
<path d="M3178.12 677.59C3158.92 677.59 3143.66 671.83 3132.36 660.31C3121.05 648.79 3115.4 633.43 3115.4 614.23V417.75H3028.36V362.07H3115.4V257.75H3181.32V362.07H3275.4V417.75H3181.32V602.71C3181.32 615.51 3187.29 621.91 3199.24 621.91H3265.16V677.59H3178.12Z" fill="#FFFDFA"/>
<path d="M3333.64 677.59V229.59H3399.56V677.59H3333.64Z" fill="#FFFDFA"/>
<path d="M3622.91 686.55C3590.91 686.55 3562.96 679.83 3539.07 666.39C3515.17 652.95 3496.51 633.97 3483.07 609.43C3469.63 584.9 3462.91 556.42 3462.91 523.99V516.31C3462.91 483.46 3469.52 454.77 3482.75 430.23C3495.97 405.7 3514.43 386.71 3538.11 373.27C3561.79 359.83 3589.2 353.11 3620.35 353.11C3651.5 353.11 3677.2 359.83 3700.03 373.27C3722.85 386.71 3740.67 405.38 3753.47 429.27C3766.27 453.17 3772.67 481.11 3772.67 513.11V538.07H3530.11C3530.96 565.81 3540.24 587.89 3557.95 604.31C3575.65 620.74 3597.73 628.95 3624.19 628.95C3648.93 628.95 3667.6 623.41 3680.19 612.31C3692.77 601.22 3702.48 588.42 3709.31 573.91L3763.71 602.07C3757.73 614.02 3749.09 626.61 3737.79 639.83C3726.48 653.06 3711.65 664.15 3693.31 673.11C3674.96 682.07 3651.49 686.55 3622.91 686.55ZM3530.75 487.51H3705.47C3703.76 463.62 3695.23 444.95 3679.87 431.51C3664.51 418.07 3644.45 411.35 3619.71 411.35C3594.97 411.35 3574.8 418.07 3559.23 431.51C3543.65 444.95 3534.16 463.62 3530.75 487.51Z" fill="#FFFDFA"/>
<path d="M3871.23 677.59L3805.31 229.59H3874.43L3928.19 630.87H3938.43L4007.55 229.59H4128.51L4197.63 630.87H4207.87L4260.99 229.59H4330.11L4264.19 677.59H4143.23L4072.83 270.55H4062.59L3992.83 677.59H3871.23Z" fill="#FFFDFA"/>
<path d="M4479.23 686.55C4456.61 686.55 4436.45 682.71 4418.75 675.03C4401.04 667.35 4386.96 656.05 4376.51 641.11C4366.05 626.18 4360.83 608.05 4360.83 586.71C4360.83 565.37 4366.05 546.93 4376.51 532.63C4386.96 518.34 4401.25 507.57 4419.39 500.31C4437.52 493.06 4458.11 489.43 4481.15 489.43H4577.15V468.95C4577.15 450.61 4571.6 435.89 4560.51 424.79C4549.41 413.7 4532.35 408.15 4509.31 408.15C4486.27 408.15 4469.41 413.49 4457.47 424.15C4445.52 434.82 4437.63 448.69 4433.79 465.75L4372.35 445.91C4377.47 428.85 4385.68 413.38 4396.99 399.51C4408.29 385.65 4423.33 374.45 4442.11 365.91C4460.88 357.38 4483.49 353.11 4509.95 353.11C4550.91 353.11 4583.12 363.57 4606.59 384.47C4630.05 405.38 4641.79 435.03 4641.79 473.43V603.35C4641.79 616.15 4647.76 622.55 4659.71 622.55H4686.59V677.59H4637.31C4622.37 677.59 4610.21 673.75 4600.83 666.07C4591.44 658.39 4586.75 647.94 4586.75 634.71V632.79H4577.15C4573.73 639.19 4568.61 646.66 4561.79 655.19C4554.96 663.73 4544.93 671.09 4531.71 677.27C4518.48 683.45 4500.99 686.55 4479.23 686.55ZM4488.83 632.15C4515.28 632.15 4536.61 624.58 4552.83 609.43C4569.04 594.29 4577.15 573.49 4577.15 547.03V540.63H4484.99C4467.49 540.63 4453.41 544.37 4442.75 551.83C4432.08 559.3 4426.75 570.29 4426.75 584.79C4426.75 599.29 4432.29 610.82 4443.39 619.35C4454.48 627.89 4469.63 632.15 4488.83 632.15Z" fill="#FFFDFA"/>
<path d="M4731.39 677.59V229.59H4797.31V677.59H4731.39Z" fill="#FFFDFA"/>
<path d="M4876.03 677.59V229.59H4941.95V677.59H4876.03Z" fill="#FFFDFA"/>
<path d="M5165.3 686.55C5133.3 686.55 5105.35 679.83 5081.46 666.39C5057.56 652.95 5038.9 633.97 5025.46 609.43C5012.02 584.9 5005.3 556.42 5005.3 523.99V516.31C5005.3 483.46 5011.91 454.77 5025.14 430.23C5038.36 405.7 5056.82 386.71 5080.5 373.27C5104.18 359.83 5131.59 353.11 5162.74 353.11C5193.89 353.11 5219.59 359.83 5242.42 373.27C5265.24 386.71 5283.06 405.38 5295.86 429.27C5308.66 453.17 5315.06 481.11 5315.06 513.11V538.07H5072.5C5073.35 565.81 5082.63 587.89 5100.34 604.31C5118.04 620.74 5140.12 628.95 5166.58 628.95C5191.32 628.95 5209.99 623.41 5222.58 612.31C5235.16 601.22 5244.87 588.42 5251.7 573.91L5306.1 602.07C5300.12 614.02 5291.48 626.61 5280.18 639.83C5268.87 653.06 5254.04 664.15 5235.7 673.11C5217.35 682.07 5193.88 686.55 5165.3 686.55ZM5073.14 487.51H5247.86C5246.15 463.62 5237.62 444.95 5222.26 431.51C5206.9 418.07 5186.84 411.35 5162.1 411.35C5137.36 411.35 5117.19 418.07 5101.62 431.51C5086.04 444.95 5076.55 463.62 5073.14 487.51Z" fill="#FFFDFA"/>
<path d="M5493.62 677.59C5474.42 677.59 5459.16 671.83 5447.86 660.31C5436.55 648.79 5430.9 633.43 5430.9 614.23V417.75H5343.86V362.07H5430.9V257.75H5496.82V362.07H5590.9V417.75H5496.82V602.71C5496.82 615.51 5502.79 621.91 5514.74 621.91H5580.66V677.59H5493.62Z" fill="#FFFDFA"/>
<path d="M1560.3 0H60C26.8629 0 0 26.8629 0 60V840C0 873.137 26.8629 900 60 900H1560.3C1593.44 900 1620.3 873.137 1620.3 840V60C1620.3 26.8629 1593.44 0 1560.3 0Z" fill="#FBAB30"/>
<path d="M453.4 180.3H273.4V360.3H453.4V180.3Z" fill="#363535"/>
<path d="M455.9 362.8H270.9V177.8H455.9V362.8ZM275.9 357.8H450.9V182.8H275.9V357.8Z" fill="#363535"/>
<path d="M633.4 180.3H453.4V360.3H633.4V180.3Z" fill="#F9F7F4"/>
<path d="M635.9 362.8H450.9V177.8H635.9V362.8ZM455.9 357.8H630.9V182.8H455.9V357.8Z" fill="#363535"/>
<path d="M813.4 180.3H633.4V360.3H813.4V180.3Z" fill="#F9F7F4"/>
<path d="M815.9 362.8H630.9V177.8H815.9V362.8ZM635.9 357.8H810.9V182.8H635.9V357.8Z" fill="#363535"/>
<path d="M453.4 360.3H273.4V540.3H453.4V360.3Z" fill="#F9F7F4"/>
<path d="M455.9 542.8H270.9V357.8H455.9V542.8ZM275.9 537.8H450.9V362.8H275.9V537.8Z" fill="#363535"/>
<path d="M633.4 360.3H453.4V540.3H633.4V360.3Z" fill="#F9F7F4"/>
<path d="M635.9 542.8H450.9V357.8H635.9V542.8ZM455.9 537.8H630.9V362.8H455.9V537.8Z" fill="#363535"/>
<path d="M813.4 360.3H633.4V540.3H813.4V360.3Z" fill="#F9F7F4"/>
<path d="M815.9 542.8H630.9V357.8H815.9V542.8ZM635.9 537.8H810.9V362.8H635.9V537.8Z" fill="#363535"/>
<path d="M453.4 540.3H273.4V720.3H453.4V540.3Z" fill="#F9F7F4"/>
<path d="M455.9 722.8H270.9V537.8H455.9V722.8ZM275.9 717.8H450.9V542.8H275.9V717.8Z" fill="#363535"/>
<path d="M633.4 540.3H453.4V720.3H633.4V540.3Z" fill="#F9F7F4"/>
<path d="M635.9 722.8H450.9V537.8H635.9V722.8ZM455.9 717.8H630.9V542.8H455.9V717.8Z" fill="#363535"/>
<path d="M813.4 540.3H633.4V720.3H813.4V540.3Z" fill="#F9F7F4"/>
<path d="M815.9 722.8H630.9V537.8H815.9V722.8ZM635.9 717.8H810.9V542.8H635.9V717.8Z" fill="#363535"/>
<path d="M993.05 180.3H813.05V360.3H993.05V180.3Z" fill="#363535"/>
<path d="M995.55 362.8H810.55V177.8H995.55V362.8ZM815.55 357.8H990.55V182.8H815.55V357.8Z" fill="#F9F7F4"/>
<path d="M1173.05 180.3H993.05V360.3H1173.05V180.3Z" fill="#363535"/>
<path d="M1175.55 362.8H990.55V177.8H1175.55V362.8ZM995.55 357.8H1170.55V182.8H995.55V357.8Z" fill="#F9F7F4"/>
<path d="M1353.05 180.3H1173.05V360.3H1353.05V180.3Z" fill="#363535"/>
<path d="M1355.55 362.8H1170.55V177.8H1355.55V362.8ZM1175.55 357.8H1350.55V182.8H1175.55V357.8Z" fill="#F9F7F4"/>
<path d="M993.05 360.3H813.05V540.3H993.05V360.3Z" fill="#363535"/>
<path d="M995.55 542.8H810.55V357.8H995.55V542.8ZM815.55 537.8H990.55V362.8H815.55V537.8Z" fill="#F9F7F4"/>
<path d="M1173.05 360.3H993.05V540.3H1173.05V360.3Z" fill="#363535"/>
<path d="M1175.55 542.8H990.55V357.8H1175.55V542.8ZM995.55 537.8H1170.55V362.8H995.55V537.8Z" fill="#F9F7F4"/>
<path d="M1353.05 360.3H1173.05V540.3H1353.05V360.3Z" fill="#363535"/>
<path d="M1355.55 542.8H1170.55V357.8H1355.55V542.8ZM1175.55 537.8H1350.55V362.8H1175.55V537.8Z" fill="#F9F7F4"/>
<path d="M993.05 540.3H813.05V720.3H993.05V540.3Z" fill="#363535"/>
<path d="M995.55 722.8H810.55V537.8H995.55V722.8ZM815.55 717.8H990.55V542.8H815.55V717.8Z" fill="#F9F7F4"/>
<path d="M1173.05 540.3H993.05V720.3H1173.05V540.3Z" fill="#F9F7F4"/>
<path d="M1175.55 722.8H990.55V537.8H1175.55V722.8ZM995.55 717.8H1170.55V542.8H995.55V717.8Z" fill="#F9F7F4"/>
<path d="M1353.05 540.3H1173.05V720.3H1353.05V540.3Z" fill="#363535"/>
<path d="M1355.55 722.8H1170.55V537.8H1355.55V722.8ZM1175.55 717.8H1350.55V542.8H1175.55V717.8Z" fill="#F9F7F4"/>
<path d="M815.5 717.8H810.5V722.8H815.5V717.8Z" fill="#363535"/>
<path d="M815.5 537.8H810.5V542.8H815.5V537.8Z" fill="#363535"/>
<path d="M815.5 357.8H810.5V362.8H815.5V357.8Z" fill="#363535"/>
<path d="M815.5 177.8H810.5V182.8H815.5V177.8Z" fill="#363535"/>
</g>
<defs>
<clipPath id="clip0_1344_754">
<rect width="5591" height="900" fill="white"/>
</clipPath>
</defs>
</svg>
