<svg width="165" height="51" viewBox="0 0 165 51" fill="none" xmlns="http://www.w3.org/2000/svg">
<g clip-path="url(#clip0_234_4153)">
<path d="M43.9453 28.2028C43.9453 22.6989 47.9724 18.7375 53.5054 18.7375C59.0384 18.7375 63.0656 22.6989 63.0656 28.2028C63.0656 33.7067 59.0384 37.6681 53.5054 37.6681C48.0075 37.6681 43.9453 33.7067 43.9453 28.2028ZM59.0734 28.2028C59.0734 24.7673 56.8672 22.1731 53.5054 22.1731C50.1436 22.1731 47.9724 24.7673 47.9724 28.2028C47.9724 31.6033 50.1436 34.2326 53.5054 34.2326C56.8672 34.1975 59.0734 31.6033 59.0734 28.2028Z" fill="white"/>
<path d="M64.5708 34.7561L66.672 31.7763C67.9677 33.1085 69.9637 34.2303 72.4851 34.2303C74.6212 34.2303 75.6718 33.2487 75.6718 32.197C75.6718 28.9718 65.1311 31.1804 65.1311 24.2742C65.1311 21.2243 67.7575 18.7002 72.0649 18.7002C74.9714 18.7002 77.3877 19.5766 79.2087 21.2593L77.0375 24.0989C75.5667 22.7317 73.5707 22.1007 71.7147 22.1007C70.0338 22.1007 69.1233 22.8369 69.1233 23.9236C69.1233 26.8333 79.6289 24.8702 79.6289 31.7062C79.6289 35.0716 77.2476 37.5957 72.31 37.5957C68.8081 37.6658 66.2867 36.4739 64.5708 34.7561Z" fill="white"/>
<path d="M98.189 37.3498V24.519L93.041 37.3498H91.3253L86.1776 24.519V37.3498H82.2905V19.0151H87.7534L92.2008 30.093L96.648 19.0151H102.146V37.3147H98.189V37.3498Z" fill="white"/>
<path d="M104.843 28.2009C104.843 22.697 108.87 18.7356 114.403 18.7356C119.936 18.7356 123.963 22.697 123.963 28.2009C123.963 33.7048 119.936 37.6662 114.403 37.6662C108.87 37.6662 104.843 33.7048 104.843 28.2009ZM119.971 28.2009C119.971 24.7653 117.765 22.1711 114.403 22.1711C111.041 22.1711 108.87 24.7653 108.87 28.2009C108.87 31.6014 111.041 34.2306 114.403 34.2306C117.765 34.1956 119.971 31.6014 119.971 28.2009Z" fill="white"/>
<path d="M125.469 34.7561L127.57 31.7763C128.866 33.1085 130.862 34.2303 133.383 34.2303C135.519 34.2303 136.57 33.2487 136.57 32.197C136.57 28.9718 126.029 31.1804 126.029 24.2742C126.029 21.2243 128.656 18.7002 132.963 18.7002C135.869 18.7002 138.286 19.5766 140.107 21.2593L137.936 24.0989C136.465 22.7317 134.469 22.1007 132.613 22.1007C130.932 22.1007 130.021 22.8369 130.021 23.9236C130.021 26.8333 140.527 24.8702 140.527 31.7062C140.527 35.0716 138.146 37.5957 133.208 37.5957C129.706 37.6658 127.185 36.4739 125.469 34.7561Z" fill="white"/>
<path d="M143.153 37.3498V19.0151H147.076V37.3147H143.153V37.3498Z" fill="white"/>
<path d="M149.457 34.7561L151.558 31.7763C152.854 33.1085 154.85 34.2303 157.371 34.2303C159.507 34.2303 160.558 33.2487 160.558 32.197C160.558 28.9718 150.017 31.1804 150.017 24.2742C150.017 21.2243 152.643 18.7002 156.951 18.7002C159.857 18.7002 162.274 19.5766 164.095 21.2593L161.923 24.0989C160.453 22.7317 158.457 22.1007 156.601 22.1007C154.92 22.1007 154.009 22.8369 154.009 23.9236C154.009 26.8333 164.515 24.8702 164.515 31.7062C164.515 35.0716 162.134 37.5957 157.196 37.5957C153.659 37.6658 151.138 36.4739 149.457 34.7561Z" fill="white"/>
<path d="M37.0434 12.3125C36.6286 10.7131 35.295 9.11371 32.8946 7.33323C30.9683 5.91489 28.9235 5.1001 27.2936 5.1001C26.9676 5.1001 26.6713 5.13027 26.3749 5.19063C25.6341 5.34152 24.9821 5.88471 24.5672 6.6995C24.0634 7.66518 23.9449 8.96282 24.2709 9.74744C24.3894 9.98886 24.5376 10.2906 24.7154 10.5622C23.1448 11.5279 22.2557 11.7995 22.1372 11.8297C26.2268 13.2178 29.6348 16.1149 31.7685 19.8871L31.7981 19.5249C31.887 18.5291 32.1833 17.3823 32.5982 16.2054C33.0131 16.3261 33.428 16.3865 33.8429 16.3865C34.9394 16.3865 35.8877 15.9338 36.4804 15.119C37.0731 14.3042 37.3102 13.2178 37.0434 12.3125Z" fill="#5E12A0"/>
<path d="M32.7761 15.3303C35.4729 16.0848 36.5693 13.9724 36.2137 12.554C35.8285 11.1357 34.5838 9.68715 32.3908 8.05756C30.1979 6.42798 27.9753 5.76407 26.5528 6.06585C25.1303 6.36762 24.7154 8.57058 25.0711 9.41555C25.2192 9.7475 25.5452 10.2303 25.9897 10.7735C25.4267 11.1658 24.8933 11.4676 24.4487 11.7392C27.1751 12.9765 29.5459 14.9079 31.324 17.3221C31.5314 16.5073 31.8278 15.783 32.0945 15.1493C32.3019 15.1795 32.539 15.2398 32.7761 15.3303Z" fill="url(#paint0_radial_234_4153)"/>
<path d="M17.3363 44.9042C26.4854 44.9042 33.9022 37.3516 33.9022 28.035C33.9022 18.7184 26.4854 11.1658 17.3363 11.1658C8.1873 11.1658 0.770508 18.7184 0.770508 28.035C0.770508 37.3516 8.1873 44.9042 17.3363 44.9042Z" fill="url(#paint1_radial_234_4153)"/>
<path opacity="0.6" d="M34.8504 11.1657C32.5982 8.75148 30.7016 8.11775 28.4197 7.60474C26.6416 7.18225 27.1158 6.15622 29.2791 6.36746C28.2419 6.00533 27.2639 5.9148 26.5527 6.06568C25.1302 6.36746 24.7154 8.57042 25.071 9.41539C25.2191 9.74734 25.5451 10.2302 25.9896 10.7734C25.1895 11.3166 24.5079 11.7089 23.9448 12.0107C24.2116 12.1314 24.5375 12.2822 24.9228 12.4935C25.9304 13.0367 27.0269 13.942 27.0269 13.942C25.3673 12.4935 25.7229 11.8296 28.0048 10.2C28.716 9.68699 30.02 9.74734 31.235 10.3811C32.45 11.0148 33.8725 12.6142 33.8725 12.6142L32.5093 15.2698C32.5982 15.3 32.6871 15.3302 32.776 15.3604C33.6354 15.6018 34.317 15.5414 34.8504 15.3302C35.4728 14.9379 37.1027 13.6101 34.8504 11.1657Z" fill="#A98698"/>
<path d="M28.39 9.05332C28.9827 9.29474 29.7532 9.71723 30.7015 10.351C31.8277 11.1054 32.8056 11.9504 33.4279 12.6143C32.3907 14.0024 31.7091 15.9036 31.2942 17.2314C31.5017 17.5332 31.7388 17.835 31.9462 18.1368C32.1536 17.3823 32.5093 16.2657 32.9834 15.1492C33.102 15.1794 33.2501 15.1794 33.3983 15.1794C33.7539 15.1794 34.1688 15.119 34.4948 14.8474C34.7319 14.6663 34.9986 14.3344 34.9689 13.7308C34.9689 13.1575 34.5244 12.4332 33.6058 11.5581C32.9538 10.9243 32.0647 10.2302 31.1757 9.59652C28.6271 7.8764 26.849 7.39356 26.0489 8.20835C25.5155 8.75155 25.5747 9.41546 25.7525 9.8983C24.8042 10.532 24.0041 10.9847 23.4707 11.2865C23.8263 11.4072 24.1523 11.5581 24.5079 11.7089C25.4562 11.1959 26.8194 10.3208 28.39 9.05332ZM33.991 13.3687C34.0799 13.5196 34.1095 13.6705 34.1095 13.761C34.1095 14.0326 34.0206 14.1231 33.9614 14.1835C33.8428 14.274 33.6057 14.3344 33.3983 14.3344C33.5761 13.9723 33.7836 13.6705 33.991 13.3687ZM26.6712 8.87226C26.7601 8.78173 26.9972 8.72137 27.3825 8.78173C27.0861 9.02315 26.7898 9.23439 26.4934 9.44563C26.4638 9.23439 26.4934 9.02315 26.6712 8.87226Z" fill="#5E12A0"/>
<path d="M17.3363 10.1699C7.6457 10.1699 -0.20752 18.167 -0.20752 28.035C-0.20752 37.9031 7.6457 45.9001 17.3363 45.9001C27.0268 45.9001 34.88 37.9031 34.88 28.035C34.88 18.167 26.9972 10.1699 17.3363 10.1699ZM17.3363 44.9042C8.1791 44.9042 0.770431 37.3599 0.770431 28.035C0.770431 18.7102 8.1791 11.1658 17.3363 11.1658C26.4934 11.1658 33.9021 18.7102 33.9021 28.035C33.9021 37.3599 26.4638 44.9042 17.3363 44.9042Z" fill="#5E12A0"/>
<path opacity="0.6" d="M17.3363 44.9042C26.4854 44.9042 33.9022 37.3516 33.9022 28.035C33.9022 18.7184 26.4854 11.1658 17.3363 11.1658C8.1873 11.1658 0.770508 18.7184 0.770508 28.035C0.770508 37.3516 8.1873 44.9042 17.3363 44.9042Z" fill="url(#paint2_linear_234_4153)"/>
<path opacity="0.6" d="M17.2178 42.8521C8.17918 41.3734 2.04477 32.7125 3.52648 23.5083C4.17848 19.4344 6.19358 15.964 9.03858 13.4592C4.88968 15.9036 1.80769 20.1586 0.977922 25.3492C-0.474188 34.5533 5.66018 43.2143 14.6692 44.693C19.7071 45.5379 24.5672 43.9385 28.153 40.8C24.9821 42.6711 21.1296 43.4858 17.2178 42.8521Z" fill="#A98698"/>
<path opacity="0.6" d="M19.9735 11.4071C15.795 10.713 11.7351 11.6787 8.41605 13.8213C8.35675 13.8817 8.29755 13.942 8.29755 13.942C9.57175 13.1574 11.4388 12.4633 11.4388 12.4633C6.63795 15.3 5.15625 18.529 5.15625 18.529C7.02325 14.8474 12.5056 12.2521 16.8026 12.071C21.0997 11.89 23.915 13.1876 27.3526 15.9941C30.7902 18.8308 32.8647 24.6249 32.6572 29.2119C32.4794 33.7988 30.1087 37.5107 30.1087 37.5107C31.7386 35.3681 32.7166 33.7988 33.3389 32.1994C33.4575 31.7166 33.576 31.2338 33.6353 30.7207C35.117 21.5468 29.0121 12.8858 19.9735 11.4071Z" fill="url(#paint3_linear_234_4153)"/>
<path d="M33.0725 27.884C33.0725 36.726 26.0194 43.9083 17.3365 43.9083C8.65352 43.9083 1.5708 36.726 1.5708 27.884H33.0725Z" fill="url(#paint4_linear_234_4153)"/>
<g opacity="0.6">
<path opacity="0.6" d="M31.8276 27.884C31.8276 36.5148 25.1302 43.5763 16.7139 43.9083C16.9214 43.9083 17.1288 43.9083 17.3362 43.9083C26.0192 43.9083 33.0723 36.726 33.0723 27.884H31.8276Z" fill="url(#paint5_linear_234_4153)"/>
</g>
<g opacity="0.7">
<path opacity="0.7" d="M3.79342 27.884H1.5708C1.5708 36.726 8.62392 43.9083 17.3068 43.9083C17.6921 43.9083 18.0477 43.9083 18.4033 43.8781C10.2538 43.2746 3.79342 36.3337 3.79342 27.884Z" fill="url(#paint6_linear_234_4153)"/>
</g>
<path d="M33.0429 28.0349C33.0429 26.1941 29.9016 25.1379 25.7231 24.7758C22.7004 24.5343 19.648 24.8361 16.1511 25.9225C13.1283 26.8278 10.4019 26.6769 8.41642 26.4355C4.00082 25.9225 1.5708 25.8621 1.5708 28.0349C1.5708 31.1734 7.85332 35.0965 17.2772 33.7385C22.0484 33.0444 24.5081 31.6261 27.3234 30.6604C30.3758 29.6343 33.0429 29.6645 33.0429 28.0349Z" fill="url(#paint7_linear_234_4153)"/>
<path d="M22.4928 20.4302C23.9658 20.4302 25.1599 19.2143 25.1599 17.7143C25.1599 16.2143 23.9658 14.9983 22.4928 14.9983C21.0198 14.9983 19.8257 16.2143 19.8257 17.7143C19.8257 19.2143 21.0198 20.4302 22.4928 20.4302Z" fill="white"/>
<path d="M26.8488 22.4522C27.4708 22.4522 27.9749 21.9388 27.9749 21.3054C27.9749 20.6721 27.4708 20.1587 26.8488 20.1587C26.2269 20.1587 25.7227 20.6721 25.7227 21.3054C25.7227 21.9388 26.2269 22.4522 26.8488 22.4522Z" fill="white"/>
<g opacity="0.6">
<path opacity="0.6" d="M30.8794 15.5414C30.8498 15.5414 30.8201 15.5414 30.8201 15.5414C30.6423 15.5112 30.5238 15.3302 30.5534 15.1189C30.8201 13.7308 31.9462 12.4029 32.0055 12.3426C32.124 12.1917 32.3611 12.1917 32.4797 12.3124C32.6278 12.4331 32.6278 12.6745 32.5093 12.7953C32.4797 12.8254 31.4424 14.0627 31.2054 15.2698C31.1757 15.4509 31.0276 15.5414 30.8794 15.5414Z" fill="url(#paint8_linear_234_4153)"/>
</g>
<path opacity="0.2" d="M16.2419 40.6191C16.7001 40.6191 17.0716 40.2408 17.0716 39.7742C17.0716 39.3075 16.7001 38.9292 16.2419 38.9292C15.7836 38.9292 15.4121 39.3075 15.4121 39.7742C15.4121 40.2408 15.7836 40.6191 16.2419 40.6191Z" fill="white"/>
<g opacity="0.4">
<path opacity="0.6" d="M15.7658 40.3182C15.4399 39.9862 15.4399 39.443 15.7658 39.1111C15.8251 39.0507 15.8844 39.0206 15.9436 38.9602C15.8251 38.9904 15.7362 39.0507 15.6473 39.1413C15.3213 39.4732 15.3213 40.0164 15.6473 40.3484C15.914 40.62 16.3289 40.6803 16.6549 40.4993C16.3585 40.62 16.0029 40.5596 15.7658 40.3182Z" fill="url(#paint9_linear_234_4153)"/>
</g>
<path opacity="0.3" d="M16.5362 39.5325C16.6344 39.5325 16.7141 39.4515 16.7141 39.3515C16.7141 39.2515 16.6344 39.1704 16.5362 39.1704C16.438 39.1704 16.3584 39.2515 16.3584 39.3515C16.3584 39.4515 16.438 39.5325 16.5362 39.5325Z" fill="white"/>
<path opacity="0.2" d="M20.5685 40.1965C21.0268 40.1965 21.3983 39.8182 21.3983 39.3516C21.3983 38.8849 21.0268 38.5066 20.5685 38.5066C20.1103 38.5066 19.7388 38.8849 19.7388 39.3516C19.7388 39.8182 20.1103 40.1965 20.5685 40.1965Z" fill="white"/>
<g opacity="0.4">
<path opacity="0.6" d="M20.0925 39.8956C19.7665 39.5636 19.7665 39.0204 20.0925 38.6885C20.1518 38.6281 20.211 38.598 20.2703 38.5376C20.1518 38.5678 20.0629 38.6281 19.974 38.7187C19.648 39.0506 19.648 39.5938 19.974 39.9258C20.2407 40.1974 20.6556 40.2577 20.9815 40.0767C20.6852 40.1974 20.3296 40.137 20.0925 39.8956Z" fill="url(#paint10_linear_234_4153)"/>
</g>
<path opacity="0.3" d="M20.8629 39.1102C20.9611 39.1102 21.0407 39.0291 21.0407 38.9291C21.0407 38.8291 20.9611 38.748 20.8629 38.748C20.7647 38.748 20.6851 38.8291 20.6851 38.9291C20.6851 39.0291 20.7647 39.1102 20.8629 39.1102Z" fill="white"/>
<path opacity="0.2" d="M18.4329 42.1581C18.7766 42.1581 19.0552 41.8744 19.0552 41.5244C19.0552 41.1744 18.7766 40.8906 18.4329 40.8906C18.0891 40.8906 17.8105 41.1744 17.8105 41.5244C17.8105 41.8744 18.0891 42.1581 18.4329 42.1581Z" fill="white"/>
<g opacity="0.4">
<path opacity="0.6" d="M18.0773 41.9175C17.8402 41.6761 17.8402 41.2536 18.0773 41.0122C18.1069 40.982 18.1662 40.9518 18.1958 40.9216C18.1069 40.9518 18.0476 41.0122 17.9884 41.0725C17.7513 41.3139 17.7513 41.7364 17.9884 41.9778C18.1958 42.1891 18.4921 42.2193 18.7589 42.0684C18.5218 42.1589 18.2551 42.0986 18.0773 41.9175Z" fill="url(#paint11_linear_234_4153)"/>
</g>
<path opacity="0.3" d="M18.6401 41.3132C18.7055 41.3132 18.7586 41.2591 18.7586 41.1925C18.7586 41.1258 18.7055 41.0718 18.6401 41.0718C18.5746 41.0718 18.5215 41.1258 18.5215 41.1925C18.5215 41.2591 18.5746 41.3132 18.6401 41.3132Z" fill="white"/>
<path opacity="0.2" d="M22.2556 41.7054C22.5993 41.7054 22.8779 41.4217 22.8779 41.0717C22.8779 40.7217 22.5993 40.438 22.2556 40.438C21.9119 40.438 21.6333 40.7217 21.6333 41.0717C21.6333 41.4217 21.9119 41.7054 22.2556 41.7054Z" fill="white"/>
<g opacity="0.4">
<path opacity="0.6" d="M21.9005 41.4649C21.6634 41.2234 21.6634 40.8009 21.9005 40.5595C21.9301 40.5293 21.9894 40.4992 22.019 40.469C21.9301 40.4992 21.8708 40.5595 21.8116 40.6199C21.5745 40.8613 21.5745 41.2838 21.8116 41.5252C22.019 41.7365 22.3153 41.7666 22.5821 41.6157C22.345 41.7063 22.0783 41.6459 21.9005 41.4649Z" fill="url(#paint12_linear_234_4153)"/>
</g>
<path opacity="0.3" d="M22.4632 40.8606C22.5287 40.8606 22.5818 40.8065 22.5818 40.7398C22.5818 40.6732 22.5287 40.6191 22.4632 40.6191C22.3978 40.6191 22.3447 40.6732 22.3447 40.7398C22.3447 40.8065 22.3978 40.8606 22.4632 40.8606Z" fill="white"/>
<path opacity="0.2" d="M12.7133 40.3174C13.4662 40.3174 14.0765 39.6958 14.0765 38.9292C14.0765 38.1625 13.4662 37.541 12.7133 37.541C11.9604 37.541 11.3501 38.1625 11.3501 38.9292C11.3501 39.6958 11.9604 40.3174 12.7133 40.3174Z" fill="white"/>
<g opacity="0.4">
<path opacity="0.6" d="M11.9436 39.8044C11.4102 39.2612 11.4102 38.386 11.9436 37.8428C12.0325 37.7523 12.1214 37.6919 12.24 37.6316C12.0622 37.6919 11.914 37.8127 11.7658 37.9334C11.2324 38.4766 11.2324 39.3517 11.7658 39.8949C12.2104 40.3476 12.892 40.4381 13.4254 40.1061C12.9216 40.3174 12.3289 40.2269 11.9436 39.8044Z" fill="url(#paint13_linear_234_4153)"/>
</g>
<path opacity="0.3" d="M13.1874 38.5066C13.3511 38.5066 13.4838 38.3715 13.4838 38.2049C13.4838 38.0382 13.3511 37.9031 13.1874 37.9031C13.0238 37.9031 12.8911 38.0382 12.8911 38.2049C12.8911 38.3715 13.0238 38.5066 13.1874 38.5066Z" fill="white"/>
<path opacity="0.2" d="M24.894 36.9072C25.6468 36.9072 26.2572 36.2857 26.2572 35.519C26.2572 34.7524 25.6468 34.1309 24.894 34.1309C24.1411 34.1309 23.5308 34.7524 23.5308 35.519C23.5308 36.2857 24.1411 36.9072 24.894 36.9072Z" fill="white"/>
<g opacity="0.4">
<path opacity="0.6" d="M24.093 36.3942C23.5596 35.851 23.5596 34.9759 24.093 34.4327C24.1819 34.3421 24.2708 34.2818 24.3894 34.2214C24.2116 34.2818 24.0634 34.4025 23.9152 34.5232C23.3818 35.0664 23.3818 35.9416 23.9152 36.4848C24.3597 36.9374 25.0413 37.028 25.5748 36.696C25.071 36.9072 24.5079 36.8167 24.093 36.3942Z" fill="url(#paint14_linear_234_4153)"/>
</g>
<path opacity="0.3" d="M25.3672 35.0965C25.5309 35.0965 25.6635 34.9614 25.6635 34.7947C25.6635 34.628 25.5309 34.4929 25.3672 34.4929C25.2035 34.4929 25.0708 34.628 25.0708 34.7947C25.0708 34.9614 25.2035 35.0965 25.3672 35.0965Z" fill="white"/>
</g>
<defs>
<radialGradient id="paint0_radial_234_4153" cx="0" cy="0" r="1" gradientUnits="userSpaceOnUse" gradientTransform="translate(35.6732 10.6528) scale(13.2451 13.4877)">
<stop stop-color="#FFEAFF" stop-opacity="0.6"/>
<stop offset="0.6807" stop-color="#A087C9"/>
<stop offset="1" stop-color="#10002F"/>
</radialGradient>
<radialGradient id="paint1_radial_234_4153" cx="0" cy="0" r="1" gradientUnits="userSpaceOnUse" gradientTransform="translate(28.3043 16.405) scale(32.4059 32.9994)">
<stop stop-color="#FFEAFF" stop-opacity="0.6"/>
<stop offset="0.6807" stop-color="#A087C9"/>
<stop offset="1" stop-color="#10002F"/>
</radialGradient>
<linearGradient id="paint2_linear_234_4153" x1="14.679" y1="44.6649" x2="20.1683" y2="11.4086" gradientUnits="userSpaceOnUse">
<stop stop-color="#81FFFF"/>
<stop offset="0.6202" stop-color="white" stop-opacity="0"/>
</linearGradient>
<linearGradient id="paint3_linear_234_4153" x1="29.0107" y1="16.5785" x2="15.0854" y2="29.1256" gradientUnits="userSpaceOnUse">
<stop offset="0.2888" stop-color="white"/>
<stop offset="0.7796" stop-color="white" stop-opacity="0"/>
</linearGradient>
<linearGradient id="paint4_linear_234_4153" x1="1.58413" y1="35.8868" x2="33.0649" y2="35.8868" gradientUnits="userSpaceOnUse">
<stop stop-color="#0002E9"/>
<stop offset="0.9952" stop-color="#FF00C7"/>
</linearGradient>
<linearGradient id="paint5_linear_234_4153" x1="34.5549" y1="29.2902" x2="17.1269" y2="45.4643" gradientUnits="userSpaceOnUse">
<stop offset="0.2888" stop-color="white"/>
<stop offset="0.7796" stop-color="white" stop-opacity="0"/>
</linearGradient>
<linearGradient id="paint6_linear_234_4153" x1="1.58413" y1="35.8868" x2="18.4262" y2="35.8868" gradientUnits="userSpaceOnUse">
<stop stop-color="#000292"/>
<stop offset="0.9952" stop-color="#7D00C7"/>
</linearGradient>
<linearGradient id="paint7_linear_234_4153" x1="1.60526" y1="29.3661" x2="33.0437" y2="29.3661" gradientUnits="userSpaceOnUse">
<stop stop-color="#000292"/>
<stop offset="0.9952" stop-color="#BE00C7"/>
</linearGradient>
<linearGradient id="paint8_linear_234_4153" x1="32.5278" y1="12.1956" x2="30.2083" y2="15.897" gradientUnits="userSpaceOnUse">
<stop offset="0.2888" stop-color="white"/>
<stop offset="0.7796" stop-color="white" stop-opacity="0"/>
</linearGradient>
<linearGradient id="paint9_linear_234_4153" x1="15.402" y1="39.8009" x2="16.6558" y2="39.8009" gradientUnits="userSpaceOnUse">
<stop offset="0.2888" stop-color="white"/>
<stop offset="0.7796" stop-color="white" stop-opacity="0"/>
</linearGradient>
<linearGradient id="paint10_linear_234_4153" x1="19.7256" y1="39.3725" x2="20.9794" y2="39.3725" gradientUnits="userSpaceOnUse">
<stop offset="0.2888" stop-color="white"/>
<stop offset="0.7796" stop-color="white" stop-opacity="0"/>
</linearGradient>
<linearGradient id="paint11_linear_234_4153" x1="17.8067" y1="41.5324" x2="18.748" y2="41.5324" gradientUnits="userSpaceOnUse">
<stop offset="0.2888" stop-color="white"/>
<stop offset="0.7796" stop-color="white" stop-opacity="0"/>
</linearGradient>
<linearGradient id="paint12_linear_234_4153" x1="21.6171" y1="41.0786" x2="22.5583" y2="41.0786" gradientUnits="userSpaceOnUse">
<stop offset="0.2888" stop-color="white"/>
<stop offset="0.7796" stop-color="white" stop-opacity="0"/>
</linearGradient>
<linearGradient id="paint13_linear_234_4153" x1="11.3522" y1="38.9646" x2="13.3997" y2="38.9646" gradientUnits="userSpaceOnUse">
<stop offset="0.2888" stop-color="white"/>
<stop offset="0.7796" stop-color="white" stop-opacity="0"/>
</linearGradient>
<linearGradient id="paint14_linear_234_4153" x1="23.5129" y1="35.5534" x2="25.5605" y2="35.5534" gradientUnits="userSpaceOnUse">
<stop offset="0.2888" stop-color="white"/>
<stop offset="0.7796" stop-color="white" stop-opacity="0"/>
</linearGradient>
<clipPath id="clip0_234_4153">
<rect width="165" height="51" fill="white"/>
</clipPath>
</defs>
</svg>
