<svg width="40" height="40" viewBox="0 0 40 40" fill="none" xmlns="http://www.w3.org/2000/svg">
<g clip-path="url(#clip0_2436_45876)">
<circle cx="20" cy="20" r="20" fill="url(#paint0_radial_2436_45876)"/>
<path opacity="0.95" d="M30.8635 14.9305V25.0699C30.8643 25.6121 30.6624 26.135 30.2974 26.5359C29.9324 26.9368 29.4307 27.1868 28.8908 27.2367C28.3509 27.2866 27.8118 27.1328 27.3795 26.8056C26.9472 26.4784 26.6529 26.0014 26.5543 25.4682C26.5311 25.3367 26.519 25.2034 26.5181 25.0699V23.4186C26.5142 22.96 26.3653 22.5143 26.0927 22.1455C25.8201 21.7766 25.4377 21.5035 25.0004 21.3653C24.5631 21.227 24.0933 21.2307 23.6582 21.3757C23.2231 21.5208 22.845 21.7999 22.5782 22.1729L21.4484 23.759L19.6306 26.3083C19.2839 26.7492 18.7801 27.0389 18.2247 27.1168C17.6693 27.1948 17.1053 27.0549 16.6506 26.7266C16.196 26.3982 15.8859 25.9067 15.7853 25.355C15.6846 24.8032 15.8013 24.234 16.1108 23.7662L23.3531 13.6269C23.5533 13.36 23.8123 13.1427 24.1099 12.992C24.4076 12.8413 24.736 12.7612 25.0696 12.7578H28.6908C29.267 12.7578 29.8197 12.9867 30.2271 13.3942C30.6346 13.8016 30.8635 14.3543 30.8635 14.9305Z" fill="#FFFDFA"/>
<path opacity="0.95" d="M23.983 26.5182C24.9829 26.5182 25.7936 25.7075 25.7936 24.7076C25.7936 23.7076 24.9829 22.897 23.983 22.897C22.983 22.897 22.1724 23.7076 22.1724 24.7076C22.1724 25.7075 22.983 26.5182 23.983 26.5182Z" fill="#0D0A03"/>
<path opacity="0.95" d="M18.5513 12.7578H11.3089C10.7327 12.7578 10.1801 12.9867 9.7726 13.3942C9.36514 13.8016 9.13623 14.3543 9.13623 14.9305V25.0699C9.13706 25.5297 9.28377 25.9775 9.55527 26.3487C9.82676 26.7198 10.209 26.9953 10.647 27.1354C11.085 27.2755 11.5562 27.273 11.9927 27.1283C12.4292 26.9836 12.8085 26.7041 13.0761 26.33L20.3185 16.1907C20.5497 15.8659 20.6871 15.4838 20.7157 15.0861C20.7442 14.6884 20.6628 14.2906 20.4803 13.9361C20.2979 13.5816 20.0214 13.2842 19.6811 13.0764C19.3409 12.8685 18.95 12.7583 18.5513 12.7578ZM12.7574 17.8275C12.4709 17.8275 12.1909 17.7425 11.9527 17.5834C11.7145 17.4242 11.5288 17.198 11.4192 16.9333C11.3096 16.6686 11.2809 16.3774 11.3368 16.0964C11.3927 15.8154 11.5306 15.5574 11.7332 15.3548C11.9358 15.1522 12.1939 15.0143 12.4748 14.9584C12.7558 14.9025 13.0471 14.9312 13.3117 15.0408C13.5764 15.1504 13.8026 15.3361 13.9618 15.5743C14.121 15.8125 14.2059 16.0925 14.2059 16.379C14.2059 16.7632 14.0533 17.1316 13.7817 17.4032C13.51 17.6749 13.1416 17.8275 12.7574 17.8275Z" fill="#0D0A03"/>
</g>
<defs>
<radialGradient id="paint0_radial_2436_45876" cx="0" cy="0" r="1" gradientUnits="userSpaceOnUse" gradientTransform="translate(20 20) scale(20 20)">
<stop offset="0.473958" stop-color="#FFC640"/>
<stop offset="1" stop-color="#F2AF13"/>
</radialGradient>
<clipPath id="clip0_2436_45876">
<rect width="40" height="40" fill="white"/>
</clipPath>
</defs>
</svg>
