<svg width="1626" height="1626" viewBox="0 0 1626 1626" fill="none" xmlns="http://www.w3.org/2000/svg">
<g clip-path="url(#clip0_1393_277)">
<rect width="1626" height="1626" rx="813" fill="#FBAB30"/>
<path d="M456.316 543.267H276.349V723.233H456.316V543.267Z" fill="#363535"/>
<path d="M458.815 725.733H273.85V540.767H458.815V725.733ZM278.849 720.734H453.816V545.766H278.849V720.734Z" fill="#363535"/>
<path d="M636.283 543.267H456.316V723.233H636.283V543.267Z" fill="#F9F7F4"/>
<path d="M638.782 725.733H453.816V540.767H638.782V725.733ZM458.815 720.734H633.783V545.766H458.815V720.734Z" fill="#363535"/>
<path d="M816.249 543.267H636.283V723.233H816.249V543.267Z" fill="#F9F7F4"/>
<path d="M818.749 725.733H633.783V540.767H818.749V725.733ZM638.782 720.734H813.75V545.766H638.782V720.734Z" fill="#363535"/>
<path d="M456.316 723.233H276.349V903.2H456.316V723.233Z" fill="#F9F7F4"/>
<path d="M458.815 905.7H273.85V720.734H458.815V905.7ZM278.849 900.701H453.816V725.733H278.849V900.701Z" fill="#363535"/>
<path d="M636.283 723.233H456.316V903.2H636.283V723.233Z" fill="#F9F7F4"/>
<path d="M638.782 905.7H453.816V720.734H638.782V905.7ZM458.815 900.701H633.783V725.733H458.815V900.701Z" fill="#363535"/>
<path d="M816.249 723.233H636.283V903.2H816.249V723.233Z" fill="#F9F7F4"/>
<path d="M818.749 905.7H633.783V720.734H818.749V905.7ZM638.782 900.701H813.75V725.733H638.782V900.701Z" fill="#363535"/>
<path d="M456.316 903.2H276.349V1083.17H456.316V903.2Z" fill="#F9F7F4"/>
<path d="M458.815 1085.67H273.85V900.7H458.815V1085.67ZM278.849 1080.67H453.816V905.699H278.849V1080.67Z" fill="#363535"/>
<path d="M636.283 903.2H456.316V1083.17H636.283V903.2Z" fill="#F9F7F4"/>
<path d="M638.782 1085.67H453.816V900.7H638.782V1085.67ZM458.815 1080.67H633.783V905.699H458.815V1080.67Z" fill="#363535"/>
<path d="M816.249 903.2H636.283V1083.17H816.249V903.2Z" fill="#F9F7F4"/>
<path d="M818.749 1085.67H633.783V900.7H818.749V1085.67ZM638.782 1080.67H813.75V905.699H638.782V1080.67Z" fill="#363535"/>
<path d="M995.866 543.267H815.899V723.233H995.866V543.267Z" fill="#363535"/>
<path d="M998.365 725.733H813.4V540.767H998.365V725.733ZM818.399 720.734H993.366V545.766H818.399V720.734Z" fill="#F9F7F4"/>
<path d="M1175.83 543.267H995.866V723.233H1175.83V543.267Z" fill="#363535"/>
<path d="M1178.33 725.733H993.366V540.767H1178.33V725.733ZM998.366 720.734H1173.33V545.766H998.366V720.734Z" fill="#F9F7F4"/>
<path d="M1355.8 543.267H1175.83V723.233H1355.8V543.267Z" fill="#363535"/>
<path d="M1358.3 725.733H1173.33V540.767H1358.3V725.733ZM1178.33 720.734H1353.3V545.766H1178.33V720.734Z" fill="#F9F7F4"/>
<path d="M995.866 723.233H815.899V903.2H995.866V723.233Z" fill="#363535"/>
<path d="M998.365 905.7H813.4V720.734H998.365V905.7ZM818.399 900.701H993.366V725.733H818.399V900.701Z" fill="#F9F7F4"/>
<path d="M1175.83 723.233H995.866V903.2H1175.83V723.233Z" fill="#363535"/>
<path d="M1178.33 905.7H993.366V720.734H1178.33V905.7ZM998.366 900.701H1173.33V725.733H998.366V900.701Z" fill="#F9F7F4"/>
<path d="M1355.8 723.233H1175.83V903.2H1355.8V723.233Z" fill="#363535"/>
<path d="M1358.3 905.7H1173.33V720.734H1358.3V905.7ZM1178.33 900.701H1353.3V725.733H1178.33V900.701Z" fill="#F9F7F4"/>
<path d="M995.866 903.2H815.899V1083.17H995.866V903.2Z" fill="#363535"/>
<path d="M998.365 1085.67H813.4V900.7H998.365V1085.67ZM818.399 1080.67H993.366V905.699H818.399V1080.67Z" fill="#F9F7F4"/>
<path d="M1175.83 903.2H995.866V1083.17H1175.83V903.2Z" fill="#F9F7F4"/>
<path d="M1178.33 1085.67H993.366V900.7H1178.33V1085.67ZM998.366 1080.67H1173.33V905.699H998.366V1080.67Z" fill="#F9F7F4"/>
<path d="M1355.8 903.2H1175.83V1083.17H1355.8V903.2Z" fill="#363535"/>
<path d="M1358.3 1085.67H1173.33V900.7H1358.3V1085.67ZM1178.33 1080.67H1353.3V905.699H1178.33V1080.67Z" fill="#F9F7F4"/>
<path d="M818.35 1080.67H813.35V1085.67H818.35V1080.67Z" fill="#363535"/>
<path d="M818.35 900.7H813.35V905.7H818.35V900.7Z" fill="#363535"/>
<path d="M818.35 720.734H813.35V725.734H818.35V720.734Z" fill="#363535"/>
<path d="M818.35 540.767H813.35V545.767H818.35V540.767Z" fill="#363535"/>
</g>
<defs>
<clipPath id="clip0_1393_277">
<rect width="1626" height="1626" fill="white"/>
</clipPath>
</defs>
</svg>
